<svg width="448" height="463" viewBox="0 0 448 463" fill="none" xmlns="http://www.w3.org/2000/svg">
<path d="M79.6226 284.191C79.6226 284.191 92.5113 276.412 94.8157 270.702" stroke="#5AA07B" stroke-width="3.3777" stroke-miterlimit="10" stroke-linecap="round" stroke-linejoin="round"/>
<path d="M35.7515 312.962C39.6903 312.962 42.8833 309.362 42.8833 304.922C42.8833 300.482 39.6903 296.882 35.7515 296.882C31.8127 296.882 28.6198 300.482 28.6198 304.922C28.6198 309.362 31.8127 312.962 35.7515 312.962Z" fill="#E2765D"/>
<path d="M53.8012 345.215C58.249 345.215 61.8546 341.149 61.8546 336.133C61.8546 331.117 58.249 327.051 53.8012 327.051C49.3533 327.051 45.7477 331.117 45.7477 336.133C45.7477 341.149 49.3533 345.215 53.8012 345.215Z" fill="#E2765D"/>
<path d="M42.2448 340.058C45.8039 340.058 48.6891 336.805 48.6891 332.792C48.6891 328.779 45.8039 325.526 42.2448 325.526C38.6856 325.526 35.8004 328.779 35.8004 332.792C35.8004 336.805 38.6856 340.058 42.2448 340.058Z" fill="#E2765D"/>
<path d="M39.7127 296.633C39.7127 296.633 43.8527 290.973 67.7945 294.065C71.0205 304.861 66.4118 322.867 59.9675 329.545" stroke="#5AA07B" stroke-width="3.3777" stroke-miterlimit="10" stroke-linecap="round" stroke-linejoin="round"/>
<path d="M68.1167 293.013C69.4993 291.457 79.6228 284.191 79.6228 284.191C70.4133 308.571 52.002 313.759 52.002 313.759" stroke="#5AA07B" stroke-width="3.3777" stroke-miterlimit="10" stroke-linecap="round" stroke-linejoin="round"/>
<path d="M48.6889 322.989C52.248 322.989 55.1332 319.736 55.1332 315.723C55.1332 311.711 52.248 308.458 48.6889 308.458C45.1297 308.458 42.2445 311.711 42.2445 315.723C42.2445 319.736 45.1297 322.989 48.6889 322.989Z" fill="#E2765D"/>
<path d="M348.48 242.819C328.225 283.286 293.239 294.698 265.618 295.732" stroke="#3598A5" stroke-width="3.3777" stroke-miterlimit="10" stroke-linecap="round" stroke-linejoin="round"/>
<path d="M378.444 127.355L386.115 130.293L388.263 137.211" stroke="#5AA07B" stroke-width="3.3777" stroke-miterlimit="10" stroke-linecap="round" stroke-linejoin="round"/>
<path d="M386.575 130.467C386.575 130.467 378.983 136.429 374.835 150.44" stroke="#5AA07B" stroke-width="3.3777" stroke-miterlimit="10"/>
<path d="M384.506 150.179C392.793 142.4 413.509 140.062 428.007 147.841C421.789 154.846 399.003 163.407 392.793 163.407C386.576 163.407 384.506 150.179 384.506 150.179Z" fill="#5AA07B"/>
<path d="M253.994 4.66748C253.994 4.66748 262.97 10.8907 264.352 24.9009C265.735 38.911 281.615 49.8017 281.615 49.8017C281.615 49.8017 288.521 28.0125 280.233 17.1218C271.953 6.22328 253.994 4.66748 253.994 4.66748Z" fill="#5AA07B"/>
<path d="M330.647 0C319.602 3.11161 312.001 7.77904 309.931 16.3399C307.861 24.9008 289.216 30.3501 288.528 44.3523C287.841 58.3625 301.651 59.9183 310.627 56.8067C319.602 53.6951 317.532 42.7965 322.367 35.7994C327.202 28.8022 330.647 0 330.647 0Z" fill="#5AA07B"/>
<path d="M8.54633 112.721C8.54633 112.721 12.6082 136.082 23.1692 140.441C33.7223 144.793 42.7365 149.026 50.7822 158.756C58.8201 168.485 69.1857 166.195 69.1857 166.195C69.1857 166.195 58.1327 135.979 47.7592 123.967C37.3936 111.939 8.54633 112.721 8.54633 112.721Z" fill="#5AA07B"/>
<path d="M235.122 43.3178C277.475 36.0521 311.54 43.3178 325.351 57.8413C339.161 72.3648 346.527 111.797 345.605 128.398" stroke="#3598A5" stroke-width="3.3777" stroke-miterlimit="10" stroke-linecap="round" stroke-linejoin="round"/>
<path d="M42.8821 247.345C42.8821 247.345 51.4824 259.847 58.8953 258.875C66.3161 257.912 72.7839 257.39 80.1343 260.455C87.4848 263.527 93.0309 258.678 93.0309 258.678C93.0309 258.678 78.4706 244.462 69.136 240.821C59.7937 237.181 42.8821 247.345 42.8821 247.345Z" fill="#5AA07B"/>
<path d="M57.2033 175.862C50.2981 171.194 31.6524 167.301 24.0598 181.311C16.4672 195.321 15.772 200.762 10.9368 204.656C21.2946 207.767 48.9154 203.1 55.8207 192.983C62.7259 182.867 57.2033 175.862 57.2033 175.862Z" fill="#5AA07B"/>
<path d="M175.983 51.4098C175.983 51.4098 155.877 35.3715 118.719 47.8845C91.0195 57.2106 93.816 74.3513 71.5537 95.6829C48.768 117.522 19.3506 119.088 20.8503 154.646C22.2329 187.405 51.3458 190.701 52.8378 222.178C54.3297 253.654 43.4017 262.904 66.3123 279.886C96.9874 302.631 334.366 309.251 367.939 262.898C388.194 234.936 365.174 217.73 364.713 191.203C364.307 167.694 386.413 149.817 376.68 128.829C366.947 107.841 346.278 111.416 324.571 96.2614C302.863 81.1071 298.887 47.9991 254.206 39.1368C210.392 30.4492 175.983 51.4098 175.983 51.4098Z" fill="#52B9C1"/>
<path d="M96.5735 346.274C96.5735 346.274 68.9526 384.403 80.693 416.309C92.4335 448.215 127.647 442.765 127.647 442.765" fill="#EAE3DA"/>
<path d="M77.9681 394.527C77.4135 401.769 78.0774 409.193 80.6942 416.309C92.4346 448.215 127.648 442.765 127.648 442.765" stroke="#D3C9BE" stroke-width="4.5036" stroke-miterlimit="10" stroke-linecap="round" stroke-linejoin="round"/>
<path d="M258.152 448.215C213.268 463.781 146.981 465.336 130.405 444.321C113.838 423.314 124.188 403.862 124.188 403.862L209.214 332.935L265.042 286.363C265.042 286.363 276.017 288.63 288.64 296.978C300.552 304.859 313.933 318.143 320.971 340.05C335.492 385.185 303.036 432.649 258.152 448.215Z" fill="#EAE3DA"/>
<path d="M113.471 430.272C124.709 430.272 133.819 420.004 133.819 407.337C133.819 394.671 124.709 384.403 113.471 384.403C102.233 384.403 93.1223 394.671 93.1223 407.337C93.1223 420.004 102.233 430.272 113.471 430.272Z" fill="#D3C9BE"/>
<path d="M215.345 442.773C227.93 442.773 238.131 431.275 238.131 417.091C238.131 402.907 227.93 391.408 215.345 391.408C202.761 391.408 192.56 402.907 192.56 417.091C192.56 431.275 202.761 442.773 215.345 442.773Z" fill="#D3C9BE"/>
<path d="M288.656 296.978C282.329 303.675 275.212 309.621 267.448 314.644C250.568 325.582 230.641 332.193 209.222 332.927L265.05 286.355C265.058 286.363 276.033 288.63 288.656 296.978Z" fill="#D3C9BE"/>
<path d="M315.815 395.823C304.848 419.539 284.109 439.212 258.159 448.215C213.275 463.781 146.989 465.337 130.413 444.321C113.837 423.314 124.195 403.855 124.195 403.855" stroke="#D3C9BE" stroke-width="4.5036" stroke-miterlimit="10" stroke-linecap="round" stroke-linejoin="round"/>
<path d="M219.334 414.307C257.152 394.679 273.55 350.683 255.959 316.042C238.369 281.4 193.452 269.229 155.634 288.858C117.816 308.487 101.419 352.482 119.009 387.124C136.599 421.766 181.516 433.936 219.334 414.307Z" fill="#D3C9BE"/>
<path d="M370.844 219.78C370.844 235.148 359.783 247.618 346.137 247.618C342.403 247.618 338.872 246.686 335.701 245.02C327.272 240.589 321.429 230.947 321.429 219.78C321.429 204.403 332.482 191.941 346.137 191.941C347.23 191.941 348.293 192.02 349.347 192.17C361.47 193.939 370.844 205.627 370.844 219.78Z" fill="#E2A993"/>
<path d="M270.658 287.832C270.658 287.832 274.032 296.48 270.658 303.051C267.283 309.621 258.691 304.78 258.691 304.78C258.691 304.78 260.839 315.845 253.473 319.651C246.107 323.458 240.584 316.887 240.584 316.887C240.584 316.887 241.81 328.994 231.07 328.994C220.329 328.994 217.564 317.582 217.564 317.582" stroke="#BAAFA4" stroke-width="4.5036" stroke-miterlimit="10" stroke-linecap="round" stroke-linejoin="round"/>
<path d="M94.7622 272.922C108.408 272.922 119.469 260.458 119.469 245.083C119.469 229.708 108.408 217.245 94.7622 217.245C81.1167 217.245 70.0549 229.708 70.0549 245.083C70.0549 260.458 81.1167 272.922 94.7622 272.922Z" fill="#D19582"/>
<path d="M349.347 192.17C349.308 194.752 349.191 197.319 348.988 199.854C347.676 216.099 343.02 231.381 335.709 245.02C327.28 240.59 321.437 230.947 321.437 219.78C321.437 204.403 332.49 191.941 346.145 191.941C347.23 191.933 348.3 192.012 349.347 192.17Z" fill="#D19582"/>
<path d="M106.227 244.08C106.227 244.08 114.515 240.447 123.256 250.303C116.35 250.824 113.124 254.457 113.124 258.082" stroke="#B57B69" stroke-width="4.5036" stroke-miterlimit="10" stroke-linecap="round" stroke-linejoin="round"/>
<path d="M311.855 199.759C311.855 202.934 311.73 206.077 311.48 209.189C308.52 245.944 288.398 277.818 259.16 296.748C257.098 298.083 254.996 299.347 252.856 300.547C236.312 309.827 217.244 315.102 196.95 315.102C157.05 315.102 121.891 294.687 101.293 263.69C100.16 261.992 99.0664 260.254 98.0275 258.485C87.8728 241.284 82.0377 221.209 82.0377 199.759C82.0377 160.833 101.246 126.407 130.687 105.526C149.41 92.2349 172.274 84.4243 196.95 84.4243C260.41 84.4243 311.855 136.066 311.855 199.759Z" fill="#EFC1B1"/>
<path d="M340.153 199.759C340.153 202.934 340.028 206.077 339.778 209.189C327.39 213.122 313.064 213.983 301.409 207.246C280.959 195.424 276.319 155.044 254.916 144.998C233.513 134.945 216.797 150.432 184.02 132.544C167.39 123.477 161.117 113.321 158.977 105.526C177.701 92.2349 200.565 84.4243 225.241 84.4243C288.708 84.4243 340.153 136.066 340.153 199.759Z" fill="#E2A993"/>
<path d="M252.856 300.547C236.312 309.826 217.244 315.102 196.95 315.102C157.05 315.102 121.891 294.687 101.293 263.689C128.406 264.321 145.497 277.715 149.715 281.403C160.331 276.752 184.655 275.843 198.997 281.427L227.618 249.663C232.218 244.988 239.303 249.26 240.764 251.795C245.357 259.756 253.496 277.265 252.856 300.547Z" fill="#E2A993"/>
<path d="M257.574 101.775C272.83 121.353 281.93 146.001 281.93 172.782C281.93 236.483 230.484 288.124 167.017 288.124C144.763 288.124 123.985 281.767 106.386 270.774C127.422 297.759 160.159 315.102 196.935 315.102C260.394 315.102 311.847 263.461 311.847 199.759C311.855 158.4 290.163 122.135 257.574 101.775Z" fill="#E2A993"/>
<path d="M150.826 89.4866C150.826 89.4866 154.966 106.608 144.608 139.288C134.25 171.968 92.4984 209.633 84.9058 214.301C77.3131 218.968 127.345 117.499 127.345 117.499L150.826 89.4866Z" fill="#E2A993"/>
<path d="M148.549 85.4746C148.549 85.4746 147.354 103.252 180.13 121.14C212.907 139.028 236.981 119.213 258.384 129.258C279.787 139.304 282.584 173.958 303.034 185.781C323.484 197.603 351.113 196.403 363.119 185.931C375.133 175.451 328.53 80.2228 279.202 75.966C229.873 71.7093 177.771 64.183 148.549 85.4746Z" fill="#3598A5"/>
<path d="M138.941 239.46C138.003 238.101 137.121 236.703 136.457 235.25C136.097 234.524 135.801 233.789 135.472 233.047C135.16 232.305 134.933 231.546 134.66 230.78C134.144 229.256 133.793 227.677 133.465 226.081C133.199 224.47 132.981 222.828 132.942 221.13C132.895 220.292 132.926 219.432 132.949 218.555C132.965 218.121 132.996 217.686 133.035 217.252L133.215 215.917L133.402 214.575C133.488 214.117 133.621 213.659 133.73 213.201C133.855 212.742 133.949 212.292 134.105 211.818L134.59 210.405L134.84 209.702C134.926 209.465 135.066 209.228 135.176 208.991L135.894 207.57C136.136 207.096 136.48 206.614 136.785 206.132C137.105 205.658 137.394 205.185 137.808 204.711C138.199 204.245 138.62 203.795 139.034 203.344C139.503 202.902 140.011 202.476 140.511 202.065C140.987 201.639 141.589 201.275 142.175 200.912C142.76 200.549 143.346 200.201 144.018 199.949C144.674 199.696 145.33 199.411 146.018 199.254C146.705 199.088 147.393 198.946 148.088 198.827C149.447 198.701 150.845 198.614 152.095 198.819C152.743 198.898 153.384 198.993 153.946 199.167C154.532 199.317 155.118 199.483 155.68 199.656C156.711 200.075 157.828 200.47 158.688 201.038L160.039 201.844L161.242 202.721C162.078 203.289 162.711 203.96 163.406 204.6C163.757 204.916 164.07 205.248 164.367 205.587C164.671 205.927 164.976 206.243 165.265 206.598C165.851 207.285 166.319 207.996 166.843 208.691C168.772 211.542 170.155 214.543 171.108 217.639C171.319 218.429 171.545 219.195 171.725 219.984C171.897 220.774 172.045 221.564 172.154 222.37C172.436 223.949 172.475 225.615 172.459 227.266V227.471C172.459 227.7 172.272 227.89 172.037 227.89C171.881 227.89 171.748 227.803 171.678 227.677C170.272 225.157 168.819 222.662 167.155 220.316C165.53 217.955 163.781 215.68 161.797 213.651C159.82 211.629 157.602 209.82 155.118 208.644C154.516 208.304 153.853 208.146 153.228 207.893C152.571 207.759 151.931 207.546 151.267 207.538C150.611 207.443 149.962 207.522 149.314 207.57L148.369 207.791C148.056 207.862 147.767 208.028 147.471 208.13C145.088 209.149 143.307 211.424 142.19 213.951C141.034 216.486 140.409 219.282 139.972 222.101C139.745 223.515 139.644 224.944 139.527 226.374C139.48 227.811 139.394 229.248 139.425 230.693C139.378 233.576 139.589 236.467 139.816 239.357C139.831 239.586 139.659 239.791 139.433 239.807C139.277 239.823 139.144 239.744 139.058 239.626L138.941 239.46Z" fill="#231C1A"/>
<path d="M235.426 209.678C234.622 208.233 233.88 206.748 233.349 205.24C233.06 204.482 232.833 203.716 232.575 202.95C232.333 202.176 232.177 201.402 231.982 200.612C231.279 197.469 230.974 194.215 231.193 190.819C231.224 189.982 231.349 189.113 231.458 188.252C231.521 187.818 231.583 187.391 231.669 186.957L231.974 185.638C232.083 185.196 232.177 184.754 232.302 184.311C232.435 183.861 232.607 183.419 232.763 182.969C233.052 182.084 233.489 181.168 233.919 180.252C234.028 180.023 234.13 179.794 234.255 179.565L234.677 178.878L235.551 177.527C235.895 177.077 236.262 176.627 236.629 176.177L237.184 175.514L237.848 174.866C239.566 173.176 242.027 171.652 244.777 170.901C247.526 170.183 250.518 170.238 252.924 170.949C255.345 171.668 257.439 172.726 259.064 174.005C260.766 175.261 262.102 176.627 263.274 178.072C263.86 178.791 264.367 179.51 264.875 180.252C265.359 180.994 265.766 181.753 266.203 182.503C267.804 185.536 268.859 188.663 269.499 191.838C269.632 192.643 269.781 193.433 269.882 194.231C269.968 195.036 270.039 195.842 270.078 196.655C270.203 198.258 270.078 199.917 269.906 201.567L269.882 201.773C269.859 202.002 269.656 202.176 269.421 202.144C269.265 202.128 269.14 202.025 269.086 201.891C267.929 199.238 266.734 196.6 265.313 194.089C263.93 191.561 262.422 189.113 260.665 186.87C258.915 184.635 256.908 182.582 254.58 181.089C253.432 180.323 252.174 179.778 250.885 179.454C249.604 179.107 248.268 179.154 247.034 179.494C245.8 179.818 244.62 180.465 243.652 181.397L243.277 181.729L242.941 182.108L242.269 182.874L241.676 183.719C241.472 183.996 241.277 184.28 241.121 184.596C239.707 186.997 238.809 189.721 238.098 192.485C237.395 195.257 236.989 198.124 236.731 200.999C236.411 203.874 236.348 206.772 236.301 209.678C236.301 209.907 236.106 210.097 235.88 210.089C235.723 210.089 235.59 210.002 235.52 209.876L235.426 209.678Z" fill="#231C1A"/>
<path d="M217.172 154.854C217.172 154.854 229.6 158.487 243.41 156.931" stroke="#3598A5" stroke-width="10.1331" stroke-miterlimit="10" stroke-linecap="round" stroke-linejoin="round"/>
<path d="M155.485 176.635C155.485 176.635 145.354 184.936 135.691 188.568" stroke="#3598A5" stroke-width="10.1331" stroke-miterlimit="10" stroke-linecap="round" stroke-linejoin="round"/>
<path d="M226.068 232.502C225.06 243.922 219.936 252.949 212.25 255.018C207.954 256.171 203.501 254.979 199.455 252.017C194.432 248.345 190.05 241.948 187.347 233.916C186.48 231.365 187.66 228.554 189.816 227.969L221.428 219.479C223.342 218.966 225.248 220.395 225.842 222.599C225.928 222.891 225.982 223.207 226.013 223.523C226.318 226.619 226.326 229.636 226.068 232.502Z" fill="#753521"/>
<path d="M279.256 224.297C287.352 221.83 292.87 216.322 291.58 211.995C290.29 207.669 282.681 206.161 274.585 208.629C266.489 211.096 260.971 216.603 262.261 220.93C263.551 225.257 271.16 226.764 279.256 224.297Z" fill="#F9DED7"/>
<path d="M146.367 260.304C151.654 258.299 154.67 253.25 153.104 249.028C151.537 244.805 145.981 243.007 140.694 245.012C135.406 247.018 132.39 252.066 133.956 256.289C135.523 260.512 141.079 262.309 146.367 260.304Z" fill="#F9DED7"/>
<path d="M226.068 232.502C225.06 243.922 219.936 252.949 212.25 255.018C207.953 256.171 203.501 254.978 199.455 252.017C202.853 240.723 213.273 232.494 225.607 232.494C225.763 232.494 225.912 232.494 226.068 232.502Z" fill="#A03E24"/>
<path d="M225.857 222.599C219.601 226.169 211.992 229.217 203.603 231.318C197.963 232.732 192.472 233.577 187.355 233.908C186.488 231.357 187.668 228.546 189.824 227.962L221.436 219.472C223.35 218.974 225.264 220.396 225.857 222.599Z" fill="white"/>
<path d="M199.145 220.471C202.676 219.292 204.967 216.587 204.263 214.429C203.558 212.271 200.124 211.478 196.592 212.657C193.061 213.836 190.77 216.541 191.475 218.699C192.179 220.857 195.614 221.65 199.145 220.471Z" fill="#E2A993"/>
<path d="M411.987 125.39C421.034 116.546 424.252 105.073 419.176 99.7647C414.099 94.4561 402.649 97.322 393.603 106.166C384.556 115.009 381.338 126.482 386.414 131.791C391.491 137.099 402.941 134.233 411.987 125.39Z" fill="#E2765D"/>
<path d="M405.8 108.709C408.2 106.764 409.176 103.965 407.98 102.457C406.785 100.95 403.87 101.305 401.47 103.25C399.07 105.196 398.094 107.995 399.29 109.503C400.485 111.01 403.4 110.655 405.8 108.709Z" fill="white"/>
<path d="M358.493 210.358C350.206 210.358 341.004 216.068 338.239 226.958C343.3 222.291 350.666 224.881 353.432 227.993" stroke="#B57B69" stroke-width="4.5036" stroke-miterlimit="10" stroke-linecap="round" stroke-linejoin="round"/>
<path d="M150.147 92.4034C124.83 68.5371 97.2797 70.0219 76.0329 85.1377C58.5433 97.592 91.687 103.12 76.0331 129.063C61.4415 153.237 66.6389 160.556 66.6389 160.556" stroke="#3598A5" stroke-width="3.3777" stroke-miterlimit="10" stroke-linecap="round" stroke-linejoin="round"/>
<path d="M350.251 140.453C348.408 173.654 368.663 195.443 372.35 214.121C376.029 232.799 376.029 249.399 369.584 259.776" stroke="#3598A5" stroke-width="3.3777" stroke-miterlimit="10" stroke-linecap="round" stroke-linejoin="round"/>
<path d="M90.9419 201.746C87.2627 220.423 76.2097 245.324 90.9419 266.071" stroke="#3598A5" stroke-width="3.3777" stroke-miterlimit="10" stroke-linecap="round" stroke-linejoin="round"/>
<path d="M148.156 91.4901C148.156 91.4901 156.282 64.2097 181.138 51.7554" stroke="#3598A5" stroke-width="3.3777" stroke-miterlimit="10" stroke-linecap="round" stroke-linejoin="round"/>
<path d="M183.255 117.41C206.946 129.857 221.679 133.126 241.933 134.161C262.188 135.196 270.476 148.684 279.678 165.285C288.887 181.886 312.821 190.186 330.319 184.997" stroke="#3598A5" stroke-width="3.3777" stroke-miterlimit="10" stroke-linecap="round" stroke-linejoin="round"/>
<path d="M152.689 90.1533C152.689 90.1533 128.577 171.986 84.3874 220.214C54.2533 192.651 80.365 148.724 84.3874 140.97C88.4098 133.224 152.689 90.1533 152.689 90.1533Z" fill="#3598A5"/>
<path d="M407.151 83.4529V61.6716" stroke="#EAE3DA" stroke-width="4.5036" stroke-miterlimit="10" stroke-linecap="round" stroke-linejoin="round"/>
<path d="M420.18 81.7076L430.303 63.03" stroke="#EAE3DA" stroke-width="4.5036" stroke-miterlimit="10" stroke-linecap="round" stroke-linejoin="round"/>
<path d="M428.468 98.3081H437.67" stroke="#EAE3DA" stroke-width="4.5036" stroke-miterlimit="10" stroke-linecap="round" stroke-linejoin="round"/>
<path d="M28.6198 339.45L16.6246 350.981" stroke="#EAE3DA" stroke-width="4.5036" stroke-miterlimit="10" stroke-linecap="round" stroke-linejoin="round"/>
<path d="M45.9922 353.135L39.7744 368.939" stroke="#EAE3DA" stroke-width="4.5036" stroke-miterlimit="10" stroke-linecap="round" stroke-linejoin="round"/>
<path d="M21.3709 314.166L2.99994 322.531" stroke="#EAE3DA" stroke-width="4.5036" stroke-miterlimit="10" stroke-linecap="round" stroke-linejoin="round"/>
<path d="M243.178 321.239C242.318 325.645 241.115 330.186 239.514 334.862C222.946 383.108 197.622 289.206 197.622 289.206L206.355 279.074L226.368 255.887C228.234 253.723 231.406 254.055 232.867 256.582C238.444 266.264 249.302 290.107 243.178 321.239Z" fill="#F9CA46"/>
<path d="M142.84 287.137C142.84 287.137 114.297 333.306 104.166 320.859C101.51 317.59 98.7606 313.365 96.0501 308.674C90.0666 298.273 84.3487 285.605 80.5368 276.215C79.1698 272.866 81.2008 269.004 84.4659 268.752C104.268 267.18 119.593 272.566 129.561 277.913C138.224 282.533 142.84 287.137 142.84 287.137Z" fill="#F9CA46"/>
<path d="M169.243 416.672C209.968 416.672 242.982 386.381 242.982 349.014C242.982 311.648 209.968 281.356 169.243 281.356C128.518 281.356 95.5037 311.648 95.5037 349.014C95.5037 386.381 128.518 416.672 169.243 416.672Z" fill="#F9CA46"/>
<path d="M126.765 360.805C132.632 360.805 137.389 355.445 137.389 348.833C137.389 342.22 132.632 336.86 126.765 336.86C120.898 336.86 116.142 342.22 116.142 348.833C116.142 355.445 120.898 360.805 126.765 360.805Z" fill="#2B2724"/>
<path d="M109.329 427.934C120.568 427.934 129.678 417.666 129.678 405C129.678 392.333 120.568 382.065 109.329 382.065C98.0912 382.065 88.9808 392.333 88.9808 405C88.9808 417.666 98.0912 427.934 109.329 427.934Z" fill="#F9CA46"/>
<path d="M158.941 364.454C159.16 370.559 155.973 375.66 151.825 375.85C147.677 376.039 144.139 371.238 143.92 365.133" stroke="#51331F" stroke-width="4.5036" stroke-miterlimit="10" stroke-linecap="round" stroke-linejoin="round"/>
<path d="M125.476 391.061C125.812 392.711 125.991 394.425 125.991 396.186C125.991 408.854 116.883 419.12 105.643 419.12C99.0578 419.12 93.215 415.598 89.4968 410.133C91.5668 420.329 99.6515 427.942 109.33 427.942C120.57 427.942 129.678 417.675 129.678 405.008C129.678 399.756 128.108 394.922 125.476 391.061Z" fill="#F7AB48"/>
<path d="M173.969 363.775C174.188 369.879 171.001 374.981 166.853 375.171C162.705 375.36 159.166 370.559 158.948 364.454" stroke="#51331F" stroke-width="4.5036" stroke-miterlimit="10" stroke-linecap="round" stroke-linejoin="round"/>
<path d="M103.316 318.68C111.119 304.425 124.258 293.052 140.326 286.758" stroke="#F7AB48" stroke-width="4.5036" stroke-miterlimit="10" stroke-linecap="round" stroke-linejoin="round"/>
<path d="M200.668 287.492C206.55 289.972 212.018 293.139 216.947 296.883" stroke="#F7AB48" stroke-width="4.5036" stroke-miterlimit="10" stroke-linecap="round" stroke-linejoin="round"/>
<path d="M216.979 297.451C222.697 307.071 225.954 318.095 225.954 329.823C225.954 367.186 192.944 397.481 152.215 397.481C134.007 397.481 117.345 391.424 104.488 381.394C116.994 402.417 141.311 416.68 169.252 416.68C209.972 416.68 242.991 386.385 242.991 349.022C242.983 328.354 232.883 309.858 216.979 297.451Z" fill="#F7AB48"/>
<path d="M230.766 311.343C230.766 311.343 233.836 297.854 228 277.447C223.4 286.095 216.971 297.443 216.971 297.443" stroke="#F7AB48" stroke-width="4.5036" stroke-miterlimit="10" stroke-linecap="round" stroke-linejoin="round"/>
<path d="M127.03 292.673C127.03 292.673 116.594 286.102 100.331 286.45C107.08 299.244 110.462 307.544 110.462 307.544" stroke="#F7AB48" stroke-width="4.5036" stroke-miterlimit="10" stroke-linecap="round" stroke-linejoin="round"/>
<path d="M196.24 367.028L232.149 364.951" stroke="#DD8F31" stroke-width="4.5036" stroke-miterlimit="10" stroke-linecap="round" stroke-linejoin="round"/>
<path d="M196.24 376.884L223.4 378.44" stroke="#DD8F31" stroke-width="4.5036" stroke-miterlimit="10" stroke-linecap="round" stroke-linejoin="round"/>
<path d="M110.158 365.472H82.9979" stroke="#DD8F31" stroke-width="4.5036" stroke-miterlimit="10" stroke-linecap="round" stroke-linejoin="round"/>
<path d="M109.698 373.773L89.4434 377.406" stroke="#DD8F31" stroke-width="4.5036" stroke-miterlimit="10" stroke-linecap="round" stroke-linejoin="round"/>
<path d="M207.746 440.435C220.33 440.435 230.531 428.937 230.531 414.753C230.531 400.569 220.33 389.07 207.746 389.07C195.161 389.07 184.96 400.569 184.96 414.753C184.96 428.937 195.161 440.435 207.746 440.435Z" fill="#F9CA46"/>
<path d="M221.274 394.093C223.063 397.758 224.086 401.975 224.086 406.453C224.086 420.637 213.885 432.136 201.301 432.136C196.231 432.136 191.552 430.272 187.772 427.113C191.646 435.05 199.137 440.436 207.745 440.436C220.329 440.436 230.531 428.937 230.531 414.753C230.531 406.279 226.891 398.769 221.274 394.093Z" fill="#F7AB48"/>
<path d="M128.858 351.676C131.684 351.676 133.974 349.094 133.974 345.91C133.974 342.726 131.684 340.145 128.858 340.145C126.032 340.145 123.741 342.726 123.741 345.91C123.741 349.094 126.032 351.676 128.858 351.676Z" fill="white"/>
<path d="M190.6 360.11C196.467 360.11 201.223 354.75 201.223 348.138C201.223 341.525 196.467 336.165 190.6 336.165C184.733 336.165 179.977 341.525 179.977 348.138C179.977 354.75 184.733 360.11 190.6 360.11Z" fill="#2B2724"/>
<path d="M192.693 350.981C195.518 350.981 197.809 348.399 197.809 345.215C197.809 342.031 195.518 339.45 192.693 339.45C189.867 339.45 187.576 342.031 187.576 345.215C187.576 348.399 189.867 350.981 192.693 350.981Z" fill="white"/>
<path d="M432.218 239.942C432.218 239.942 428.429 228.175 422.774 228.293C417.118 228.412 415.712 239.468 424.789 261.163C434.631 257.056 450.91 247.634 447.551 237.881C445.934 233.197 432.218 239.942 432.218 239.942Z" fill="#E2765D"/>
<path d="M76.4966 40.8061C76.4966 40.8061 65.4123 40.048 63.2564 45.9395C61.1004 51.8311 69.5445 57.6831 90.8225 56.9249C91.3928 45.1103 90.1976 24.5373 80.9178 24.1345C76.4653 23.9371 76.4966 40.8061 76.4966 40.8061Z" fill="#E2765D"/>
</svg>
