<svg width="1413" height="854" viewBox="0 0 1413 854" fill="none" xmlns="http://www.w3.org/2000/svg">
<path opacity="0.42" d="M646.286 737.832C718.048 737.832 776.223 729.888 776.223 720.088C776.223 710.288 718.048 702.344 646.286 702.344C574.523 702.344 516.349 710.288 516.349 720.088C516.349 729.888 574.523 737.832 646.286 737.832Z" fill="#AAAAAA"/>
<path opacity="0.6" d="M967.522 180.945L811.253 675.554C808.398 684.592 798.19 688.055 791.022 682.417L713.962 621.799L675.318 591.395L652.99 573.841L624.185 551.178L537.359 482.874L487.36 443.542L393.66 369.837C384.917 362.966 387.221 348.321 397.583 344.913L686.24 250.008L788.498 216.386L951.214 162.885C961.473 159.508 970.974 170.033 967.522 180.945Z" fill="url(#paint0_linear_161_287)"/>
<path d="M686.24 250.009C702.467 260.85 703.954 259.853 703.954 259.853C703.954 259.853 710.621 258.556 719.629 256.05C718.856 258.477 718.091 260.897 717.333 263.333C717.112 264.02 716.906 264.724 716.693 265.412C716.06 265.997 715.287 266.559 714.411 267.104C714.382 266.535 714.375 266.211 714.375 266.211L709.414 268.994L707.037 270.331C707.037 270.331 707.059 270.512 707.096 270.868C706.309 271.232 705.521 271.612 704.726 271.991C700.362 274.094 696.028 276.411 693.489 279.432L693.481 279.44C691.112 281.203 689.257 283.821 688.403 286.976L671.079 350.954L615.479 399.925C615.347 400.036 615.236 400.162 615.111 400.281C614.898 400.439 614.677 400.621 614.456 400.834C607.119 407.927 604.698 412.79 605.838 416.997L600.51 419.369L596.19 406.686L595.602 404.962L588.522 407.485L555.773 419.156L539.935 424.802L522.258 431.104L487.36 443.542L537.359 482.874L540.612 481.474L602.652 454.723L611.299 450.991L609.732 446.389L606.302 436.339C606.339 436.323 606.383 436.307 606.42 436.291L612.374 433.642C612.8 434.093 613.294 434.425 613.875 434.536C614.957 434.749 616.745 434.828 618.71 434.607C621.661 434.275 625.017 433.255 627.041 430.977C629.028 431.871 631.839 431.468 635.762 430.005C644.394 426.802 646.065 426.304 644.983 419.116L651.901 416.04C656.191 414.127 658.23 408.845 656.449 404.235C656.324 403.902 656.169 403.578 656.007 403.27L676.937 393.473C664.36 419.425 662.322 433.207 656.464 458.361C650.245 485.104 632.06 527.78 626.312 545.263C625.775 546.908 625.047 548.901 624.185 551.178L652.99 573.841C655.816 565.554 660.769 560.904 661.954 559.876C662.013 559.829 662.064 559.781 662.101 559.75C662.175 559.694 662.211 559.663 662.211 559.663C662.211 559.663 670.049 539.333 674.17 527.266C680.72 508.114 690.861 480.944 696.197 469.684C697.875 466.134 699.082 464.165 699.538 464.536C701.452 466.078 701.93 487.934 696.19 509.53C690.442 531.125 683.428 559.149 677.681 582.294C676.982 585.124 676.179 588.193 675.318 591.395L713.962 621.799C714.993 609.906 716.398 595.23 717.407 584.903C718.15 577.264 718.68 572.006 718.68 572.006L724.648 565.214L726.819 562.746C726.819 562.746 736.386 526.238 741.177 482.534C745.328 444.618 744.438 403.997 744.129 393.892C744.099 392.935 743.466 392.184 742.664 391.978C742.664 391.559 742.657 391.132 742.664 390.713C742.693 384.173 742.922 377.8 743.569 371.972C743.628 371.466 743.658 370.976 743.658 370.509C743.658 370.423 743.65 370.351 743.643 370.264C743.886 369.339 744.129 368.414 744.371 367.473C744.791 367.394 745.004 367.347 745.004 367.347C745.004 367.347 749.111 351.231 752.43 338.437C755.455 327.612 758.185 317.372 759.73 308.998C760.753 305.732 761.136 302.166 761.018 298.679C761.129 295.848 760.923 293.499 760.319 291.752C760.12 291.174 759.907 290.621 759.679 290.075C758.398 285.616 756.323 282.034 753.887 280.507C753.622 280.341 753.379 280.207 753.144 280.08C751.311 278.04 749.39 276.214 747.558 274.482C747.587 273.335 747.558 272.727 747.558 272.727L740.854 265.871C740.854 265.871 740.861 266.377 740.846 267.255C740.14 266.195 739.588 265.12 739.264 263.989C739.087 263.404 738.852 262.961 738.565 262.613C738.771 260.802 738.97 258.991 739.183 257.181C739.33 255.892 739.485 254.603 739.639 253.314C739.772 252.144 739.912 250.981 740.051 249.811C740.074 249.605 740.096 249.4 740.125 249.194C742.87 248.079 745.578 246.885 748.147 245.604C750.185 244.592 752.136 243.524 753.961 242.41C755.992 241.911 758.038 241.247 760.047 240.401C766.45 237.705 772.477 233.276 776.223 227.457C776.929 226.357 777.54 225.298 778.077 224.27C782.714 223.843 786.644 220.735 788.498 216.386L686.24 250.009ZM692.076 362.483L685.187 366.121C686.858 364.049 688.205 361.677 689.132 359.091L690.964 353.991L693.121 347.989V347.981L694.357 344.534L692.076 362.483Z" fill="white"/>
<path d="M634.555 400.834C626.577 408.544 624.391 413.621 626.305 418.08C628.218 422.54 648.641 412.593 648.641 412.593C648.641 412.593 641.45 394.168 634.555 400.834Z" fill="#EFC1B1"/>
<path d="M788.057 134.189C772.882 117.306 746.314 114.033 727.982 126.787C719.21 132.892 712.336 142.064 702.842 146.761C691.862 152.194 679.145 150.818 667.135 149.323" stroke="url(#paint1_linear_161_287)" stroke-width="3" stroke-miterlimit="10" stroke-linecap="round" stroke-linejoin="round"/>
<path d="M689.485 188.702C683.818 192.087 677.129 192.632 670.763 193.977C664.404 195.321 660.21 195.455 656.751 201.346" stroke="url(#paint2_linear_161_287)" stroke-width="3" stroke-miterlimit="10" stroke-linecap="round" stroke-linejoin="round"/>
<path d="M683.355 219.336C678.483 221.012 674.192 224.562 671.44 229.196" stroke="url(#paint3_linear_161_287)" stroke-width="3" stroke-miterlimit="10" stroke-linecap="round" stroke-linejoin="round"/>
<path d="M786.268 134.639C801.583 134.378 819.768 147.75 809.48 184.005" stroke="url(#paint4_linear_161_287)" stroke-width="3" stroke-miterlimit="10" stroke-linecap="round" stroke-linejoin="round"/>
<path d="M656.89 163.264C670.608 154.693 698.368 170.808 712.086 152.297" stroke="url(#paint5_linear_161_287)" stroke-width="3" stroke-miterlimit="10" stroke-linecap="round" stroke-linejoin="round"/>
<path d="M797.756 203.284C797.756 203.284 796.321 214.599 785.311 232.343C785.282 232.391 785.253 232.438 785.216 232.486C782.029 237.515 775.685 241.903 768.245 245.604C749.596 254.887 724.052 259.853 724.052 259.853C724.052 259.853 722.139 261.134 698.927 244.94C675.716 228.738 675.716 212.804 669.49 204.312C663.286 195.843 658.745 192.245 643.982 183.286C643.953 183.27 643.916 183.246 643.886 183.23C658.245 158.29 678.108 170.887 694.144 165.494C710.172 160.093 712.086 142.61 735.776 128.978C739.551 126.803 743.334 125.158 747.035 123.949C766.582 117.575 783.876 125.894 788.344 134.805C788.344 134.805 808.199 136.695 811.312 164.98C814.425 193.257 797.756 203.284 797.756 203.284Z" fill="url(#paint6_linear_161_287)"/>
<path d="M785.216 232.486C782.029 237.515 775.686 241.903 768.245 245.604C757.11 246.6 737.932 250.341 720.704 241.856C698.964 231.149 687.439 199.686 687.439 199.686C697.728 200.714 738.41 194.546 744.151 191.201C747.757 189.106 769.592 213.785 785.216 232.486Z" fill="#3598A5"/>
<path d="M797.087 224.325C804.073 224.325 809.737 218.239 809.737 210.732C809.737 203.225 804.073 197.14 797.087 197.14C790.1 197.14 784.436 203.225 784.436 210.732C784.436 218.239 790.1 224.325 797.087 224.325Z" fill="#EDA591"/>
<path d="M761.982 234.391C761.982 234.557 761.975 234.723 761.968 234.897V234.905C761.953 235.071 761.938 235.245 761.916 235.411L761.909 235.451C761.843 235.989 761.776 236.518 761.71 237.056C761.327 240.116 760.945 243.192 760.577 246.268C760.43 247.446 760.29 248.633 760.15 249.811C760.01 250.981 759.87 252.143 759.738 253.314C759.583 254.603 759.429 255.892 759.281 257.18C758.442 264.424 757.64 271.659 756.919 278.863C756.227 285.734 750.48 290.708 744.084 289.965C739.97 289.482 736.593 286.762 734.885 283.053C733.936 280.998 733.502 278.633 733.752 276.174C733.84 275.32 734.002 274.498 734.23 273.707L734.26 273.628C735.305 270.18 736.357 266.748 737.431 263.332C738.55 259.735 739.683 256.153 740.824 252.578C741.619 250.08 742.421 247.589 743.231 245.106C744.673 240.63 746.138 236.17 747.609 231.695C747.757 231.252 747.933 230.833 748.147 230.438C748.478 229.805 748.89 229.228 749.354 228.73C751.311 226.634 754.284 225.804 757.059 226.863C760.098 228.026 761.997 231.11 761.982 234.391Z" fill="#EFC1B1"/>
<path d="M761.968 234.897V234.905C761.953 235.071 761.938 235.245 761.916 235.411L761.909 235.451C761.843 235.989 761.776 236.518 761.71 237.056C761.327 240.116 760.945 243.192 760.577 246.268C760.429 247.446 760.29 248.633 760.15 249.811C760.01 250.981 759.87 252.143 759.738 253.314C752.047 256.058 742.612 257.054 737.431 263.332C738.55 259.735 739.683 256.153 740.824 252.578C741.619 250.08 742.421 247.589 743.231 245.106C744.673 240.63 746.138 236.17 747.609 231.695C747.757 231.252 747.933 230.833 748.147 230.438C748.478 229.805 748.89 229.228 749.354 228.73C752.452 230.192 757.508 232.683 761.968 234.897Z" fill="#EDA591"/>
<path d="M761.982 234.391C761.982 234.723 761.96 235.071 761.916 235.411L761.909 235.451C761.843 235.989 761.776 236.518 761.71 237.056C761.327 240.116 760.945 243.192 760.577 246.268C758.06 245.612 755.388 244.837 753.247 244.165C749.663 243.042 745.696 244.125 743.231 245.106C744.651 240.709 746.086 236.321 747.536 231.924L761.982 234.391Z" fill="#D88D7C"/>
<path d="M796.321 227.457C792.575 233.276 786.548 237.705 780.145 240.401C775.516 242.354 770.688 243.398 766.405 243.398C747.396 243.398 721.712 230.034 719.629 202.604C719.563 201.813 719.526 201.014 719.504 200.2C719.349 194.016 720.225 187.295 722.499 180.898C722.992 179.522 723.544 178.162 724.17 176.825C730.499 163.248 743.915 152.052 768.414 152.052C772.882 152.052 777.29 153.111 781.396 155.025C788.954 158.52 795.482 164.869 799.427 172.69C800.582 174.967 800.987 177.94 801.024 181.159C801.105 187.192 799.905 194.095 799.905 198.919C799.905 205.6 805.41 213.318 796.321 227.457Z" fill="#EFC1B1"/>
<path d="M727.401 212.282C727.401 216.679 725.598 220.632 722.742 223.313C720.343 225.575 717.208 226.943 713.764 226.943C706.228 226.943 700.119 220.379 700.119 212.282C700.119 209.483 700.848 206.874 702.121 204.652C704.513 200.445 708.833 197.63 713.764 197.63C721.292 197.63 727.401 204.193 727.401 212.282Z" fill="#EDA591"/>
<path d="M801.024 181.159C797.432 177.758 787.637 170.167 773.588 172.176C755.639 174.746 740.088 201.489 723.331 202.517C722.014 202.596 720.785 202.627 719.629 202.604C719.563 201.813 719.526 201.014 719.504 200.2C719.349 194.016 720.225 187.295 722.499 180.898C734.929 171.227 748.787 160.489 749.177 160.346C749.758 160.141 772.352 156.242 781.396 155.025C788.954 158.52 795.482 164.869 799.427 172.69C800.582 174.967 800.987 177.94 801.024 181.159Z" fill="#EDA591"/>
<path d="M727.401 212.282C727.401 216.679 725.598 220.632 722.742 223.313C722.117 215.153 720.461 208.431 714.603 203.418C711.549 200.809 704.8 203.766 702.121 204.652C704.513 200.445 708.833 197.63 713.764 197.63C721.292 197.63 727.401 204.193 727.401 212.282Z" fill="#D88D7C"/>
<path d="M780.145 240.401C775.516 242.354 770.689 243.398 766.405 243.398C746.851 243.398 720.225 229.251 719.504 200.2C719.32 192.688 720.645 184.385 724.17 176.825C724.229 176.81 724.273 176.802 724.295 176.802C725.252 176.802 728.357 178.344 728.357 178.344C728.357 178.344 724.295 208.431 742.48 225.654C754.785 237.317 768.628 241.674 780.145 240.401Z" fill="#EDA591"/>
<path d="M801.745 182.115C801.745 182.115 801.414 181.562 800.715 180.668C797.631 176.738 787.453 166.293 767.921 169.092C744.923 172.389 736.335 192.063 721.02 198.231C713.712 201.172 705.094 200.84 698.081 199.686C698.074 199.686 698.074 199.686 698.074 199.686C690.398 198.421 684.65 196.175 684.65 196.175C684.65 196.175 701.238 196.863 712.41 187.603C723.574 178.344 720.38 154.353 757.714 147.837C795.041 141.321 802.702 166.688 801.745 182.115Z" fill="#52B9C1"/>
<path d="M802.061 178.605C802.179 176.849 802.179 175.094 802.12 173.346C802.076 171.599 801.951 169.859 801.752 168.127C801.355 164.68 800.671 161.272 799.486 158.116C798.33 154.961 796.652 152.044 794.371 149.877C793.804 149.339 793.208 148.833 792.583 148.382C791.957 147.94 791.251 147.489 790.574 147.078C789.205 146.24 787.77 145.52 786.32 144.856C780.484 142.294 774.133 141.123 767.848 141.487C761.57 141.772 755.366 143.575 749.825 146.706C747.05 148.264 744.423 150.13 742.053 152.328C739.654 154.479 737.549 157.025 735.511 159.674C731.434 164.988 727.864 170.919 723.633 176.414C721.521 179.158 719.298 181.847 716.774 184.235C714.264 186.623 711.497 188.742 708.494 190.355C705.477 191.952 702.261 193.067 698.971 193.597C695.689 194.151 692.37 194.151 689.11 193.779C692.385 193.739 695.638 193.36 698.773 192.53C701.9 191.699 704.903 190.41 707.633 188.655C713.16 185.191 717.517 180.036 721.381 174.516C725.237 168.958 728.711 163.011 732.795 157.342C734.841 154.519 737.115 151.798 739.706 149.403C742.267 146.991 745.115 144.927 748.117 143.203C754.174 139.842 760.915 137.945 767.708 137.731C774.486 137.565 781.33 138.909 787.483 141.985C789.013 142.768 790.515 143.614 791.942 144.579C792.664 145.069 793.348 145.552 794.069 146.105C794.776 146.667 795.453 147.283 796.064 147.955C798.551 150.636 800.185 154.005 801.215 157.452C802.223 160.924 802.68 164.498 802.783 168.048C802.893 171.599 802.665 175.141 802.061 178.605Z" fill="#5BD3DD"/>
<path d="M747.035 123.948C714.639 143.037 718.15 160.18 702.195 171.836C687.233 182.772 658.738 171.385 643.982 183.286C643.953 183.27 643.916 183.246 643.886 183.23C658.245 158.29 678.108 170.887 694.144 165.494C710.172 160.093 712.086 142.61 735.776 128.978C739.551 126.803 743.334 125.158 747.035 123.948Z" fill="#3598A5"/>
<path d="M800.715 180.668C797.631 176.738 787.453 166.293 767.921 169.092C744.923 172.389 736.335 192.063 721.02 198.231C713.712 201.172 705.094 200.84 698.081 199.686C703.306 199.615 712.255 198.966 720.38 195.827C732.824 191.035 749.096 167.716 766.008 165.32C782.728 162.948 791.655 166.269 800.715 180.668Z" fill="#3598A5"/>
<path d="M801.348 179.118C800.936 177.83 800.435 176.58 799.898 175.355C799.375 174.121 798.801 172.919 798.183 171.749C796.954 169.4 795.578 167.147 794.003 165.083C792.45 163.003 790.713 161.098 788.792 159.461C786.886 157.816 784.804 156.424 782.574 155.396C780.351 154.376 778.011 153.672 775.619 153.325C773.235 152.977 770.777 152.992 768.363 153.23C763.52 153.688 758.855 155.396 754.616 157.998C750.34 160.552 746.483 163.96 742.774 167.558C739.043 171.148 735.511 175.038 731.728 178.707C727.975 182.392 723.978 185.927 719.497 188.655C715.022 191.367 709.988 193.146 704.903 193.257C709.929 192.458 714.625 190.323 718.753 187.35C722.919 184.409 726.584 180.732 730.16 176.936C733.708 173.109 737.196 169.163 740.898 165.375C744.614 161.611 748.625 158.045 753.173 155.246C757.721 152.471 762.865 150.652 768.127 150.217C770.755 150.035 773.389 150.098 776.009 150.557C778.622 151.008 781.183 151.862 783.553 153.119C785.93 154.36 788.123 155.966 790.066 157.848C792.009 159.73 793.701 161.857 795.18 164.126C798.087 168.712 800.229 173.797 801.348 179.118Z" fill="#3598A5"/>
<path d="M787.659 184.424L787.77 189.003C787.777 189.216 787.909 189.366 788.071 189.335C789.308 189.098 794.275 188.331 798.735 190.181C799 190.292 799.236 189.849 799.059 189.564C795.975 184.582 792.016 183.254 787.932 184.013C787.777 184.037 787.659 184.227 787.659 184.424Z" fill="#3598A5"/>
<path d="M762.968 183.42L762.188 187.991C762.152 188.204 761.946 188.346 761.717 188.315C759.981 188.07 752.989 187.255 746.366 189.066C745.968 189.177 745.696 188.726 745.983 188.449C751.076 183.499 756.912 182.21 762.645 183.001C762.858 183.033 763.005 183.222 762.968 183.42Z" fill="#3598A5"/>
<path d="M763.653 203.797C762.159 208.502 756.345 210.321 751.09 208.384C749.405 207.767 747.926 206.723 746.741 205.434C744.239 202.706 743.054 198.895 744.07 195.7C745.571 191.003 751.907 189.627 757.155 191.557C761.129 193.02 763.668 196.586 764.014 200.279C764.131 201.457 764.021 202.659 763.653 203.797Z" fill="white"/>
<path d="M764.08 200.793C764.08 204.58 761.224 207.648 757.706 207.648C755.013 207.648 752.702 205.845 751.775 203.299C751.488 202.524 751.333 201.678 751.333 200.793C751.333 197.013 754.189 193.945 757.706 193.945C760.731 193.945 763.263 196.214 763.91 199.251C764.021 199.741 764.08 200.263 764.08 200.793Z" fill="#472813"/>
<path d="M764.014 200.279C762.181 197.377 758.913 194.277 753.247 194.973C747.234 195.724 746.358 200.548 746.741 205.434C744.239 202.706 743.054 198.895 744.07 195.7C745.571 191.003 751.907 189.627 757.155 191.557C761.129 193.02 763.668 196.586 764.014 200.279Z" fill="#C0CDCE"/>
<path d="M757.949 204.05C759.624 204.05 760.981 202.592 760.981 200.793C760.981 198.993 759.624 197.535 757.949 197.535C756.275 197.535 754.917 198.993 754.917 200.793C754.917 202.592 756.275 204.05 757.949 204.05Z" fill="#3E4849"/>
<path d="M746.071 196.863C747.779 193.051 753.247 192.577 758.038 193.866C762.13 194.965 763.226 197.812 764.021 199.353C763.94 197.986 763.3 193.7 757.162 191.565C751.878 189.73 745.335 190.537 743.841 195.234C742.98 197.946 743.944 201.575 745.718 204.13C744.651 201.908 745.034 199.172 746.071 196.863Z" fill="#3E4849"/>
<path d="M755.859 200.492C756.904 200.492 757.751 199.582 757.751 198.46C757.751 197.338 756.904 196.428 755.859 196.428C754.815 196.428 753.968 197.338 753.968 198.46C753.968 199.582 754.815 200.492 755.859 200.492Z" fill="white"/>
<path d="M739.845 191.462L745.946 194.032L744.276 196.728L739.845 191.462Z" fill="#3E4849"/>
<path d="M748.22 192.102L751.333 191.328L747.624 185.033L748.22 192.102Z" fill="#3E4849"/>
<path d="M755.042 191.841L757.795 192.616V185.674L755.042 191.841Z" fill="#3E4849"/>
<path d="M799.433 199.045C799.927 202.738 797.616 206.905 794.046 207.459C790.477 208.012 786.768 206.85 786.268 203.157C785.774 199.464 789.042 193.17 792.611 192.616C796.173 192.063 798.933 195.352 799.433 199.045Z" fill="white"/>
<path d="M794.886 204.96C797.463 204.96 799.552 202.715 799.552 199.947C799.552 197.178 797.463 194.933 794.886 194.933C792.309 194.933 790.22 197.178 790.22 199.947C790.22 202.715 792.309 204.96 794.886 204.96Z" fill="#472813"/>
<path d="M792.612 192.616C789.087 193.162 785.856 199.322 786.261 203.023C787.019 200.152 790.021 195.59 793.326 195.764C796.122 195.914 798.492 198.215 799.478 200.524C799.508 200.026 799.493 199.528 799.427 199.045C798.934 195.352 796.174 192.063 792.612 192.616Z" fill="#C0CDCE"/>
<path d="M786.305 202.951C786.798 199.322 789.595 195.139 792.612 194.672C796.174 194.119 798.926 197.005 799.427 200.69C799.515 200.01 799.523 199.322 799.427 198.65C798.934 194.957 796.174 191.272 792.605 191.826C789.043 192.379 785.768 199.077 786.261 202.762C786.276 202.825 786.298 202.888 786.305 202.951Z" fill="#3E4849"/>
<path d="M794.886 202.208C796.049 202.208 796.991 201.196 796.991 199.947C796.991 198.698 796.049 197.685 794.886 197.685C793.724 197.685 792.781 198.698 792.781 199.947C792.781 201.196 793.724 202.208 794.886 202.208Z" fill="#3E4849"/>
<path d="M793.517 200.168C794.387 200.168 795.092 199.41 795.092 198.476C795.092 197.541 794.387 196.784 793.517 196.784C792.647 196.784 791.942 197.541 791.942 198.476C791.942 199.41 792.647 200.168 793.517 200.168Z" fill="white"/>
<path d="M791.655 193.004C791.655 193.004 793.686 193.265 793.686 192.877C793.686 192.49 792.134 187.089 792.134 187.089L791.655 193.004Z" fill="#3E4849"/>
<path d="M795.843 193.391L797.16 195.06L800.03 189.786L795.843 193.391Z" fill="#3E4849"/>
<path d="M798.595 196.728L799.434 198.65L803.857 195.961L798.595 196.728Z" fill="#3E4849"/>
<path d="M761.541 221.621C763.086 222.554 764.882 223.218 766.508 223.147C767.34 223.139 768.186 222.941 769.128 222.728C770.063 222.514 771.101 222.269 772.168 222.182C774.324 221.977 776.466 222.309 778.408 222.902C779.373 223.194 780.241 223.503 780.947 223.574C781.301 223.598 781.632 223.598 781.926 223.479C782.073 223.432 782.221 223.361 782.36 223.266C782.493 223.187 782.648 223.02 782.714 222.973L783.096 222.72C783.413 222.514 783.825 222.617 784.016 222.957C784.119 223.139 784.141 223.345 784.09 223.534C783.685 225.053 782.324 225.891 781.073 226.041C779.814 226.207 778.762 225.946 777.812 225.804C776.863 225.622 775.965 225.495 775.06 225.401C774.147 225.329 773.272 225.274 772.389 225.337C771.498 225.409 770.6 225.543 769.614 225.701C768.635 225.867 767.524 225.978 766.398 225.875C765.272 225.756 764.161 225.401 763.204 224.871C762.225 224.333 761.379 223.701 760.591 222.847C760.304 222.538 760.304 222.032 760.599 221.724C760.834 221.471 761.195 221.431 761.475 221.597L761.541 221.621Z" fill="#B28580"/>
<path d="M767.848 228.611C767.848 228.611 773.235 232.335 778.615 228.737C775.023 233.624 770.718 233.371 767.848 228.611Z" fill="#D88D7C"/>
<path d="M774.76 211.736C775.59 211.221 776.023 210.356 775.726 209.804C775.43 209.251 774.516 209.221 773.685 209.737C772.854 210.252 772.421 211.118 772.718 211.67C773.015 212.222 773.929 212.252 774.76 211.736Z" fill="#D88D7C"/>
<path d="M780.356 211.272C780.678 210.757 780.448 209.986 779.844 209.551C779.24 209.116 778.489 209.18 778.168 209.696C777.846 210.211 778.076 210.981 778.68 211.416C779.285 211.852 780.035 211.787 780.356 211.272Z" fill="#D88D7C"/>
<path d="M774.883 205.608C774.883 205.608 771.049 204.161 768.679 193.969C768.547 193.391 767.752 193.47 767.723 194.064C767.237 203.964 769.754 210.78 769.754 210.78C769.754 210.78 771.034 207.032 774.883 205.608Z" fill="#EDA591"/>
<path d="M777.599 206.249C778.095 206.249 778.497 205.902 778.497 205.474C778.497 205.046 778.095 204.699 777.599 204.699C777.103 204.699 776.701 205.046 776.701 205.474C776.701 205.902 777.103 206.249 777.599 206.249Z" fill="#F9DED7"/>
<path d="M713.087 217.936C711.615 215.698 712.866 212.29 715.935 212.527C713.749 208.526 706.309 207.356 705.212 211.586C704.925 212.709 704.771 213.745 704.704 214.662C704.653 215.422 703.623 215.508 703.468 214.757C702.982 212.401 703.078 209.475 705.426 207.269C710.091 202.88 716.369 206.328 718.12 209.934C719.872 213.54 720.019 216.671 718.415 218.553C716.811 220.443 714.33 219.818 713.087 217.936Z" fill="#D88D7C"/>
<path d="M745.232 220.514C748.472 220.514 751.098 218.673 751.098 216.402C751.098 214.131 748.472 212.29 745.232 212.29C741.993 212.29 739.367 214.131 739.367 216.402C739.367 218.673 741.993 220.514 745.232 220.514Z" fill="#F9DED7"/>
<path d="M795.107 217.92C797.098 217.92 798.713 216.256 798.713 214.204C798.713 212.151 797.098 210.487 795.107 210.487C793.115 210.487 791.501 212.151 791.501 214.204C791.501 216.256 793.115 217.92 795.107 217.92Z" fill="#F9DED7"/>
<path d="M761.386 208.17C761.747 207.656 754.086 213.31 745.115 208.431C749.42 213.571 757.795 213.318 761.386 208.17Z" fill="#EDA591"/>
<path d="M787.468 207.53C787.468 207.53 792.252 211.515 797.521 209.333C793.804 208.945 787.468 207.53 787.468 207.53Z" fill="#EDA591"/>
<path d="M797.646 175.608C786.482 171.836 770.843 172.176 760.319 176.976C749.788 181.775 730.006 198.231 700.016 188.291" stroke="url(#paint7_linear_161_287)" stroke-width="3" stroke-miterlimit="10" stroke-linecap="round" stroke-linejoin="round"/>
<path d="M782.331 163.264C772.44 161.208 740.537 191.715 726.495 198.919C712.454 206.114 684.378 207.142 684.378 207.142" stroke="url(#paint8_linear_161_287)" stroke-width="3" stroke-miterlimit="10" stroke-linecap="round" stroke-linejoin="round"/>
<path d="M724.464 434.29C724.273 435.089 724.001 435.975 723.736 436.726L722.33 440.624L720.924 444.412L718.084 451.932C716.178 456.929 714.227 461.903 712.248 466.869C708.288 476.785 704.174 486.645 699.862 496.451C695.534 506.248 691.016 515.99 686.1 525.653C683.649 530.476 681.073 535.284 678.336 540.06C675.833 544.409 673.221 548.742 670.27 553.044C668.798 558.026 667.429 563.276 666.119 568.542C664.64 574.528 663.234 580.593 661.873 586.69C659.15 598.875 656.589 611.179 654.109 623.507C651.636 635.834 649.244 648.21 646.911 660.593C646.543 662.546 646.175 664.507 645.815 666.468C645.16 669.955 644.512 673.45 643.872 676.937C642.989 681.753 642.113 686.561 641.259 691.368C640.869 693.503 640.486 695.638 640.111 697.773V697.805C638.985 704.154 633.289 708.322 627.379 707.112C623.678 706.353 620.771 703.664 619.394 700.193C618.6 698.192 618.32 695.939 618.681 693.646C618.717 693.424 618.754 693.203 618.791 692.981C620.226 683.998 621.698 675.063 623.199 666.136C623.766 662.775 624.34 659.406 624.914 656.038C627.056 643.52 629.249 631.011 631.552 618.501C633.848 605.992 636.225 593.49 638.808 580.965C640.104 574.702 641.436 568.44 642.886 562.137C644.343 555.835 645.866 549.541 647.75 543.025C648.03 542.037 648.427 541.12 648.906 540.289L649.215 539.759C651.393 535.687 653.424 531.267 655.36 526.744C657.28 522.205 659.12 517.556 660.864 512.819C664.36 503.346 667.569 493.628 670.601 483.807C673.618 473.986 676.466 464.054 679.167 454.075C680.521 449.085 681.839 444.08 683.112 439.074L684.996 431.562L685.908 427.822L686.77 424.169L686.806 424.035C689.441 412.861 700.009 406.101 710.408 408.931C720.807 411.762 727.099 423.117 724.464 434.29Z" fill="#EFC1B1"/>
<path d="M763.116 430.1C763.116 430.258 763.101 430.503 763.101 430.661L762.895 434.805L762.667 438.821L762.115 446.8C761.71 452.106 761.261 457.396 760.753 462.694C759.686 473.282 758.398 483.87 756.809 494.49C755.234 505.117 753.239 515.745 750.671 526.507C749.376 531.884 747.911 537.292 746.13 542.78C744.467 547.888 742.576 553.052 739.97 558.405C738.822 562.628 737.807 567.254 736.872 571.911C735.783 577.359 734.819 582.95 733.899 588.572C732.059 599.816 730.543 611.258 729.005 622.724C727.489 634.19 726.12 645.719 724.825 657.264C724.567 659.478 724.31 661.692 724.059 663.914C723.463 669.18 722.889 674.462 722.33 679.729C722.006 682.828 721.675 685.92 721.351 689.004C721.248 689.969 721.153 690.933 721.049 691.898L721.042 691.969C720.417 697.939 715.405 702.233 709.849 701.553C708.038 701.332 706.397 700.604 705.021 699.521C702.798 697.757 701.29 695.053 700.944 692.033C700.892 691.598 700.87 691.147 700.87 690.696C700.899 684.75 700.973 678.89 701.098 672.999C701.179 668.903 701.275 664.815 701.378 660.727C701.422 658.932 701.466 657.129 701.518 655.334C701.893 643.56 702.371 631.786 702.99 619.98C703.291 614.073 703.637 608.167 704.071 602.244C704.498 596.321 704.969 590.391 705.521 584.429C706.08 578.458 706.691 572.48 707.479 566.408C708.274 560.319 709.171 554.214 710.577 547.659C710.732 546.971 710.938 546.307 711.195 545.69L711.762 544.377C713.234 540.946 714.559 536.763 715.692 532.39C716.833 528.001 717.804 523.375 718.65 518.655C720.358 509.197 721.528 499.369 722.573 489.468C723.588 479.553 724.332 469.526 724.884 459.46C725.185 454.431 725.428 449.394 725.627 444.365L725.885 436.821L726.002 433.073L726.083 429.459L726.091 429.151C726.334 418.159 734.819 409.469 745.041 409.73C755.271 409.991 763.359 419.108 763.116 430.1Z" fill="#EFC1B1"/>
<path d="M756.897 719.123C756.235 720.831 754.726 722.16 752.599 722.16H706.603C700.458 722.16 696.145 715.644 698.162 709.397L699.774 704.423L700.944 692.032L701.209 689.249L707.906 689.075L721.072 688.735C721.072 688.735 721.167 688.822 721.351 689.004C722.845 690.388 730.271 697.172 739.021 703.135C742.929 705.799 748.956 709.358 754.785 712.679C757.221 714.07 757.773 716.909 756.897 719.123Z" fill="#EFC1B1"/>
<path d="M756.897 719.123C756.235 720.831 754.726 722.16 752.599 722.16H706.603C700.458 722.16 696.145 715.644 698.162 709.397L699.774 704.424L700.944 692.033C700.892 691.598 700.87 691.147 700.87 690.696C700.899 684.75 700.973 678.89 701.098 672.999C701.179 668.903 701.275 664.815 701.378 660.727C705.05 661.012 714.809 662.467 724.059 663.914C723.463 669.18 722.889 674.462 722.33 679.729C719.46 680.583 711.269 683.414 707.906 689.075C707.273 690.135 706.809 691.305 706.588 692.57C706.169 694.958 705.58 697.291 705.021 699.521C703.335 706.211 701.864 711.991 705.632 715.454C710.658 720.088 714.963 715.715 724.295 715.715C733.627 715.715 740.567 718.799 743.915 719.052C747.264 719.313 747.506 718.024 750.377 718.799C753.247 719.566 753.247 720.855 756.36 719.313C756.558 719.21 756.742 719.147 756.897 719.123Z" fill="#EDA591"/>
<path d="M650.407 718.68C648.994 720.752 646.712 722.16 643.982 722.16H616.9C610.74 722.16 606.898 714.988 609.989 709.263L618.791 692.981L620.248 690.277H640.67L641.259 691.368L650.9 709.271C652.615 712.457 652.188 716.087 650.407 718.68Z" fill="#EFC1B1"/>
<path d="M759.362 389.97C755.528 411.913 730.646 408.995 719.637 397.173C711.423 388.349 713.072 374.938 713.241 355.454L714.963 356.608L724.531 339.813L726.083 312.145L716.98 337.512L713.219 347.981C713.146 343.893 712.969 339.576 712.594 335.005C712.557 334.475 712.513 333.946 712.461 333.408C709.584 301.525 704.322 299.983 711.983 281.986C712.365 281.077 712.917 280.238 713.58 279.44L713.587 279.432C716.126 276.411 720.461 274.094 724.825 271.991C726.039 271.406 727.253 270.844 728.431 270.283C733.053 268.101 737.115 266.029 738.3 263.475C742.613 273.24 756.963 255.757 759.362 263.989C760.179 266.788 762.321 269.287 764.978 271.912C770.144 277.012 777.26 282.587 780.418 291.752C785.201 305.637 765.103 357.059 759.362 389.97Z" fill="#EFC1B1"/>
<path d="M650.407 718.68C648.994 720.752 646.712 722.16 643.982 722.16H616.9C610.74 722.16 606.898 714.988 609.989 709.263L618.791 692.981C620.226 683.999 621.698 675.063 623.199 666.136C625.687 664.396 627.696 663.344 628.814 663.431C630.89 663.59 638.374 665.005 645.815 666.468C645.16 669.955 644.512 673.45 643.872 676.937C638.794 677.151 628.586 676.075 626.585 681.603C625.378 684.924 624.458 687.351 623.31 690.277C622.331 692.784 621.19 695.654 619.564 699.774C619.505 699.916 619.453 700.058 619.394 700.193C615.98 708.749 613.831 710.797 614.456 714.173C615.097 717.597 615.413 719.653 622.434 718.973C629.455 718.285 633.282 718.625 640.302 718.973C645.66 719.234 648.604 719.495 650.407 718.68Z" fill="#EDA591"/>
<path d="M732.508 294.116C732.449 294.337 732.368 294.598 732.302 294.812L726.083 312.145L716.98 337.512L713.219 347.981V347.989L711.063 353.991L709.23 359.091C707.891 362.823 705.705 366.129 702.872 368.707L648.869 417.867C645.888 420.492 641.988 421.093 638.595 419.82C636.645 419.1 634.864 417.756 633.532 415.827C630.102 410.877 631.133 403.839 635.578 399.925L691.178 350.954L708.502 286.976C709.355 283.821 711.21 281.203 713.58 279.44L713.587 279.432C716.627 277.186 720.52 276.356 724.258 277.605C724.692 277.748 725.119 277.922 725.524 278.111C726.385 278.507 727.18 279.005 727.908 279.574V279.582C732.015 282.808 734.009 288.565 732.508 294.116Z" fill="#EFC1B1"/>
<path d="M728.431 270.283L727.908 279.574V279.582L726.083 312.145L716.98 337.512L713.219 347.981V347.989L711.063 353.991L707.302 351.468C709.054 346.629 710.989 340.58 712.594 335.005C714.5 328.339 717.186 321.057 717.833 318.732C719.269 313.592 727.18 300.205 725.524 278.111C725.369 276.071 725.141 274.031 724.825 271.991C726.039 271.406 727.253 270.845 728.431 270.283Z" fill="#EDA591"/>
<path d="M762.762 390.713C762.755 391.701 762.755 392.698 762.762 393.702C762.799 410.513 763.881 428.06 762.233 440.11C759.841 457.594 729.689 456.819 728.733 445.503C727.776 434.196 724.42 435.224 717.245 446.539C710.062 457.847 680.875 457.847 679.432 457.847C677.997 457.847 680.875 444.989 687.093 421.852C689.404 413.273 693.805 405.689 698.567 398.699C706.647 386.83 715.736 376.677 717.245 366.319C717.245 366.319 763.793 351.12 763.756 370.509C763.756 370.976 763.727 371.466 763.668 371.972C763.02 377.8 762.792 384.173 762.762 390.713Z" fill="#EFC1B1"/>
<path d="M764.978 271.912C763.881 277.534 762.696 283.251 762.343 283.765C761.622 284.793 746.307 305.36 746.307 305.36L737.049 293.831C738.543 294.891 741.766 296.03 748.699 295.587C760.908 294.82 759.362 263.989 759.362 263.989C760.179 266.788 762.321 269.287 764.978 271.912Z" fill="#EDA591"/>
<path d="M623.442 649.143C623.442 651.713 620.094 670.738 620.094 670.738C620.094 670.738 633.017 676.392 645.94 673.822C648.332 662.506 648.332 650.685 648.332 650.685L623.442 649.143Z" fill="#FF8C50"/>
<path d="M699.023 657.161C699.376 659.707 699.693 679.65 699.693 679.65C699.693 679.65 711.195 682.536 723.625 677.934C724.435 666.365 723.853 654.725 723.853 654.725L699.023 657.161Z" fill="#FF8C50"/>
<path d="M639.824 401.696C637.27 407.698 633.282 411.296 631.368 412.664C629.455 414.032 630.728 419.005 632.641 418.151C634.555 417.297 641.259 414.38 641.259 413.352C641.259 412.316 639.824 401.696 639.824 401.696Z" fill="#EDA591"/>
<path d="M762.762 390.713C762.755 391.701 762.755 392.698 762.762 393.702C761.07 394.176 723.191 400.747 721.543 400.621C719.865 400.494 708.023 396.762 708.737 396.382C709.458 395.995 715.081 389.819 715.081 389.819C714.72 391.108 730.992 393.939 742.244 393.291C751.179 392.785 759.657 391.298 762.762 390.713Z" fill="#EDA591"/>
<path d="M763.756 370.509C760.79 370.802 754.52 371.419 745.593 372.384C732.832 373.751 716.877 386.095 713.05 394.667C710.113 401.222 701.915 398.462 698.331 397.41C706.412 385.541 715.736 376.677 717.245 366.319C717.245 366.319 763.793 351.12 763.756 370.509Z" fill="#EDA591"/>
<path d="M716.98 337.512L709.23 359.091C707.891 362.823 705.705 366.129 702.872 368.707L648.869 417.867C645.888 420.492 641.988 421.093 638.595 419.82C638.234 416.262 638.183 410.964 638.705 404.946C639.662 393.979 661.681 386.095 689.117 367.584C716.56 349.072 712.41 339.125 712.41 339.125L716.98 337.512Z" fill="#EDA591"/>
<path d="M672.007 416.04L626.526 436.291C622.235 438.205 617.319 436.014 615.546 431.404C613.765 426.794 615.803 421.512 620.094 419.607L665.575 399.356C669.865 397.442 674.781 399.632 676.555 404.242C678.328 408.845 676.29 414.127 672.007 416.04Z" fill="#705962"/>
<path d="M631.398 450.991L622.75 454.723L560.711 481.474L544.55 488.441L484.917 514.155L479.036 516.694H479.029L468.851 521.082L453.374 527.756L419.867 542.203L382.511 522.284L404.162 480.359L470.676 456.653L485.837 451.252L495.816 447.694L501.586 445.638L560.034 424.802L575.871 419.156L608.62 407.485L615.7 404.962L616.289 406.686L629.83 446.389L631.398 450.991Z" fill="#BAC5D1"/>
<path d="M624.244 427.182L422.546 508.478L622.375 422.026L624.244 427.182Z" fill="#C3D3DD"/>
<path d="M631.398 450.991L419.867 542.203L382.511 522.284L404.162 480.359L615.7 404.962L616.289 406.686C614.898 408.86 613.978 410.26 613.978 410.26L413.45 485.341L400.048 515.682L420.154 535.221L629.83 446.389L631.398 450.991Z" fill="#C3D3DD"/>
<path d="M623.965 428.827L420.868 509.506L622.662 425.126L623.965 428.827Z" fill="#96A7B5"/>
<path d="M631.398 450.991L622.75 454.723L608.62 407.485L615.7 404.962L616.289 406.686L629.83 446.389L631.398 450.991Z" fill="#C3D3DD"/>
<path d="M614.935 403.294L633.12 450.604" stroke="#7C666E" stroke-width="15" stroke-miterlimit="10" stroke-linecap="round"/>
<path opacity="0.6" d="M614.935 403.294L633.12 450.604" stroke="#BAABB1" stroke-width="6" stroke-miterlimit="10" stroke-linecap="round"/>
<path opacity="0.32" d="M485.836 451.252L468.851 521.082L453.374 527.756L470.676 456.653L485.836 451.252Z" fill="white"/>
<path opacity="0.32" d="M501.586 445.638L484.917 514.155L479.036 516.694L495.816 447.694L501.586 445.638Z" fill="white"/>
<path opacity="0.32" d="M575.871 419.156L560.711 481.474L544.55 488.441L560.034 424.802L575.871 419.156Z" fill="white"/>
<path d="M761.276 482.534C756.485 526.238 746.918 562.746 746.918 562.746L744.747 565.214L738.778 572.006C738.778 572.006 738.248 577.264 737.505 584.903C735.967 600.623 733.516 626.409 732.876 637.139C731.919 653.081 728.733 658.908 724.42 664.056C721.41 667.646 710.216 667.725 701.628 666.745C701.621 666.745 701.621 666.745 701.613 666.745C697.919 666.318 694.703 665.701 692.834 665.084C686.615 663.028 680.713 651.365 680.234 647.767C679.756 644.169 692.039 605.431 697.779 582.294C703.527 559.149 710.54 531.125 716.288 509.53C722.028 487.934 721.55 466.078 719.636 464.536C719.18 464.165 717.973 466.134 716.295 469.684C710.96 480.944 700.819 508.114 694.269 527.266C690.147 539.333 682.31 559.663 682.31 559.663C682.31 559.663 682.273 559.694 682.199 559.75C682.163 559.781 682.111 559.829 682.052 559.876C680.742 561.015 674.803 566.597 672.257 576.632C671.433 579.89 670.675 583.321 669.961 586.864C666.252 605.233 663.749 626.354 659.334 638.855C656.478 646.937 653.91 652.756 649.936 656.054C646.587 658.853 642.238 659.849 635.887 658.908C622.007 656.853 611.476 649.657 609.562 634.229C614.346 619.316 640.67 562.746 646.411 545.263C652.158 527.78 670.343 485.104 676.562 458.361C682.788 431.626 684.702 417.74 699.538 388.428C699.538 388.428 706.036 392.231 718.798 393.868C722.279 394.311 726.23 394.595 730.646 394.595C746.307 394.595 757.537 392.808 762.004 391.954C763.145 391.741 764.19 392.65 764.227 393.884C764.536 403.997 765.427 444.618 761.276 482.534Z" fill="#FFB382"/>
<path d="M776.539 323.358C775.266 327.469 765.103 367.346 765.103 367.346C765.103 367.346 756.006 369.402 737.821 369.916C729.13 370.162 722.33 368.841 717.87 367.544C713.94 366.405 711.821 365.291 711.821 365.291L717.193 323.018C717.193 323.018 725.487 317.87 726.768 303.13C728.63 281.583 727.136 270.33 727.136 270.33L729.513 268.994L734.473 266.211C734.473 266.211 735.378 298.679 748.463 297.303C761.541 295.935 760.952 265.871 760.952 265.871L767.656 272.726C767.656 272.726 767.973 278.894 765.743 289.182C763.506 299.469 769.518 316.162 776.539 323.358Z" fill="white"/>
<path d="M765.103 289.696C765.103 289.696 740.169 328.497 732.508 340.161C724.854 351.816 717.834 352.156 717.834 352.156L717.193 362.444L741.442 354.9L765.375 294.907L765.103 289.696Z" fill="#E0CECA"/>
<path d="M729.513 268.994C729.13 276.048 729.807 295.69 728.041 304.846C726.127 314.786 725.171 313.078 723.257 323.705C721.344 334.325 723.257 341.869 722.617 347.357C722.131 351.563 719.202 362.61 717.87 367.544C713.94 366.405 711.821 365.291 711.821 365.291L717.193 323.018C717.193 323.018 725.487 317.87 726.768 303.13C728.63 281.583 727.136 270.33 727.136 270.33L729.513 268.994Z" fill="#E0CECA"/>
<path d="M778.982 311.291C777.974 313.623 775.84 317.546 773.095 322.282C762.829 340.042 744.033 369.26 744.033 369.26L743.746 369.727C742.649 371.521 741.141 372.842 739.441 373.633L663.08 409.366L660.99 410.347C660.276 410.679 659.547 410.9 658.819 411.019C655.021 411.644 651.15 409.485 649.538 405.508C647.853 401.34 649.222 396.564 652.578 394.081C652.924 393.82 653.292 393.591 653.682 393.385L727.356 354.465L765.103 289.696C768.569 283.314 768.046 276.783 773.985 280.507C779.932 284.232 783.766 300.236 778.982 311.291Z" fill="#EFC1B1"/>
<path d="M718.798 393.868C718.106 397.41 716.774 403.373 715.442 404.092C713.528 405.12 693.901 427.229 689.596 445.227C685.29 463.232 685.29 477.109 684.334 480.715C683.377 484.313 676.672 483.799 676.672 483.799C676.672 483.799 668.54 511.048 668.062 518.251C667.584 525.447 663.749 525.447 662.314 528.531C660.879 531.623 659.923 549.106 659.923 554.246C659.923 559.386 654.182 562.478 651.79 565.561C649.399 568.645 635.04 591.782 632.163 599.5C629.293 607.21 629.293 623.665 631.206 629.841C633.127 636.009 625.466 625.207 622.596 624.179C619.726 623.151 618.769 646.81 631.206 652.464C639.029 656.022 645.91 656.323 649.936 656.054C646.587 658.853 642.238 659.849 635.887 658.908C622.007 656.853 611.476 649.657 609.562 634.229C614.346 619.316 640.67 562.746 646.411 545.263C652.158 527.78 670.343 485.104 676.562 458.361C682.788 431.626 684.702 417.74 699.538 388.428C699.538 388.428 706.036 392.231 718.798 393.868Z" fill="#FF8C50"/>
<path d="M648.964 426.652C648.523 432.1 643.209 434.109 638.808 434.607C636.844 434.828 635.055 434.749 633.973 434.536C630.463 433.848 630.139 425.624 630.139 425.624C629.874 421.884 630.728 420.073 635.166 418.982C636.012 418.768 636.991 418.586 638.117 418.42C639.154 418.262 640.148 418.159 641.068 418.136H641.119C646.374 417.962 649.509 419.962 648.964 426.652Z" fill="#EDA591"/>
<path d="M648.964 426.652C648.523 432.1 643.209 434.109 638.808 434.607C639.537 433.721 640.324 432.535 640.943 431.001C642.459 427.245 640.935 421.765 641.068 418.136H641.119C646.374 417.962 649.509 419.962 648.964 426.652Z" fill="#D88D7C"/>
<path d="M655.86 430.005C646.808 433.373 643.673 431.128 642.974 420.279C642.451 412.174 640.795 404.978 644.335 399.609C645.528 397.798 647.316 396.193 649.943 394.833C650.87 394.35 651.754 394.113 652.578 394.081C656.817 393.907 659.783 399.118 661.792 405.033C662.277 406.456 662.704 407.927 663.08 409.366C663.933 412.632 664.529 415.771 664.912 418.033C666.31 426.265 664.912 426.644 655.86 430.005Z" fill="#EFC1B1"/>
<path d="M629.182 413.629C629.182 413.629 631.097 416.973 630.383 427.767" stroke="#EFC1B1" stroke-width="9" stroke-miterlimit="10" stroke-linecap="round" stroke-linejoin="round"/>
<path d="M773.095 322.282C762.829 340.042 744.033 369.26 744.033 369.26L743.746 369.727C742.649 371.522 741.141 372.842 739.441 373.633L663.08 409.366C663.933 412.632 664.529 415.771 664.912 418.033C666.31 426.264 664.912 426.644 655.86 430.005C646.808 433.373 643.673 431.128 642.974 420.279C642.451 412.174 640.795 404.978 644.335 399.609C644.24 405.642 644.232 415.534 645.086 419.693C646.367 425.861 647.956 424.833 647.956 424.833C647.956 424.833 649.877 427.577 652.423 424.493C654.344 425.861 656.258 425.861 658.171 423.805C661.358 424.493 660.725 419.006 659.128 412.49C658.995 411.96 658.892 411.47 658.819 411.019C658.274 407.73 659.223 406.456 661.792 405.033C663.183 404.25 665.052 403.428 667.422 402.21C674.759 398.438 734.745 373.411 740.802 367.236C744.901 363.069 762.277 338.049 773.095 322.282Z" fill="#EDA591"/>
<path d="M735.783 292.25L737.05 293.831C735.916 293.017 735.783 292.25 735.783 292.25Z" fill="#E0CECA"/>
<path opacity="0.44" d="M775.744 292.092C776.712 292.092 777.496 290.881 777.496 289.387C777.496 287.894 776.712 286.683 775.744 286.683C774.777 286.683 773.993 287.894 773.993 289.387C773.993 290.881 774.777 292.092 775.744 292.092Z" fill="#F9DED7"/>
<path opacity="0.44" d="M716.803 286.185C717.771 286.185 718.555 284.974 718.555 283.48C718.555 281.987 717.771 280.776 716.803 280.776C715.836 280.776 715.052 281.987 715.052 283.48C715.052 284.974 715.836 286.185 716.803 286.185Z" fill="#F9DED7"/>
<path d="M682.052 559.876C680.742 561.015 674.803 566.597 672.257 576.632C671.433 579.89 670.675 583.321 669.961 586.864C667.054 582.839 663.771 577.462 665.192 575.327C667.4 572.014 680.087 561.497 682.052 559.876Z" fill="#FF8C50"/>
<path d="M735.54 460.654C732.192 467.344 729.322 487.397 729.322 495.106C729.322 502.824 734.583 513.626 733.627 516.71C732.67 519.793 725.009 511.562 723.095 515.682C721.182 519.793 717.834 536.763 718.312 542.416C718.79 548.078 721.182 557.844 716.398 560.928C711.615 564.02 704.432 590.754 702.04 597.958C699.648 605.154 699.649 617.497 700.127 623.151C700.605 628.813 699.17 628.813 695.343 632.411C691.509 636.009 699.648 646.296 705.389 650.922C711.136 655.548 705.389 660.688 701.084 658.632C696.778 656.576 689.596 650.408 691.031 656.062C691.958 659.715 696.094 664.024 701.613 666.745C697.919 666.318 694.703 665.701 692.834 665.084C686.615 663.028 680.713 651.365 680.234 647.767C679.756 644.169 692.039 605.431 697.779 582.294C703.527 559.149 710.54 531.125 716.288 509.53C722.028 487.934 721.55 466.078 719.637 464.536C719.18 464.165 717.973 466.134 716.295 469.684C716.362 469.17 716.398 468.885 716.398 468.885C720.225 459.626 722.617 454.486 726.451 452.944C730.278 451.402 739.845 450.374 742.723 449.346C745.593 448.318 738.889 453.972 735.54 460.654Z" fill="#FF8C50"/>
<path d="M744.747 565.214L738.778 572.006C738.778 572.006 738.248 577.264 737.505 584.903C733.847 581.811 729.321 575.841 729.321 575.841C729.321 575.841 738.918 569.151 744.747 565.214Z" fill="#FF8C50"/>
<path d="M695.336 397.924C695.336 397.924 717.591 414.641 760.422 404.092C747.977 404.606 724.53 405.381 712.321 402.289C700.127 399.205 695.336 397.924 695.336 397.924Z" fill="#FF8C50"/>
<path d="M717.591 404.606C717.591 404.606 722.139 396.248 722.021 396.762C721.903 397.276 720.343 405.247 720.343 405.247L717.591 404.606Z" fill="#FF8C50"/>
<path d="M729.079 398.565L727.761 405.761C727.761 405.761 730.396 406.148 730.396 405.761C730.396 405.373 728.961 398.177 728.961 398.177" fill="#FF8C50"/>
<path d="M736.497 399.593L735.062 405.761C735.062 405.761 736.857 406.148 736.975 405.761C737.093 405.373 736.497 399.593 736.497 399.593Z" fill="#FF8C50"/>
<path d="M743.319 398.438L742.002 405.634C742.002 405.634 744.872 406.022 744.872 405.634C744.872 405.247 743.319 398.438 743.319 398.438Z" fill="#FF8C50"/>
<g opacity="0.53">
<path d="M736.615 487.223C737.409 490.204 737.998 493.027 738.675 495.81C739.33 498.586 740.029 501.298 740.795 503.986C741.56 506.675 742.384 509.348 743.267 512.044C744.143 514.756 745.107 517.453 745.99 520.41C743.621 518.623 741.729 516.267 740.162 513.705C738.609 511.127 737.395 508.304 736.57 505.354C735.739 502.413 735.283 499.337 735.246 496.269C735.216 493.209 735.577 490.125 736.615 487.223Z" fill="#EF7B5C"/>
<path d="M728.505 544.741C728.107 544.306 727.724 543.856 727.371 543.397C727.011 542.938 726.643 542.488 726.304 542.013L727.783 542.005C727.504 543.326 727.54 544.615 727.754 545.896C727.96 547.177 728.35 548.434 728.806 549.675C729.741 552.182 731.117 554.784 731.956 557.946C732.059 558.373 732.162 558.642 732.258 559.362C732.295 559.71 732.324 560.145 732.214 560.714C732.118 561.275 731.75 562.011 731.294 562.414C730.83 562.889 730.05 563.205 729.469 563.197C728.873 563.205 728.505 563.063 728.195 562.944C727.599 562.691 727.276 562.438 726.974 562.248L726.635 562.011C726.576 561.971 726.606 561.987 726.591 561.971C726.591 561.963 726.584 561.94 726.584 561.94C726.576 561.892 726.54 561.884 726.459 561.861C726.275 561.821 725.921 561.979 725.605 562.256C725.303 562.541 725.024 562.936 724.891 563.331C724.817 563.513 724.781 563.838 724.751 564.114C724.737 564.407 724.751 564.707 724.773 565.032C724.906 566.32 725.458 567.728 725.936 569.191C725.347 568.74 724.788 568.258 724.266 567.696C723.736 567.143 723.257 566.502 722.867 565.743C722.485 564.968 722.198 564.114 722.175 563.063C722.161 561.979 722.492 560.967 723.014 560.081C723.559 559.204 724.339 558.413 725.502 557.986C726.083 557.804 726.76 557.709 727.423 557.852C727.739 557.907 728.1 558.041 728.343 558.144C728.578 558.247 728.755 558.342 728.917 558.429C729.226 558.595 729.498 558.714 729.557 558.706C729.572 558.706 729.55 558.666 729.299 558.65C729.064 558.634 728.615 558.801 728.409 559.022C728.218 559.188 728.019 559.567 727.989 559.773C727.945 559.979 727.96 560.042 727.953 560.018L727.747 559.283C727.011 556.76 725.767 554.08 725.06 550.909C724.707 549.32 724.545 547.643 724.685 545.951C724.832 544.275 725.34 542.559 726.282 541.207L727.364 539.665L727.761 541.207C727.908 541.776 728.034 542.361 728.159 542.946C728.313 543.547 728.409 544.14 728.505 544.741Z" fill="#EF7B5C"/>
<path d="M703.983 630.149C705.315 632.751 706.478 635.162 707.758 637.471C709.024 639.78 710.364 641.971 711.806 644.074C712.159 644.604 712.527 645.126 712.91 645.632C713.278 646.146 713.668 646.66 714.058 647.158C714.433 647.664 714.846 648.146 715.309 648.763C715.765 649.364 716.236 650.052 716.612 650.922C716.987 651.792 717.215 652.812 717.068 653.935C716.906 655.042 716.332 655.927 715.677 656.52C715 657.105 714.213 657.445 713.418 657.509C712.63 657.572 711.828 657.319 711.328 656.805C712.733 656.844 713.646 655.896 714.043 654.986C714.419 653.974 714.146 653.515 713.602 652.788C713.043 652.084 712.056 651.317 711.011 650.25C710.01 649.214 709.076 648.099 708.252 646.889C706.596 644.485 705.345 641.773 704.564 638.926C703.814 636.072 703.512 633.075 703.983 630.149Z" fill="#EF7B5C"/>
<path d="M637.756 620.581C638.242 622.574 638.617 624.448 639.015 626.282C639.412 628.109 639.824 629.888 640.266 631.644C641.141 635.154 642.186 638.547 643.393 641.994L645.204 647.189L641.186 644.627C640.133 643.955 639.095 643.244 638.087 642.469C637.587 642.073 637.086 641.678 636.601 641.243C636.115 640.808 635.629 640.373 635.166 639.875C635.821 639.883 636.453 639.946 637.079 640.017C637.712 640.089 638.323 640.191 638.941 640.302C640.163 640.531 641.362 640.832 642.547 641.172L640.339 643.805C638.095 640.508 636.696 636.562 636.181 632.521C635.924 630.497 635.902 628.441 636.144 626.425C636.38 624.4 636.873 622.416 637.756 620.581Z" fill="#EF7B5C"/>
<path d="M660.563 583.108C658.995 582.025 658.039 579.913 657.832 577.786C657.582 575.651 658.097 573.366 659.01 571.452C660.879 567.562 663.97 564.96 666.509 562.572C667.797 561.37 668.989 560.184 669.968 558.911C670.939 557.654 671.727 556.207 672.338 554.633C673.552 551.462 673.979 547.849 673.486 543.958C675.723 547.113 676.474 551.549 675.664 555.693C675.274 557.773 674.472 559.805 673.331 561.608C672.191 563.395 670.792 564.858 669.416 566.162C666.634 568.748 663.867 570.756 661.961 573.413C661.012 574.734 660.305 576.173 659.996 577.865C659.665 579.51 659.739 581.329 660.563 583.108Z" fill="#EF7B5C"/>
<path d="M690.869 459.112C691.656 462.267 692.009 465.422 692.23 468.569C692.429 471.716 692.458 474.863 692.333 477.995C692.267 479.56 692.171 481.126 692.031 482.692C691.951 483.475 691.892 484.257 691.789 485.032C691.7 485.799 691.59 486.661 691.347 487.586C691.112 488.504 690.707 489.508 690.037 490.322C689.367 491.129 688.528 491.659 687.711 491.951C686.895 492.252 686.092 492.362 685.312 492.378C684.532 492.394 683.774 492.339 683.016 492.204C683.693 491.817 684.378 491.477 685.003 491.105C685.629 490.726 686.225 490.346 686.689 489.895C687.167 489.468 687.483 488.978 687.667 488.519C687.837 488.053 687.91 487.539 687.932 486.914C687.962 485.704 687.851 483.973 687.844 482.447C687.829 480.881 687.859 479.323 687.918 477.757C688.043 474.634 688.315 471.526 688.764 468.419C689.235 465.319 689.831 462.212 690.869 459.112Z" fill="#EF7B5C"/>
<path d="M681.154 505.054C682.118 505.987 682.692 506.849 683.178 507.695C683.642 508.541 683.988 509.371 684.231 510.233C684.473 511.095 684.621 511.989 684.665 512.969C684.694 513.958 684.657 515.017 684.334 516.369C683.068 516.006 682.192 515.286 681.485 514.456C680.794 513.618 680.293 512.637 680.006 511.593C679.712 510.55 679.631 509.443 679.771 508.336C679.933 507.221 680.286 506.098 681.154 505.054Z" fill="#EF7B5C"/>
</g>
<g opacity="0.1" filter="url(#filter0_f_161_287)">
<path d="M534.533 274.98L424.445 311.172C408.283 316.486 393.587 299.319 399.864 282.453L432.731 194.182C437.397 181.649 451.483 176.723 462.125 183.895L539.354 235.973C553.948 245.833 551.026 269.564 534.533 274.98Z" fill="url(#paint9_linear_161_287)"/>
</g>
<g opacity="0.2" filter="url(#filter1_f_161_287)">
<path d="M980.725 232.114L930.35 405.041C928.635 410.916 934.538 415.993 939.498 412.917L1058.67 338.991C1061.93 336.966 1062.82 332.333 1060.57 329.091L991.764 230.082C988.703 225.67 982.263 226.848 980.725 232.114Z" fill="url(#paint10_linear_161_287)" fill-opacity="0.37"/>
</g>
<g opacity="0.05" filter="url(#filter2_f_161_287)">
<path d="M545.617 579.178L500.496 549.343C498.134 547.778 495.043 548.529 493.527 551.028L422.958 667.867C419.904 672.928 425.578 678.819 430.178 675.356L545.867 588.343C548.877 586.089 548.744 581.25 545.617 579.178Z" fill="url(#paint11_linear_161_287)"/>
</g>
<g opacity="0.3" filter="url(#filter3_f_161_287)">
<path d="M365.752 467.799L312.941 556.188C307.959 564.53 296.626 564.57 291.584 556.267L230.649 455.875C224.82 446.275 231.922 433.687 242.542 434.809L356.288 446.813C365.752 447.817 370.882 459.204 365.752 467.799Z" fill="url(#paint12_linear_161_287)"/>
</g>
<defs>
<filter id="filter0_f_161_287" x="394.382" y="176.578" width="158.399" height="139.578" filterUnits="userSpaceOnUse" color-interpolation-filters="sRGB">
<feFlood flood-opacity="0" result="BackgroundImageFix"/>
<feBlend mode="normal" in="SourceGraphic" in2="BackgroundImageFix" result="shape"/>
<feGaussianBlur stdDeviation="2" result="effect1_foregroundBlur_161_287"/>
</filter>
<filter id="filter1_f_161_287" x="926.047" y="223.37" width="139.768" height="194.475" filterUnits="userSpaceOnUse" color-interpolation-filters="sRGB">
<feFlood flood-opacity="0" result="BackgroundImageFix"/>
<feBlend mode="normal" in="SourceGraphic" in2="BackgroundImageFix" result="shape"/>
<feGaussianBlur stdDeviation="2" result="effect1_foregroundBlur_161_287"/>
</filter>
<filter id="filter2_f_161_287" x="418.094" y="544.526" width="133.951" height="135.868" filterUnits="userSpaceOnUse" color-interpolation-filters="sRGB">
<feFlood flood-opacity="0" result="BackgroundImageFix"/>
<feBlend mode="normal" in="SourceGraphic" in2="BackgroundImageFix" result="shape"/>
<feGaussianBlur stdDeviation="2" result="effect1_foregroundBlur_161_287"/>
</filter>
<filter id="filter3_f_161_287" x="224.555" y="430.739" width="147.226" height="135.73" filterUnits="userSpaceOnUse" color-interpolation-filters="sRGB">
<feFlood flood-opacity="0" result="BackgroundImageFix"/>
<feBlend mode="normal" in="SourceGraphic" in2="BackgroundImageFix" result="shape"/>
<feGaussianBlur stdDeviation="2" result="effect1_foregroundBlur_161_287"/>
</filter>
<linearGradient id="paint0_linear_161_287" x1="552.923" y1="560.359" x2="988.586" y2="195.274" gradientUnits="userSpaceOnUse">
<stop offset="2.71717e-07" stop-color="#006498"/>
<stop offset="0.0173" stop-color="#00689B"/>
<stop offset="0.1747" stop-color="#0085AF"/>
<stop offset="0.3425" stop-color="#009BC0"/>
<stop offset="0.5234" stop-color="#00ABCB"/>
<stop offset="0.7269" stop-color="#00B5D2"/>
<stop offset="1" stop-color="#00B8D4"/>
</linearGradient>
<linearGradient id="paint1_linear_161_287" x1="666.031" y1="134.837" x2="789.161" y2="134.837" gradientUnits="userSpaceOnUse">
<stop stop-color="#3598A5"/>
<stop offset="1" stop-color="#52B9C1"/>
</linearGradient>
<linearGradient id="paint2_linear_161_287" x1="655.652" y1="195.028" x2="690.59" y2="195.028" gradientUnits="userSpaceOnUse">
<stop stop-color="#3598A5"/>
<stop offset="1" stop-color="#52B9C1"/>
</linearGradient>
<linearGradient id="paint3_linear_161_287" x1="670.336" y1="224.267" x2="684.457" y2="224.267" gradientUnits="userSpaceOnUse">
<stop stop-color="#3598A5"/>
<stop offset="1" stop-color="#52B9C1"/>
</linearGradient>
<linearGradient id="paint4_linear_161_287" x1="785.166" y1="159.319" x2="813.594" y2="159.319" gradientUnits="userSpaceOnUse">
<stop stop-color="#3598A5"/>
<stop offset="1" stop-color="#52B9C1"/>
</linearGradient>
<linearGradient id="paint5_linear_161_287" x1="655.788" y1="157.778" x2="713.193" y2="157.778" gradientUnits="userSpaceOnUse">
<stop stop-color="#3598A5"/>
<stop offset="1" stop-color="#52B9C1"/>
</linearGradient>
<linearGradient id="paint6_linear_161_287" x1="643.888" y1="190.79" x2="811.701" y2="190.79" gradientUnits="userSpaceOnUse">
<stop stop-color="#52B9C1"/>
<stop offset="0.206552" stop-color="#52B9C1"/>
<stop offset="1" stop-color="#52B9C1"/>
</linearGradient>
<linearGradient id="paint7_linear_161_287" x1="698.912" y1="182.234" x2="798.752" y2="182.234" gradientUnits="userSpaceOnUse">
<stop stop-color="#3598A5"/>
<stop offset="1" stop-color="#52B9C1"/>
</linearGradient>
<linearGradient id="paint8_linear_161_287" x1="683.278" y1="185.154" x2="783.437" y2="185.154" gradientUnits="userSpaceOnUse">
<stop stop-color="#3598A5"/>
<stop offset="1" stop-color="#52B9C1"/>
</linearGradient>
<linearGradient id="paint9_linear_161_287" x1="406.811" y1="308.801" x2="521.154" y2="212.982" gradientUnits="userSpaceOnUse">
<stop offset="0.0804" stop-color="#006498"/>
<stop offset="0.2624" stop-color="#006E9F"/>
<stop offset="0.5715" stop-color="#0089B2"/>
<stop offset="0.9681" stop-color="#00B4D1"/>
<stop offset="1" stop-color="#00B8D4"/>
</linearGradient>
<linearGradient id="paint10_linear_161_287" x1="912.512" y1="388.709" x2="1037.18" y2="284.233" gradientUnits="userSpaceOnUse">
<stop offset="2.71717e-07" stop-color="#006498"/>
<stop offset="0.2492" stop-color="#00679A"/>
<stop offset="0.4578" stop-color="#0072A2"/>
<stop offset="0.6517" stop-color="#0083AE"/>
<stop offset="0.8355" stop-color="#009BC0"/>
<stop offset="1" stop-color="#00B8D4"/>
</linearGradient>
<linearGradient id="paint11_linear_161_287" x1="417.974" y1="668.006" x2="536.856" y2="568.383" gradientUnits="userSpaceOnUse">
<stop offset="0.0804" stop-color="#006498"/>
<stop offset="0.2624" stop-color="#006E9F"/>
<stop offset="0.5715" stop-color="#0089B2"/>
<stop offset="0.9681" stop-color="#00B4D1"/>
<stop offset="1" stop-color="#00B8D4"/>
</linearGradient>
<linearGradient id="paint12_linear_161_287" x1="255.909" y1="513.951" x2="350.562" y2="434.631" gradientUnits="userSpaceOnUse">
<stop offset="2.71717e-07" stop-color="#006498"/>
<stop offset="0.3992" stop-color="#008CB4"/>
<stop offset="0.7866" stop-color="#00ACCB"/>
<stop offset="1" stop-color="#00B8D4"/>
</linearGradient>
</defs>
</svg>
