<svg width="470" height="471" viewBox="0 0 470 471" fill="none" xmlns="http://www.w3.org/2000/svg">
<path d="M153.857 432.087C154.466 436.37 156.014 440.487 158.429 443.425C158.863 443.959 159.342 444.457 159.84 444.908C159.84 444.908 159.886 444.862 159.96 444.77C161.84 442.559 184.885 415.223 179.76 410.783C176.377 407.854 171.261 407.642 166.256 409.512C163.37 410.59 160.522 412.358 158.061 414.698C154.217 418.327 152.899 425.409 153.857 432.087Z" fill="#EFC1B1"/>
<path d="M281.269 94.9294C281.269 94.9294 314.638 194.384 422.36 245.336" stroke="#3598A5" stroke-width="14" stroke-miterlimit="10" stroke-linejoin="round"/>
<path opacity="0.48" d="M153.857 432.087C154.466 436.37 156.014 440.487 158.43 443.425L159.96 444.761C161.84 442.55 184.885 415.213 179.76 410.774C176.377 407.845 171.261 407.633 166.256 409.503C164.301 413.242 160.78 419.653 157.582 423.816C155.6 426.395 154.484 429.434 153.857 432.087Z" fill="#EFC1B1"/>
<path d="M63.4653 196.051C63.4653 196.051 63.4653 196.06 63.4745 196.06C65.7145 199.523 68.7288 203.383 71.4205 205.805C71.3467 205.796 71.2822 205.796 71.2177 205.796H71.2085C70.9135 205.786 70.6461 205.814 70.4249 205.879C69.1436 206.247 69.116 207.877 71.5956 211.672C74.6191 216.296 87.2479 226.602 95.9681 231.76C104.688 236.918 115.888 239.58 118.921 244.203C119.142 244.544 119.363 244.894 119.575 245.235C120.055 246.018 120.516 246.801 120.94 247.583C121.908 249.352 122.719 251.111 123.346 252.76C123.982 254.436 124.415 255.993 124.618 257.356C125.152 260.911 143.303 251.848 143.303 251.848C143.303 251.848 140.104 241.532 140.454 235.849C140.703 231.916 141.459 224.419 140.021 217.825C139.376 214.868 138.297 212.096 136.537 209.894C131.799 203.972 126.074 192.146 123.466 185.671C122.94 184.372 122.544 183.285 122.304 182.512C120.884 177.888 117.677 181.802 117.677 186.785C117.677 190.248 118.451 196.401 119.705 201.725C120.239 204.009 120.866 206.146 121.557 207.85C121.567 207.886 121.576 207.914 121.594 207.932C121.428 207.813 121.253 207.684 121.078 207.564C120.977 207.5 120.884 207.426 120.783 207.352C113.639 202.268 102.9 195.59 93.3041 188.913C83.3394 181.977 78.1773 177.004 76.9421 177.354C76.2507 177.547 76.2692 179.721 76.8499 182.281C77.2647 184.068 77.9376 186.048 78.841 187.679C78.97 187.918 79.1083 188.148 79.2558 188.369C75.5225 186.067 66.6271 178.238 65.0232 179.306C63.9354 180.025 65.7975 184.354 68.1112 188.572C69.2082 190.562 70.3973 192.523 71.4297 194.071C71.3283 194.006 71.2361 193.951 71.1347 193.887C67.0788 191.381 61.7876 187.338 60.3957 188.554C59.649 189.198 61.1147 192.404 63.4653 196.051Z" fill="#EFC1B1"/>
<path opacity="0.48" d="M120.931 247.583C121.898 249.352 122.71 251.111 123.336 252.76C123.972 254.436 124.406 255.993 124.609 257.356C125.143 260.911 143.294 251.848 143.294 251.848C143.294 251.848 140.095 241.532 140.445 235.849C140.694 231.916 141.45 224.419 140.012 217.824C140.233 226.04 138.924 236.476 134.334 241.781C130.868 245.778 125.208 247.151 120.931 247.583Z" fill="url(#paint0_linear_214_105)"/>
<path opacity="0.3" d="M70.4157 205.878C70.4157 207.426 73.3378 212.786 79.5323 216.415C86.4182 220.44 96.263 228.122 104.679 229.807C108.237 230.516 127.217 232.773 132.195 223.995C136.057 217.198 132.674 210.484 128.876 203.134C126.166 197.893 124.304 190.829 123.456 185.671C126.065 192.137 131.789 203.972 136.527 209.894C142.224 217.005 140.805 230.157 140.445 235.849C140.086 241.532 143.293 251.848 143.293 251.848C143.293 251.848 125.143 260.92 124.608 257.356C124.406 256.002 123.972 254.436 123.336 252.76C123.217 252.447 123.088 252.124 122.958 251.802C122.903 251.673 122.848 251.553 122.802 251.424C122.719 251.222 122.627 251.019 122.544 250.816C122.479 250.669 122.415 250.531 122.35 250.383C122.267 250.19 122.175 250.006 122.083 249.812C122.009 249.665 121.935 249.508 121.862 249.361C121.769 249.177 121.677 248.983 121.585 248.799C121.502 248.643 121.428 248.486 121.345 248.329C121.253 248.145 121.152 247.961 121.05 247.777C120.967 247.62 120.875 247.454 120.792 247.298C120.691 247.123 120.589 246.939 120.488 246.764C120.396 246.598 120.294 246.423 120.202 246.257C120.11 246.101 120.018 245.953 119.926 245.797C119.815 245.612 119.704 245.428 119.594 245.244C119.382 244.894 119.161 244.553 118.939 244.212C115.916 239.589 104.707 236.927 95.9865 231.769C87.2662 226.611 74.6375 216.305 71.614 211.681C69.1067 207.877 69.1344 206.238 70.4157 205.878Z" fill="url(#paint1_linear_214_105)"/>
<path d="M163.933 133.936C163.933 184.971 209.663 227.016 239.954 249.269C254.952 260.285 266.17 266.456 266.17 266.456C266.17 266.456 278.006 267.064 307.983 264.365C314.924 263.739 322.842 262.937 331.802 261.906C327.221 257.982 320.575 251.968 317.994 247.961C325.331 253.165 339.896 258.111 346.33 260.146C352.018 259.428 358.055 258.627 364.453 257.743C387.028 254.611 405.399 251.019 420.084 247.519C402.348 237.553 380.427 220.21 372.325 209.959C372.26 209.876 372.196 209.802 372.141 209.728C400.956 227.919 432.786 237.562 444.723 240.777C445.276 240.602 445.82 240.427 446.355 240.252C460.661 235.647 467.713 232.082 469.216 231.309C472.46 229.632 427.098 216.922 378.492 182.116C337.776 152.955 334.116 135.179 325.424 119.945C325.212 119.567 324.99 119.181 324.769 118.812C321.552 112.392 315.809 105.429 307.808 99.2768C292.958 87.8375 270.336 79.1612 241.687 81.8138C237.142 82.2375 232.45 82.9375 227.611 83.9598C226.274 84.2454 224.919 84.5493 223.564 84.8809C177.124 83.1585 163.933 110.412 163.933 133.936Z" fill="#52B9C1"/>
<path opacity="0.3" d="M196.233 159.329C199.431 179.933 230.395 211.442 230.395 211.442L255.772 251.968C271.341 262.449 282.993 268.307 282.993 268.307C282.993 268.307 295.28 268.887 326.401 266.327C319.109 254.583 309.135 233.602 306.72 224.474C316.86 237.498 344.615 249.011 344.615 249.011C344.615 249.011 348.883 248.707 359.023 244.166C347.279 234.477 330.198 216.296 321.662 197.211C327.534 205.086 353.686 226.897 357.428 227.809C361.162 228.711 360.627 227.809 373.44 222.356C345.15 195.093 329.138 158.122 329.138 158.122L296.046 136.92C296.036 136.911 193.025 138.725 196.233 159.329Z" fill="#3598A5"/>
<path d="M291.787 217.539C291.787 225.202 295.926 231.889 302.093 235.49C305.171 237.295 308.766 238.336 312.601 238.336C313.366 238.336 314.122 238.29 314.869 238.207C325.294 237.083 333.425 228.26 333.425 217.539C333.425 206.053 324.105 196.742 312.601 196.742C301.106 196.742 291.787 206.053 291.787 217.539Z" fill="#EFC1B1"/>
<path d="M227.887 279.286L244.803 280.566C245.005 277.895 245.199 275.371 245.374 273.004C246.665 255.956 247.319 246.81 247.319 245.797H230.358V245.603C230.33 246.322 230.072 249.997 229.713 254.906C229.187 262.154 228.431 272.102 227.887 279.286Z" fill="#EFC1B1"/>
<path opacity="0.48" d="M310.472 229.374C316.685 229.374 321.727 224.336 321.727 218.128C321.727 211.921 316.685 206.882 310.472 206.882C307.688 206.882 305.144 207.896 303.171 209.572C305.439 206.892 308.822 205.197 312.601 205.197C319.423 205.197 324.953 210.723 324.953 217.539C324.953 224.355 319.423 229.881 312.601 229.881C311.2 229.881 309.854 229.641 308.591 229.218C309.209 229.31 309.827 229.374 310.472 229.374Z" fill="url(#paint2_linear_214_105)"/>
<path opacity="0.27" d="M312.601 229.881C319.423 229.881 324.953 224.355 324.953 217.539C324.953 210.723 319.423 205.197 312.601 205.197C305.779 205.197 300.249 210.723 300.249 217.539C300.249 224.355 305.779 229.881 312.601 229.881Z" fill="url(#paint3_linear_214_105)"/>
<path opacity="0.48" d="M302.093 235.49C305.172 237.295 308.767 238.336 312.601 238.336C313.366 238.336 314.122 238.29 314.869 238.207C314.279 234.91 311.403 232.405 307.928 232.405C305.494 232.405 303.365 233.63 302.093 235.49Z" fill="url(#paint4_linear_214_105)"/>
<path d="M167.611 185.118C167.611 190.801 169.897 195.959 173.593 199.708C176.285 202.443 179.723 204.432 183.595 205.354C185.143 205.722 186.766 205.915 188.425 205.915C199.92 205.915 209.239 196.604 209.239 185.109C209.239 173.614 199.92 164.312 188.425 164.312C176.93 164.321 167.611 173.633 167.611 185.118Z" fill="#EFC1B1"/>
<path opacity="0.48" d="M229.703 254.915C232.791 255.661 237.327 257.66 238.709 265.949C239.336 269.679 242.037 271.871 245.365 273.013C246.655 255.965 247.31 246.819 247.31 245.806H230.349V245.612C230.33 246.331 230.072 250.006 229.703 254.915Z" fill="url(#paint5_linear_214_105)"/>
<path opacity="0.48" d="M187.909 196.502C181.696 196.502 176.654 191.464 176.654 185.256C176.654 179.048 181.696 174.01 187.909 174.01C190.693 174.01 193.237 175.023 195.21 176.7C192.942 174.02 189.559 172.325 185.779 172.325C178.958 172.325 173.427 177.851 173.427 184.667C173.427 191.483 178.958 197.009 185.779 197.009C187.181 197.009 188.526 196.769 189.789 196.346C189.172 196.438 188.554 196.502 187.909 196.502Z" fill="url(#paint6_linear_214_105)"/>
<path opacity="0.27" d="M185.779 197C192.601 197 198.132 191.474 198.132 184.658C198.132 177.841 192.601 172.316 185.779 172.316C178.958 172.316 173.427 177.841 173.427 184.658C173.427 191.474 178.958 197 185.779 197Z" fill="url(#paint7_linear_214_105)"/>
<path opacity="0.48" d="M173.593 199.717C176.285 202.452 179.723 204.442 183.595 205.363C183.761 204.81 183.853 204.221 183.853 203.613C183.853 200.371 181.226 197.746 177.981 197.746C176.239 197.746 174.672 198.501 173.593 199.717Z" fill="url(#paint8_linear_214_105)"/>
<path d="M249.955 254.243C288.423 254.243 319.607 223.084 319.607 184.648C319.607 146.213 288.423 115.054 249.955 115.054C211.488 115.054 180.304 146.213 180.304 184.648C180.304 223.084 211.488 254.243 249.955 254.243Z" fill="#EFC1B1"/>
<path d="M238.35 143.837L237.124 147.457C236.94 148 236.35 148.304 235.778 148.147C232.174 147.153 219.536 143.994 207.35 145.034C206.658 145.09 206.317 144.233 206.879 143.828C213.572 138.983 219.619 136.69 236.967 141.332C238.073 141.626 238.7 142.769 238.35 143.837Z" fill="#3598A5"/>
<path opacity="0.48" d="M263.386 188.443C263.386 188.443 267.184 172.325 277.858 169.239C288.533 166.154 308.462 175.162 299.687 200.997C275.72 193.417 263.386 188.443 263.386 188.443Z" fill="url(#paint9_linear_214_105)"/>
<path d="M262.566 188.922C262.566 188.922 266.281 203.898 276.31 207.757C288.892 212.593 299.309 201.697 299.309 201.697C299.309 201.697 298.258 186.537 285.694 181.655C274.19 177.188 262.566 188.922 262.566 188.922Z" fill="white"/>
<path d="M279.038 201.522C285.066 201.522 289.952 196.64 289.952 190.617C289.952 184.594 285.066 179.712 279.038 179.712C273.01 179.712 268.124 184.594 268.124 190.617C268.124 196.64 273.01 201.522 279.038 201.522Z" fill="url(#paint10_linear_214_105)" stroke="#28170C" stroke-width="2" stroke-miterlimit="10"/>
<path d="M279.038 195.287C281.619 195.287 283.712 193.196 283.712 190.617C283.712 188.038 281.619 185.947 279.038 185.947C276.457 185.947 274.365 188.038 274.365 190.617C274.365 193.196 276.457 195.287 279.038 195.287Z" fill="#28170C"/>
<path opacity="0.4" d="M275.305 184.17C273.203 184.17 271.212 184.639 269.424 185.468C271.267 182.042 274.881 179.721 279.038 179.721C285.067 179.721 289.952 184.602 289.952 190.626C289.952 192.266 289.584 193.813 288.929 195.204C287.602 188.895 282.006 184.17 275.305 184.17Z" fill="#472813"/>
<path d="M276.107 189.806C278.072 189.806 279.665 188.215 279.665 186.251C279.665 184.288 278.072 182.696 276.107 182.696C274.142 182.696 272.549 184.288 272.549 186.251C272.549 188.215 274.142 189.806 276.107 189.806Z" fill="white"/>
<path opacity="0.43" d="M269.876 190.516C270.908 189.926 272.281 190.248 273.701 192.652C275.121 195.056 276.992 196.917 280.642 196.742C284.293 196.567 283.758 199.146 282.246 199.763C280.734 200.389 276.199 200.205 273.083 198.16C269.968 196.116 268.631 191.225 269.876 190.516Z" fill="white"/>
<path d="M299.309 201.706C297.318 197.69 295.262 194.154 292.801 191.271C290.367 188.369 287.528 186.38 284.339 185.091C283.564 184.897 282.836 184.529 282.025 184.464C281.629 184.409 281.241 184.243 280.827 184.262C280.412 184.234 279.997 184.225 279.582 184.17C277.886 184.151 276.107 184.363 274.245 184.759C270.521 185.616 266.695 187.172 262.566 188.941C263.543 186.877 264.972 185.1 266.566 183.479C268.189 181.876 270.051 180.467 272.171 179.343C274.291 178.247 276.688 177.483 279.241 177.188C280.532 177.114 281.831 177.068 283.15 177.28C284.477 177.381 285.731 177.87 287.003 178.229C289.307 179.251 291.593 180.476 293.372 182.272C295.179 184.013 296.7 186.021 297.696 188.204C298.719 190.377 299.373 192.643 299.659 194.927C299.917 197.202 299.899 199.496 299.309 201.706Z" fill="black"/>
<path d="M262.566 188.922C264.031 192.763 265.866 196.429 268.161 199.717C270.502 202.94 273.424 205.814 277.102 207.039C278.034 207.334 278.955 207.675 279.923 207.794C280.403 207.859 280.873 208.015 281.37 208.015L282.836 208.107C284.79 208.126 286.754 207.886 288.671 207.343C292.487 206.238 296.11 204.267 299.318 201.697C296.626 204.819 293.087 207.279 289.104 208.715C287.113 209.452 284.975 209.765 282.827 209.848C281.748 209.821 280.67 209.793 279.619 209.563C278.541 209.434 277.527 209.084 276.494 208.771C274.466 208.015 272.54 206.892 270.973 205.418C269.415 203.944 268.069 202.286 266.963 200.5C264.796 196.917 263.303 192.984 262.566 188.922Z" fill="#7F5D4B"/>
<path d="M309.467 186.601L297.299 195.36L294.589 188.508L309.467 186.601Z" fill="black"/>
<path d="M299.862 167.406L291.888 185.68L285.786 181.535L299.862 167.406Z" fill="black"/>
<path d="M277.794 166.688L283.454 180.596L276.144 181.609L277.794 166.688Z" fill="black"/>
<path d="M200.04 165.518C200.04 165.518 204.17 180.393 214.291 183.967C227.003 188.452 237.115 177.289 237.115 177.289C237.115 177.289 235.649 162.166 222.956 157.625C211.332 153.462 200.04 165.518 200.04 165.518Z" fill="white"/>
<path d="M216.549 177.668C222.577 177.668 227.463 172.785 227.463 166.762C227.463 160.74 222.577 155.857 216.549 155.857C210.522 155.857 205.635 160.74 205.635 166.762C205.635 172.785 210.522 177.668 216.549 177.668Z" fill="url(#paint11_linear_214_105)" stroke="#28170C" stroke-width="2" stroke-miterlimit="10"/>
<path d="M216.549 171.431C219.13 171.431 221.223 169.341 221.223 166.762C221.223 164.183 219.13 162.092 216.549 162.092C213.968 162.092 211.876 164.183 211.876 166.762C211.876 169.341 213.968 171.431 216.549 171.431Z" fill="#28170C"/>
<path opacity="0.4" d="M212.641 160.407C210.539 160.462 208.557 160.987 206.797 161.871C208.539 158.399 212.097 155.976 216.254 155.857C222.283 155.691 227.297 160.443 227.463 166.458C227.509 168.097 227.178 169.654 226.569 171.063C225.067 164.8 219.342 160.232 212.641 160.407Z" fill="#472813"/>
<path d="M213.498 166.025C215.463 166.025 217.056 164.433 217.056 162.47C217.056 160.506 215.463 158.914 213.498 158.914C211.533 158.914 209.94 160.506 209.94 162.47C209.94 164.433 211.533 166.025 213.498 166.025Z" fill="white"/>
<path opacity="0.43" d="M207.386 166.9C208.4 166.283 209.783 166.568 211.267 168.926C212.751 171.284 214.678 173.099 218.319 172.822C221.96 172.546 221.499 175.134 220.006 175.797C218.513 176.46 213.968 176.405 210.806 174.443C207.626 172.5 206.16 167.646 207.386 166.9Z" fill="white"/>
<path d="M237.115 177.289C235.013 173.329 232.865 169.847 230.321 167.038C227.804 164.201 224.91 162.295 221.693 161.088C220.909 160.913 220.172 160.563 219.361 160.526C218.964 160.48 218.577 160.324 218.153 160.351C217.738 160.342 217.323 160.333 216.909 160.296C215.213 160.324 213.443 160.582 211.59 161.024C207.893 161.982 204.105 163.639 200.03 165.528C200.952 163.437 202.326 161.622 203.884 159.955C205.46 158.307 207.285 156.851 209.368 155.672C211.461 154.512 213.83 153.692 216.383 153.324C217.674 153.213 218.974 153.13 220.292 153.305C221.619 153.37 222.882 153.821 224.163 154.153C226.495 155.111 228.809 156.271 230.644 158.021C232.496 159.707 234.073 161.678 235.124 163.833C236.202 165.979 236.921 168.226 237.262 170.501C237.594 172.767 237.64 175.06 237.115 177.289Z" fill="black"/>
<path d="M200.04 165.518C201.598 169.313 203.524 172.924 205.903 176.147C208.327 179.297 211.314 182.097 215.019 183.221C215.959 183.488 216.881 183.801 217.858 183.893C218.817 184.096 219.794 184.077 220.762 184.123C222.707 184.087 224.661 183.783 226.56 183.193C230.34 181.977 233.888 179.905 237.023 177.252C234.432 180.448 230.966 183 227.039 184.547C225.076 185.339 222.947 185.717 220.808 185.864C219.739 185.864 218.66 185.873 217.6 185.671C216.522 185.579 215.499 185.256 214.457 184.962C212.41 184.262 210.456 183.193 208.862 181.766C207.276 180.338 205.884 178.717 204.741 176.958C202.464 173.43 200.869 169.543 200.04 165.518Z" fill="#7F5D4B"/>
<path d="M244.793 158.564L233.391 168.309L230.127 161.696L244.793 158.564Z" fill="black"/>
<path d="M233.621 140.227L227.196 159.108L220.771 155.479L233.621 140.227Z" fill="black"/>
<path d="M211.581 141.35L218.365 154.733L211.166 156.354L211.581 141.35Z" fill="black"/>
<path opacity="0.48" d="M247.374 219.851C247.374 219.851 249.697 233.326 234.681 229.927C222.016 227.062 227.795 215.393 227.795 215.393L247.374 219.851Z" fill="url(#paint12_linear_214_105)"/>
<path d="M246.84 220.118C246.84 220.118 246.747 230.249 234.119 227.228C221.49 224.207 227.537 214.426 227.537 214.426L246.84 220.118Z" fill="#EDA591"/>
<path d="M247.199 218.957C243.549 217.447 243.733 214.693 238.212 212.731C233.4 211.027 228.957 213.707 226.91 213.09C226.91 213.09 235.898 222.338 247.199 218.957Z" fill="#EDA591"/>
<path d="M227.74 214.306C224.799 211.589 222.698 208.098 221.647 204.267" stroke="#B28580" stroke-width="3" stroke-miterlimit="10" stroke-linecap="round" stroke-linejoin="round"/>
<path d="M246.554 219.482C243.106 220.21 239.428 220.099 235.815 218.967C232.708 217.99 229.98 216.378 227.74 214.306" stroke="#B28580" stroke-width="3" stroke-miterlimit="10" stroke-linecap="round" stroke-linejoin="round"/>
<path d="M255.846 214.951C253.173 217.189 249.974 218.755 246.545 219.482" stroke="#B28580" stroke-width="3" stroke-miterlimit="10" stroke-linecap="round" stroke-linejoin="round"/>
<path opacity="0.2" d="M234.377 220.33C236.728 220.809 236.598 223.378 232.782 222.384C228.966 221.398 228.865 219.464 229.224 218.561C229.584 217.659 232.625 219.98 234.377 220.33Z" fill="white"/>
<path opacity="0.32" d="M239.723 188.333C241.115 188.646 242.194 190.027 243.918 190.865C245.641 191.694 247.706 179.196 246.48 178.376C244.876 177.308 239.004 184.602 237.41 187.089C235.833 189.548 237.437 187.826 239.723 188.333Z" fill="url(#paint13_linear_214_105)"/>
<path d="M239.189 186.785C241.235 187.412 247.199 195.314 245.061 196.033C242.922 196.742 236.7 194.964 235.096 193.896C233.492 192.827 236.875 186.067 239.189 186.785Z" fill="url(#paint14_linear_214_105)"/>
<path d="M223.315 110.375C223.315 110.375 225.491 120.138 234.211 133.788C241.622 145.403 253.781 159.854 273.36 173.504C285.915 182.272 301.53 190.7 320.907 197.856C324.944 183.737 327.341 173.098 323.322 159.264C320.271 148.737 313.486 136.358 300.894 119.19C300.701 118.923 300.498 118.656 300.295 118.388C271.111 79.9256 223.315 110.375 223.315 110.375Z" fill="#52B9C1"/>
<path d="M231.003 110.698C232.026 110.67 208.41 155.092 180.498 165.555C179.751 138.909 194.122 111.692 231.003 110.698Z" fill="#52B9C1"/>
<path d="M127.005 402.614C131.494 408.121 137.256 411.308 144.538 411.133C167.445 410.562 178.147 388.116 181.447 379.376C181.041 380.582 180.562 382.074 180.027 383.76C180.018 383.778 180.009 383.797 180.009 383.824C177.456 391.929 173.778 404.695 172.653 414.338C152.926 421.891 153.553 439.464 158.808 451.346C159.241 452.322 159.711 453.262 160.199 454.164C166.606 465.898 269.793 492.204 282.956 432.474C294.755 378.979 253.163 297.237 244.36 280.769C243.328 278.853 242.747 277.812 242.747 277.812C242.747 277.812 237.41 270.701 231.003 273.538C229.731 274.109 226.708 276.836 222.624 281.082C218.891 284.95 214.272 290.089 209.276 295.993C192.278 316.063 170.892 345.021 165.168 363.497C165.269 362.484 165.362 361.48 165.445 360.485C170.763 299.042 145.958 263.232 145.958 263.232L124.959 265.009C124.959 265.009 124.009 267.091 122.636 271.696C120.239 279.709 116.543 295.33 114.284 320.834C111.639 350.731 113.916 386.55 127.005 402.614Z" fill="#FFB382"/>
<path opacity="0.7" d="M158.807 451.337C159.241 452.313 159.711 453.253 160.199 454.155C166.606 465.889 269.793 492.194 282.956 432.465C294.755 378.97 253.163 297.228 244.36 280.759L222.633 281.073C218.9 284.941 214.282 290.08 209.285 295.984C212.668 296.528 240.433 301.861 253.781 332.2C268.013 364.556 274.78 418.953 264.105 441.712C254.196 462.804 182.544 465.254 158.807 451.337Z" fill="#FF8C50"/>
<path opacity="0.7" d="M127.005 402.614C131.494 408.121 137.256 411.308 144.538 411.133C167.445 410.562 178.147 388.116 181.447 379.376C181.041 380.582 180.562 382.074 180.027 383.76C184.369 371.961 188.6 359.564 189.116 358.661C188.397 359.721 170.468 386.108 150.945 397.032C140.925 402.632 132.702 403.314 127.005 402.614Z" fill="#FF8C50"/>
<path opacity="0.7" d="M122.636 271.687C126.471 272.028 146.299 274.533 149.516 290.366C153.074 307.912 153.784 346.31 154.493 358.873C155.203 371.436 161.61 374.043 163.039 370.718C163.758 369.032 164.67 364.63 165.454 360.476C170.772 299.033 145.967 263.223 145.967 263.223L124.968 265C124.968 265 124.019 267.082 122.636 271.687Z" fill="#FF8C50"/>
<path d="M122.147 259.658C122.249 260.754 122.636 261.777 123.254 262.689C124.996 265.286 128.563 267.027 132.61 267.027C132.85 267.027 133.089 267.017 133.329 267.008L140.076 266.667C145.856 266.373 150.235 262.596 149.838 258.24C149.58 255.412 147.377 253.027 144.289 251.793C142.814 251.203 141.146 250.862 139.376 250.862C139.136 250.862 138.897 250.872 138.657 250.881L131.909 251.222C126.13 251.525 121.751 255.293 122.147 259.658Z" fill="#FFB382"/>
<path d="M76.8315 182.291C77.2463 184.077 77.9192 186.058 78.8226 187.688C82.0581 190.562 90.9166 198.142 96.1341 201.715C102.365 205.98 107.518 208.476 107.518 208.476C107.518 208.476 83.8095 190.552 76.8315 182.291Z" fill="url(#paint15_linear_214_105)"/>
<path d="M71.4113 194.071C71.3099 194.006 71.2177 193.951 71.1163 193.886C74.0476 197.018 83.7173 206.403 100.236 213.265C86.1417 203.677 73.3931 193.131 68.102 188.572C69.1897 190.561 70.3881 192.533 71.4113 194.071Z" fill="url(#paint16_linear_214_105)"/>
<path d="M71.4112 205.805C71.3375 205.796 71.2729 205.796 71.2084 205.796C73.7618 207.536 85.3857 215.301 94.3641 218.607C78.3708 208.375 68.1296 200.131 63.4745 196.069C65.7053 199.523 68.7288 203.383 71.4112 205.805Z" fill="url(#paint17_linear_214_105)"/>
<path d="M125.945 210.419C125.945 210.419 122.304 206.514 119.705 201.725C120.239 204.009 120.866 206.146 121.557 207.85L125.945 210.419Z" fill="url(#paint18_linear_214_105)"/>
<path d="M121.071 207.565C120.969 207.5 120.876 207.426 120.774 207.352C120.783 207.389 120.783 207.398 120.783 207.398L121.071 207.565Z" fill="url(#paint19_linear_214_105)"/>
<path opacity="0.32" d="M100.881 222.337C102.882 222.116 108.947 221.868 115.114 222.577C121.281 223.286 126.028 223.047 126.028 221.159C126.028 219.27 131.246 216.894 132.195 219.261C133.144 221.628 132.665 225.662 126.738 227.32C120.811 228.978 106.578 230.166 101.591 227.56C96.6134 224.944 98.752 222.577 100.881 222.337Z" fill="url(#paint20_linear_214_105)"/>
<path opacity="0.7" d="M249.393 379.726L247.734 416.227C247.734 416.227 207.884 432.815 172.653 414.329C187.005 416.227 202.897 424.995 239.908 412.671C243.936 404.852 249.393 379.726 249.393 379.726Z" fill="#FF8C50"/>
<path opacity="0.7" d="M123.253 265.875C124.996 269.311 128.563 271.623 132.61 271.623C132.849 271.623 133.089 271.613 133.329 271.595L140.076 271.144C145.856 270.748 150.235 265.746 149.838 259.971C149.58 256.223 147.377 253.064 144.289 251.424C145.967 256.407 146.252 263.619 140.971 266.658C136.776 269.081 128.628 267.542 123.253 265.875Z" fill="#FF8C50"/>
<path opacity="0.3" d="M230.044 85.7465C237.188 88.4452 246.96 93.7504 254.574 99.4056C258.795 102.546 262.363 105.779 264.455 108.736C262.649 105.125 260.796 101.902 258.952 99.0188C253.744 90.886 248.582 85.5163 244.664 82.1453C239.945 82.8545 235.068 84.0334 230.044 85.7465Z" fill="#3598A5"/>
<path opacity="0.55" d="M234.22 133.797C241.631 145.412 253.79 159.863 273.369 173.513C279.96 173.522 285.804 173.273 285.804 173.273L278.328 157.809C278.328 157.809 285.27 164.21 292.745 170.612C303.42 169.543 313.56 165.813 313.56 165.813L306.084 150.349C306.084 150.349 311.421 155.682 318.897 162.617C320.566 161.585 322.04 160.471 323.331 159.283C328.051 154.991 330.42 149.953 331.599 145.992C331.378 145.357 331.148 144.721 330.917 144.086C327.58 133.337 321.616 121.686 313.311 111.379C310.057 113.829 305.383 116.334 300.313 118.407C292.312 121.686 284.375 126.024 278.338 125.269C280.476 129.542 290.081 143.929 290.081 143.929C290.081 143.929 279.407 137.003 271.396 126.328C263.331 128.575 241.908 133.733 234.22 133.797Z" fill="#3598A5"/>
<path opacity="0.55" d="M213.747 115.137C208.41 131.136 192.933 149.271 180.12 156.732C182.793 148.203 183.318 139.665 183.318 139.665C183.318 139.665 173.178 153.001 172.109 162.064C172.644 131.661 180.12 119.402 191.854 110.329C203.598 101.266 216.936 103.394 216.936 103.394C216.936 103.394 203.063 110.864 200.925 118.858C204.142 116.206 213.747 115.137 213.747 115.137Z" fill="#3598A5"/>
<path opacity="0.32" d="M209.295 304.108C211.618 306.429 202.888 318.329 194.352 335.755C185.816 353.181 180.12 361.351 176.202 359.223C172.284 357.096 187.236 331.85 193.642 320.825C200.049 309.8 207.516 302.33 209.295 304.108Z" fill="#FF8C50"/>
<path opacity="0.32" d="M129.236 279.93C132.555 281.257 137.772 312.996 139.201 320.466C140.62 327.935 133.154 318.688 130.305 312.996C127.457 307.304 129.596 332.55 133.154 348.198C136.712 363.847 129.955 363.488 126.037 351.394C122.12 339.301 117.501 309.082 120.7 295.22C123.899 281.358 125.678 278.512 129.236 279.93Z" fill="#FF8C50"/>
<path opacity="0.32" d="M170.865 422.508C174.146 422.508 196.841 429.978 213.212 430.328C229.584 430.687 211.074 435.661 200.049 435.302C189.015 434.942 187.955 436.72 191.513 440.275C195.071 443.83 190.094 442.412 180.479 437.788C170.865 433.165 167.666 422.508 170.865 422.508Z" fill="#FF8C50"/>
<path d="M305.374 244.848C308.78 244.848 311.541 242.089 311.541 238.686C311.541 235.283 308.78 232.524 305.374 232.524C301.968 232.524 299.207 235.283 299.207 238.686C299.207 242.089 301.968 244.848 305.374 244.848Z" fill="url(#paint21_linear_214_105)"/>
<path opacity="0.51" d="M303.955 241.854C307.015 241.854 309.495 239.377 309.495 236.319C309.495 235.297 309.209 234.339 308.73 233.519C310.426 234.615 311.55 236.522 311.55 238.695C311.55 242.103 308.785 244.857 305.384 244.857C302.148 244.857 299.502 242.37 299.244 239.211C300.203 240.795 301.954 241.854 303.955 241.854Z" fill="url(#paint22_linear_214_105)"/>
<path d="M303.3 238.806C304.313 238.806 305.135 237.985 305.135 236.973C305.135 235.961 304.313 235.14 303.3 235.14C302.287 235.14 301.466 235.961 301.466 236.973C301.466 237.985 302.287 238.806 303.3 238.806Z" fill="white"/>
<path d="M174.782 208.227C178.188 208.227 180.949 205.468 180.949 202.065C180.949 198.662 178.188 195.904 174.782 195.904C171.377 195.904 168.616 198.662 168.616 202.065C168.616 205.468 171.377 208.227 174.782 208.227Z" fill="url(#paint23_linear_214_105)"/>
<path opacity="0.51" d="M173.363 205.234C176.423 205.234 178.903 202.756 178.903 199.698C178.903 198.676 178.617 197.718 178.138 196.898C179.834 197.994 180.958 199.901 180.958 202.075C180.958 205.482 178.193 208.236 174.791 208.236C171.556 208.236 168.91 205.749 168.652 202.59C169.611 204.174 171.362 205.234 173.363 205.234Z" fill="url(#paint24_linear_214_105)"/>
<path d="M172.708 202.185C173.721 202.185 174.543 201.364 174.543 200.352C174.543 199.34 173.721 198.519 172.708 198.519C171.695 198.519 170.874 199.34 170.874 200.352C170.874 201.364 171.695 202.185 172.708 202.185Z" fill="white"/>
<path opacity="0.7" d="M39.5135 93.9968V75.2468H77.0135V56.4968H95.7635V37.7468H39.5135V56.4968H2.01346V18.9968H20.7635V0.246765H114.513V18.9968H133.263V56.4968H114.513V75.2468H95.7635V93.9968H39.5135ZM39.5135 131.497V112.747H95.7635V131.497H39.5135Z" fill="url(#paint25_linear_214_105)"/>
<defs>
<linearGradient id="paint0_linear_214_105" x1="133.746" y1="257.237" x2="128.779" y2="219.291" gradientUnits="userSpaceOnUse">
<stop stop-color="#C9A995"/>
<stop offset="1" stop-color="#99765F"/>
</linearGradient>
<linearGradient id="paint1_linear_214_105" x1="104.562" y1="207.452" x2="133.548" y2="243.474" gradientUnits="userSpaceOnUse">
<stop stop-color="#FFDEC7"/>
<stop offset="1" stop-color="#D8BCA8"/>
</linearGradient>
<linearGradient id="paint2_linear_214_105" x1="316.316" y1="230.34" x2="312.443" y2="200.742" gradientUnits="userSpaceOnUse">
<stop stop-color="#C9A995"/>
<stop offset="1" stop-color="#99765F"/>
</linearGradient>
<linearGradient id="paint3_linear_214_105" x1="314.316" y1="230.602" x2="310.442" y2="201.003" gradientUnits="userSpaceOnUse">
<stop stop-color="#C9A995"/>
<stop offset="1" stop-color="#99765F"/>
</linearGradient>
<linearGradient id="paint4_linear_214_105" x1="314.867" y1="235.371" x2="302.095" y2="235.371" gradientUnits="userSpaceOnUse">
<stop stop-color="#C9A995"/>
<stop offset="1" stop-color="#99765F"/>
</linearGradient>
<linearGradient id="paint5_linear_214_105" x1="241.548" y1="273.514" x2="237.769" y2="244.641" gradientUnits="userSpaceOnUse">
<stop stop-color="#C9A995"/>
<stop offset="1" stop-color="#99765F"/>
</linearGradient>
<linearGradient id="paint6_linear_214_105" x1="182.063" y1="197.466" x2="185.937" y2="167.867" gradientUnits="userSpaceOnUse">
<stop stop-color="#C9A995"/>
<stop offset="1" stop-color="#99765F"/>
</linearGradient>
<linearGradient id="paint7_linear_214_105" x1="184.063" y1="197.728" x2="187.937" y2="168.129" gradientUnits="userSpaceOnUse">
<stop stop-color="#C9A995"/>
<stop offset="1" stop-color="#99765F"/>
</linearGradient>
<linearGradient id="paint8_linear_214_105" x1="183.854" y1="201.553" x2="173.594" y2="201.553" gradientUnits="userSpaceOnUse">
<stop stop-color="#C9A995"/>
<stop offset="1" stop-color="#99765F"/>
</linearGradient>
<linearGradient id="paint9_linear_214_105" x1="282.621" y1="198.963" x2="282.621" y2="171.134" gradientUnits="userSpaceOnUse">
<stop stop-color="#C9A995"/>
<stop offset="1" stop-color="#99765F"/>
</linearGradient>
<linearGradient id="paint10_linear_214_105" x1="276.707" y1="201.512" x2="280.97" y2="181.6" gradientUnits="userSpaceOnUse">
<stop offset="2.71717e-07" stop-color="#FF9D5C"/>
<stop offset="1" stop-color="#472813"/>
</linearGradient>
<linearGradient id="paint11_linear_214_105" x1="214.532" y1="177.707" x2="218.25" y2="157.687" gradientUnits="userSpaceOnUse">
<stop stop-color="#FF9D5C"/>
<stop offset="1" stop-color="#472813"/>
</linearGradient>
<linearGradient id="paint12_linear_214_105" x1="236.99" y1="229.518" x2="236.99" y2="216.536" gradientUnits="userSpaceOnUse">
<stop stop-color="#C9A995"/>
<stop offset="1" stop-color="#99765F"/>
</linearGradient>
<linearGradient id="paint13_linear_214_105" x1="242.499" y1="169.468" x2="241.632" y2="188.796" gradientUnits="userSpaceOnUse">
<stop stop-color="#FFDDC4"/>
<stop offset="1" stop-color="#D8B9A4"/>
</linearGradient>
<linearGradient id="paint14_linear_214_105" x1="239.759" y1="180.181" x2="240.114" y2="194.758" gradientUnits="userSpaceOnUse">
<stop stop-color="#A6683D"/>
<stop offset="1" stop-color="#D89466"/>
</linearGradient>
<linearGradient id="paint15_linear_214_105" x1="85.961" y1="189.125" x2="100.041" y2="206.622" gradientUnits="userSpaceOnUse">
<stop stop-color="#FFDEC7"/>
<stop offset="1" stop-color="#D8BCA8"/>
</linearGradient>
<linearGradient id="paint16_linear_214_105" x1="78.3124" y1="194.443" x2="92.3006" y2="211.827" gradientUnits="userSpaceOnUse">
<stop stop-color="#FFDEC7"/>
<stop offset="1" stop-color="#D8BCA8"/>
</linearGradient>
<linearGradient id="paint17_linear_214_105" x1="73.6536" y1="201.075" x2="86.7706" y2="217.376" gradientUnits="userSpaceOnUse">
<stop stop-color="#FFDEC7"/>
<stop offset="1" stop-color="#D8BCA8"/>
</linearGradient>
<linearGradient id="paint18_linear_214_105" x1="120.636" y1="204.798" x2="124.433" y2="209.517" gradientUnits="userSpaceOnUse">
<stop stop-color="#FFDEC7"/>
<stop offset="1" stop-color="#D8BCA8"/>
</linearGradient>
<linearGradient id="paint19_linear_214_105" x1="120.865" y1="207.404" x2="120.991" y2="207.56" gradientUnits="userSpaceOnUse">
<stop stop-color="#FFDEC7"/>
<stop offset="1" stop-color="#D8BCA8"/>
</linearGradient>
<linearGradient id="paint20_linear_214_105" x1="113.245" y1="219.432" x2="120.89" y2="228.934" gradientUnits="userSpaceOnUse">
<stop stop-color="#FFDDC4"/>
<stop offset="1" stop-color="#D8B9A4"/>
</linearGradient>
<linearGradient id="paint21_linear_214_105" x1="301.188" y1="234.165" x2="309.555" y2="243.223" gradientUnits="userSpaceOnUse">
<stop stop-color="#EDDED5"/>
<stop offset="1" stop-color="#E3B698"/>
</linearGradient>
<linearGradient id="paint22_linear_214_105" x1="302.801" y1="235.91" x2="309.556" y2="243.222" gradientUnits="userSpaceOnUse">
<stop stop-color="#EDDED5"/>
<stop offset="1" stop-color="#E3B698"/>
</linearGradient>
<linearGradient id="paint23_linear_214_105" x1="170.595" y1="197.544" x2="178.962" y2="206.601" gradientUnits="userSpaceOnUse">
<stop stop-color="#EDDED5"/>
<stop offset="1" stop-color="#E3B698"/>
</linearGradient>
<linearGradient id="paint24_linear_214_105" x1="172.208" y1="199.289" x2="178.962" y2="206.6" gradientUnits="userSpaceOnUse">
<stop stop-color="#EDDED5"/>
<stop offset="1" stop-color="#E3B698"/>
</linearGradient>
<linearGradient id="paint25_linear_214_105" x1="77.0135" y1="0.246765" x2="77.0135" y2="150.247" gradientUnits="userSpaceOnUse">
<stop stop-color="#006498"/>
<stop offset="1" stop-color="#00B8D4"/>
</linearGradient>
</defs>
</svg>
