<svg width="100" height="100" viewBox="0 0 100 100" fill="none" xmlns="http://www.w3.org/2000/svg">
<path d="M76.7223 5.38343C76.7223 5.37637 76.7156 5.37639 76.7156 5.37639C73.451 3.61926 70.1932 2.09501 65.7772 1.12118C63.3457 0.58487 44.7133 -3.52214 34.1407 8.31199C33.802 8.69305 33.4837 9.0741 33.1789 9.46928C40.5344 8.24141 47.6189 9.37754 52.5225 13.3716C53.1931 13.915 53.8704 14.5572 54.5341 15.284C54.656 15.4181 54.7779 15.5522 54.8998 15.6933C55.1301 15.9474 55.3469 16.2085 55.5636 16.4837C55.7126 16.6671 55.8616 16.8577 56.0038 17.0553C56.1664 17.267 56.3222 17.4857 56.4779 17.7045C56.5592 17.8244 56.6473 17.9444 56.7285 18.0644C56.8437 18.2408 56.9724 18.4243 57.0875 18.6077C57.1146 18.6501 57.1485 18.6995 57.1688 18.7418C57.1756 18.7489 57.1756 18.7489 57.1756 18.7489L57.1823 18.7559C57.4939 19.2428 57.7851 19.7439 58.0628 20.2661C58.1373 20.4143 58.2118 20.5554 58.2863 20.6965C58.6859 21.4798 59.0517 22.2914 59.37 23.1311C59.4445 23.3216 59.5122 23.5122 59.58 23.7097C59.5867 23.7168 59.5867 23.7168 59.5867 23.7239C59.6477 23.9073 59.7154 24.0908 59.7696 24.2743C59.7967 24.3519 59.817 24.4295 59.8441 24.5001C59.8915 24.6554 59.9389 24.8177 59.9863 24.9729C60.0338 25.1564 60.0812 25.3399 60.1286 25.5233C60.1421 25.5727 60.1557 25.6151 60.1624 25.6574C60.2031 25.8409 60.2437 26.0173 60.2843 26.2008C60.3182 26.349 60.3453 26.4972 60.3724 26.6453C60.3792 26.6524 60.3792 26.6595 60.3792 26.6665C60.3792 26.6736 60.3792 26.6736 60.3859 26.6806C60.4063 26.7935 60.4266 26.9064 60.4469 27.0264C60.474 27.1887 60.5011 27.351 60.5282 27.5133C60.5553 27.718 60.5824 27.9297 60.6027 28.1414C60.6095 28.1484 60.6095 28.1625 60.6095 28.1696C60.6298 28.3742 60.6501 28.586 60.6636 28.7977C60.6772 29.0164 60.6907 29.2281 60.7043 29.4469C60.7111 29.461 60.7111 29.468 60.7043 29.4822C60.7043 29.4892 60.7043 29.4892 60.7043 29.4892C60.7111 29.7009 60.7178 29.9126 60.7178 30.1314C60.7178 30.6324 60.6975 31.1334 60.6569 31.6415C60.2369 36.4613 57.8529 40.3495 57.2704 41.2457C56.1867 42.9393 55.0014 44.273 53.9381 45.2892C52.5835 46.5735 51.4118 47.3498 50.8632 47.7026C49.1293 48.7964 47.5444 49.4033 46.5285 49.7349C46.1153 49.869 45.7767 49.9608 45.6209 50.0102C45.5735 50.0243 45.5464 50.0243 45.5396 50.0313C42.5189 50.8358 39.1459 52.0919 35.8746 53.475C36.4706 54.3501 37.1005 55.2039 37.7575 56.0366C38.6312 55.5356 39.5591 55.0346 40.5682 54.5335C45.5328 52.0707 53.4775 48.253 61.7134 50.5183C62.3298 50.6876 63.0139 50.8781 63.9079 51.2733C63.9079 51.2733 70.1593 54.0607 73.6745 63.545C74.2909 65.2174 74.6769 67.2074 74.8124 69.4232C74.8124 69.4303 74.8191 69.4373 74.8124 69.4444C74.8191 69.5361 74.8259 69.6279 74.8327 69.7196C74.8259 69.7267 74.8124 69.7267 74.8056 69.7267C74.7311 71.7519 74.2231 78.1171 69.6649 83.4943C65.9398 87.8836 61.5509 89.2385 56.0038 90.9462C47.6121 93.536 40.6157 93.2538 38.1503 93.0915C33.6666 92.7951 23.2498 91.913 13.4764 84.7786C12.5349 84.0941 11.6003 83.3461 10.6791 82.5417C10.6724 82.5558 10.6656 82.5769 10.6588 82.591C11.4106 83.452 12.1827 84.2847 12.9955 85.0891C22.2135 94.2982 34.9873 100 49.109 100C54.954 100 60.5824 98.9133 65.8246 96.9515C84.4774 89.9724 98.2943 71.8931 99.852 52.1201C99.9265 51.2804 99.9672 50.4336 99.9875 49.5797C100.394 31.8603 90.8508 14.3949 76.7223 5.38343ZM72.5705 37.5409C68.0055 37.5409 64.3075 33.6809 64.3075 28.9317C64.3075 24.1826 68.0123 20.3225 72.5705 20.3225C77.1287 20.3225 80.8335 24.1826 80.8335 28.9317C80.8335 33.6809 77.1287 37.5409 72.5705 37.5409Z" fill="url(#paint0_linear_185_78)"/>
<path d="M60.5349 29.4751C60.5417 29.461 60.5417 29.4469 60.5349 29.4328C60.5281 29.214 60.5146 29.0023 60.4943 28.7835C60.4807 28.5718 60.4604 28.3672 60.4401 28.1625C60.4401 28.1555 60.4401 28.1414 60.4333 28.1343C60.413 27.9226 60.3859 27.718 60.3588 27.5133C60.3317 27.351 60.3114 27.1887 60.2775 27.0264C60.264 26.9135 60.2369 26.8006 60.2166 26.6806C60.2098 26.6736 60.2098 26.6736 60.2098 26.6665C60.2098 26.6595 60.2098 26.6524 60.203 26.6453C60.1759 26.4972 60.1488 26.349 60.115 26.2008C60.0743 26.0173 60.0337 25.8409 59.993 25.6574C59.9863 25.6151 59.9727 25.5727 59.9592 25.5233C59.9118 25.3399 59.8644 25.1564 59.817 24.9729C59.7763 24.8177 59.7289 24.6554 59.6747 24.5001C59.6544 24.4225 59.6273 24.3449 59.6002 24.2743C59.546 24.0908 59.4851 23.9073 59.4173 23.7239C59.4173 23.7168 59.4173 23.7168 59.4106 23.7097C59.3428 23.5192 59.2751 23.3216 59.2006 23.1311C58.8823 22.2914 58.5165 21.4798 58.1169 20.6965C58.0424 20.5483 57.9679 20.4143 57.8934 20.2661C57.6157 19.7439 57.3245 19.2429 57.0129 18.763L57.0062 18.7559C57.0062 18.7489 57.0062 18.7489 56.9994 18.7489C56.9723 18.7065 56.9452 18.6571 56.9181 18.6148C56.803 18.4313 56.6743 18.2478 56.5592 18.0714C56.4779 17.9515 56.3898 17.8315 56.3086 17.7115C56.1528 17.4928 55.997 17.274 55.8344 17.0623C55.6922 16.8718 55.5432 16.6812 55.3942 16.4978C55.1775 16.2226 54.9607 15.9685 54.7304 15.7074C54.6153 15.5663 54.4866 15.4322 54.3647 15.2981C53.6942 14.5713 53.0169 13.9291 52.3531 13.3928C47.4495 9.40576 40.3582 8.2767 33.0095 9.50457C24.2385 10.9512 15.095 15.7498 8.85037 23.0464C3.581 29.2069 1.20368 36.1719 0.384155 42.7347C4.17702 43.5462 11.0787 45.6138 17.4182 51.4356C17.5536 51.5556 17.6959 51.6826 17.8313 51.8167C17.9939 51.9719 18.1497 52.1272 18.3122 52.2824C18.468 52.4377 18.6238 52.5929 18.7728 52.7482C18.8879 52.8681 19.003 52.9881 19.1182 53.1081C19.7413 53.7573 20.317 54.4136 20.8453 55.0628C21.9222 56.3753 22.823 57.6597 23.568 58.8522C28.0246 56.3895 31.533 55.1616 32.251 54.9075C32.2577 54.9075 32.2577 54.9005 32.2645 54.9005C33.0231 54.5547 33.802 54.2089 34.5876 53.8702C34.9534 53.715 35.3191 53.5597 35.6849 53.4045C38.9562 52.0284 42.3291 50.7723 45.3499 49.9678C45.5937 49.9043 45.9391 49.8055 46.3387 49.6714C48.4858 48.9728 50.03 48.0555 50.6734 47.6462C51.2221 47.3004 52.3938 46.5241 53.7484 45.2398C54.8117 44.2307 55.997 42.897 57.0807 41.2104C57.6631 40.3142 60.0472 36.433 60.4672 31.6274C60.5078 31.1193 60.5281 30.6183 60.5281 30.1173C60.5484 29.8985 60.5484 29.6868 60.5349 29.4751ZM48.3368 22.1149C46.8941 22.1149 45.7292 20.6542 45.7292 18.8547C45.7292 17.0553 46.8941 15.6016 48.3368 15.6016C49.7794 15.6016 50.9444 17.0553 50.9444 18.8547C50.9444 20.6542 49.7794 22.1149 48.3368 22.1149Z" fill="url(#paint1_linear_185_78)"/>
<path d="M75.9706 69.1762C75.9706 69.1833 75.9774 69.1903 75.9706 69.1974C75.9638 69.275 75.9639 69.3738 75.9639 69.4867C75.8894 71.5473 75.3746 78.0183 70.7148 83.4873C66.9152 87.9542 62.4315 89.3302 56.7693 91.0662C48.2082 93.6983 41.0627 93.4161 38.5432 93.2467C33.9647 92.9433 23.3311 92.0471 13.3613 84.7927C12.3995 84.0941 11.4513 83.3391 10.5099 82.5134C12.1693 78.357 14.3434 75.866 18.0956 71.6531C20.5542 68.8939 22.9315 66.6852 25.0921 64.8716C27.0833 63.2062 28.8985 61.8654 30.436 60.7364C33.03 58.8381 35.3125 57.1727 38.1504 55.5497C39.0376 55.0416 39.9926 54.5335 41.0153 54.0184C46.0815 51.5132 54.1888 47.632 62.6008 49.9325C63.2307 50.1089 63.9283 50.2995 64.8359 50.7017C64.8359 50.7017 71.216 53.5385 74.8057 63.1851C75.4356 64.8998 75.8284 66.9251 75.9706 69.1762Z" fill="#013A5B"/>
<path d="M23.6561 58.7676C22.2677 59.5367 20.7911 60.4259 19.2808 61.435C19.274 61.435 19.2605 61.442 19.2537 61.4491C19.1792 61.4985 19.1114 61.5479 19.0369 61.5973C15.1425 64.173 12.6704 67.031 11.6612 68.2306C9.25001 71.0886 7.64481 73.8901 6.58823 76.12C5.78902 74.3276 5.20654 72.8316 4.81371 71.7731C4.81371 71.7731 4.32606 70.4394 2.77505 65.6267C2.65991 65.2527 2.51768 64.8222 2.37544 64.3353C1.13599 60.1224 -0.821398 51.6614 0.370644 42.3818C7.37389 44.1813 13.4018 47.2368 17.7704 51.118C17.9059 51.238 18.0481 51.365 18.1903 51.4991C18.3596 51.6544 18.5154 51.8096 18.6848 51.9649C18.8473 52.1201 19.0031 52.2754 19.1589 52.4306C19.2808 52.5506 19.3959 52.6705 19.5111 52.7905C20.1274 53.4397 20.6963 54.103 21.2246 54.7875C22.1999 56.0507 23.0195 57.3844 23.6561 58.7676Z" fill="url(#paint2_linear_185_78)"/>
<path d="M72.5705 37.5338C77.2238 37.5338 80.996 33.5845 80.996 28.7129C80.996 23.8412 77.2238 19.892 72.5705 19.892C67.9171 19.892 64.1449 23.8412 64.1449 28.7129C64.1449 33.5845 67.9171 37.5338 72.5705 37.5338Z" fill="white"/>
<path d="M72.5705 34.4783C75.6266 34.4783 78.104 31.8971 78.104 28.713C78.104 25.5289 75.6266 22.9476 72.5705 22.9476C69.5144 22.9476 67.037 25.5289 67.037 28.713C67.037 31.8971 69.5144 34.4783 72.5705 34.4783Z" fill="#020202"/>
<defs>
<linearGradient id="paint0_linear_185_78" x1="55.2936" y1="0.00057409" x2="55.2936" y2="99.9944" gradientUnits="userSpaceOnUse">
<stop offset="3.64217e-07" stop-color="#00B8D4"/>
<stop offset="1" stop-color="#006498"/>
</linearGradient>
<linearGradient id="paint1_linear_185_78" x1="25.8108" y1="8.10268" x2="34.2733" y2="54.1665" gradientUnits="userSpaceOnUse">
<stop offset="6.13419e-07" stop-color="#FEDC00"/>
<stop offset="0.4554" stop-color="#FDDA00"/>
<stop offset="0.6194" stop-color="#F9D300"/>
<stop offset="0.7363" stop-color="#F3C800"/>
<stop offset="0.8309" stop-color="#EAB700"/>
<stop offset="0.9118" stop-color="#DEA100"/>
<stop offset="0.9822" stop-color="#D08600"/>
<stop offset="1" stop-color="#CC7E00"/>
</linearGradient>
<linearGradient id="paint2_linear_185_78" x1="-2.59029" y1="44.9552" x2="16.8245" y2="67.1625" gradientUnits="userSpaceOnUse">
<stop offset="6.13419e-07" stop-color="#FD7730"/>
<stop offset="0.4364" stop-color="#FB752F"/>
<stop offset="0.5935" stop-color="#F66E2C"/>
<stop offset="0.7056" stop-color="#EC6326"/>
<stop offset="0.7961" stop-color="#DF521E"/>
<stop offset="0.8728" stop-color="#CD3C13"/>
<stop offset="0.9346" stop-color="#BA2407"/>
</linearGradient>
</defs>
</svg>
