<svg width="192" height="192" viewBox="0 0 192 192" fill="none" xmlns="http://www.w3.org/2000/svg">
<path d="M147.307 10.3362C147.307 10.3226 147.294 10.3227 147.294 10.3227C141.026 6.94898 134.771 4.02242 126.292 2.15267C121.624 1.12295 85.8496 -6.76251 65.5502 15.959C64.9 16.6907 64.2888 17.4223 63.7036 18.181C77.826 15.8235 91.4283 18.0049 100.843 25.6736C102.131 26.7168 103.431 27.9498 104.706 29.3453C104.94 29.6027 105.174 29.8602 105.408 30.1312C105.85 30.6189 106.266 31.1202 106.682 31.6486C106.968 32.0009 107.254 32.3667 107.527 32.7461C107.84 33.1526 108.139 33.5726 108.438 33.9926C108.594 34.2229 108.763 34.4532 108.919 34.6836C109.14 35.0223 109.387 35.3746 109.608 35.7269C109.66 35.8082 109.725 35.903 109.764 35.9843C109.777 35.9979 109.777 35.9978 109.777 35.9978L109.79 36.0114C110.388 36.9463 110.947 37.9083 111.481 38.9109C111.624 39.1954 111.767 39.4664 111.91 39.7373C112.677 41.2413 113.379 42.7994 113.99 44.4117C114.133 44.7775 114.264 45.1433 114.394 45.5227C114.407 45.5363 114.407 45.5363 114.407 45.5498C114.524 45.9021 114.654 46.2544 114.758 46.6066C114.81 46.7557 114.849 46.9047 114.901 47.0402C114.992 47.3383 115.083 47.6499 115.174 47.948C115.265 48.3002 115.356 48.6525 115.447 49.0048C115.473 49.0996 115.499 49.1809 115.512 49.2622C115.59 49.6145 115.668 49.9532 115.746 50.3055C115.811 50.59 115.863 50.8745 115.915 51.1591C115.928 51.1726 115.928 51.1862 115.928 51.1997C115.928 51.2133 115.928 51.2133 115.941 51.2268C115.98 51.4436 116.019 51.6604 116.058 51.8907C116.11 52.2023 116.162 52.514 116.214 52.8256C116.266 53.2185 116.318 53.625 116.357 54.0314C116.37 54.045 116.37 54.0721 116.37 54.0856C116.409 54.4785 116.448 54.885 116.474 55.2915C116.5 55.7115 116.526 56.118 116.552 56.538C116.565 56.5651 116.565 56.5787 116.552 56.6058C116.552 56.6193 116.552 56.6193 116.552 56.6193C116.565 57.0257 116.578 57.4322 116.578 57.8522C116.578 58.8142 116.539 59.7762 116.461 60.7517C115.655 70.0056 111.078 77.4711 109.959 79.1918C107.879 82.4435 105.603 85.0043 103.561 86.9553C100.96 89.4212 98.7106 90.9116 97.6573 91.589C94.3283 93.6891 91.2853 94.8543 89.3347 95.4911C88.5414 95.7485 87.8912 95.9247 87.5921 96.0195C87.5011 96.0466 87.4491 96.0466 87.4361 96.0602C81.6362 97.6048 75.1602 100.016 68.8792 102.672C70.0236 104.352 71.233 105.992 72.4944 107.59C74.1719 106.628 75.9535 105.666 77.8911 104.704C87.4231 99.9758 102.677 92.6459 118.49 96.9951C119.673 97.3202 120.987 97.686 122.703 98.4448C122.703 98.4448 134.706 103.797 141.455 122.006C142.638 125.217 143.38 129.038 143.64 133.293C143.64 133.306 143.653 133.32 143.64 133.333C143.653 133.509 143.666 133.686 143.679 133.862C143.666 133.875 143.64 133.875 143.627 133.875C143.484 137.764 142.508 149.985 133.757 160.309C126.604 168.737 118.178 171.338 107.527 174.617C91.4153 179.589 77.9821 179.047 73.2486 178.736C64.6399 178.167 44.6396 176.473 25.8747 162.775C24.0671 161.461 22.2725 160.025 20.504 158.48C20.491 158.507 20.478 158.548 20.465 158.575C21.9084 160.228 23.3909 161.827 24.9514 163.371C42.65 181.052 67.1757 192 94.2892 192C105.512 192 116.318 189.913 126.383 186.147C162.197 172.747 188.725 138.035 191.716 100.071C191.859 98.4583 191.937 96.8324 191.976 95.193C192.756 61.1717 174.434 27.6381 147.307 10.3362ZM139.335 72.0786C130.571 72.0786 123.47 64.6674 123.47 55.5489C123.47 46.4305 130.584 39.0192 139.335 39.0192C148.087 39.0192 155.2 46.4305 155.2 55.5489C155.2 64.6674 148.087 72.0786 139.335 72.0786Z" fill="url(#paint0_linear_186_102)"/>
<path d="M116.227 56.5922C116.24 56.5651 116.24 56.538 116.227 56.5109C116.214 56.0909 116.188 55.6844 116.149 55.2644C116.123 54.8579 116.084 54.465 116.045 54.0721C116.045 54.0585 116.045 54.0315 116.032 54.0179C115.993 53.6114 115.941 53.2185 115.889 52.8256C115.837 52.514 115.798 52.2023 115.733 51.8907C115.707 51.6739 115.655 51.4572 115.616 51.2268C115.603 51.2133 115.603 51.2133 115.603 51.1997C115.603 51.1862 115.603 51.1726 115.59 51.1591C115.538 50.8745 115.486 50.59 115.421 50.3055C115.343 49.9532 115.265 49.6145 115.187 49.2622C115.174 49.1809 115.148 49.0996 115.122 49.0048C115.031 48.6525 114.94 48.3002 114.849 47.948C114.771 47.6499 114.68 47.3383 114.576 47.0402C114.537 46.8912 114.485 46.7421 114.433 46.6066C114.328 46.2544 114.211 45.9021 114.081 45.5498C114.081 45.5363 114.081 45.5363 114.068 45.5227C113.938 45.1569 113.808 44.7776 113.665 44.4117C113.054 42.7994 112.352 41.2413 111.585 39.7373C111.442 39.4528 111.299 39.1954 111.155 38.9109C110.622 37.9083 110.063 36.9463 109.465 36.025L109.452 36.0114C109.452 35.9978 109.452 35.9978 109.439 35.9978C109.387 35.9165 109.335 35.8217 109.283 35.7404C109.062 35.3881 108.815 35.0359 108.594 34.6971C108.438 34.4668 108.269 34.2365 108.113 34.0061C107.813 33.5861 107.514 33.1661 107.202 32.7597C106.929 32.3938 106.643 32.028 106.357 31.6757C105.941 31.1473 105.525 30.6596 105.083 30.1583C104.861 29.8873 104.614 29.6299 104.38 29.3724C103.093 27.9769 101.793 26.7439 100.518 25.7142C91.1032 18.0591 77.4879 15.8913 63.3784 18.2488C46.5381 21.0263 28.9826 30.2395 16.9928 44.2491C6.87561 56.0773 2.31117 69.4501 0.737671 82.0506C8.01997 83.6087 21.2711 87.5785 33.443 98.7564C33.7031 98.9867 33.9762 99.2306 34.2362 99.488C34.5483 99.7861 34.8474 100.084 35.1595 100.382C35.4586 100.68 35.7577 100.978 36.0438 101.277C36.2649 101.507 36.4859 101.737 36.707 101.967C37.9034 103.214 39.0087 104.474 40.0231 105.721C42.0907 108.241 43.8203 110.707 45.2507 112.996C53.8074 108.268 60.5435 105.91 61.922 105.422C61.935 105.422 61.935 105.409 61.948 105.409C63.4044 104.745 64.8999 104.081 66.4084 103.431C67.1106 103.133 67.8128 102.835 68.515 102.537C74.796 99.8945 81.2721 97.4828 87.0719 95.9382C87.54 95.8163 88.2032 95.6266 88.9705 95.3692C93.0928 94.0278 96.0577 92.2665 97.2931 91.4806C98.3464 90.8167 100.596 89.3264 103.197 86.8605C105.239 84.923 107.514 82.3622 109.595 79.124C110.713 77.4033 115.291 69.9514 116.097 60.7246C116.175 59.7491 116.214 58.7871 116.214 57.8251C116.253 57.4051 116.253 56.9987 116.227 56.5922ZM92.8067 42.4607C90.0368 42.4607 87.8001 39.6561 87.8001 36.2011C87.8001 32.7461 90.0368 29.955 92.8067 29.955C95.5766 29.955 97.8133 32.7461 97.8133 36.2011C97.8133 39.6561 95.5766 42.4607 92.8067 42.4607Z" fill="url(#paint1_linear_186_102)"/>
<path d="M145.864 132.818C145.864 132.832 145.877 132.846 145.864 132.859C145.851 133.008 145.851 133.198 145.851 133.415C145.708 137.371 144.719 149.795 135.772 160.296C128.477 168.872 119.868 171.514 108.997 174.847C92.5598 179.901 78.8405 179.359 74.0029 179.034C65.2122 178.451 44.7957 176.73 25.6537 162.802C23.8071 161.461 21.9865 160.011 20.179 158.426C23.365 150.446 27.5393 145.663 34.7435 137.574C39.464 132.276 44.0285 128.036 48.1768 124.554C52 121.356 55.4851 118.782 58.437 116.614C63.4176 112.969 67.8 109.772 73.2487 106.656C74.9522 105.68 76.7858 104.704 78.7494 103.715C88.4765 98.9055 104.042 91.4536 120.193 95.8706C121.403 96.2093 122.742 96.5751 124.485 97.3474C124.485 97.3474 136.735 102.794 143.627 121.315C144.836 124.608 145.59 128.496 145.864 132.818Z" fill="#013A5B"/>
<path d="M45.4197 112.834C42.7539 114.311 39.919 116.018 37.0191 117.955C37.0061 117.955 36.9801 117.969 36.9671 117.982C36.824 118.077 36.694 118.172 36.5509 118.267C29.0736 123.212 24.3271 128.699 22.3895 131.003C17.76 136.49 14.678 141.869 12.6494 146.15C11.1149 142.709 9.99656 139.837 9.24233 137.804C9.24233 137.804 8.30603 135.244 5.3281 126.003C5.10703 125.285 4.83394 124.459 4.56085 123.524C2.1811 115.435 -1.57708 99.1899 0.711637 81.3731C14.1579 84.8281 25.7315 90.6947 34.1192 98.1466C34.3792 98.377 34.6523 98.6208 34.9254 98.8783C35.2505 99.1764 35.5496 99.4744 35.8747 99.7725C36.1868 100.071 36.4859 100.369 36.785 100.667C37.0191 100.897 37.2401 101.127 37.4612 101.358C38.6446 102.604 39.7369 103.878 40.7513 105.192C42.6239 107.617 44.1973 110.178 45.4197 112.834Z" fill="url(#paint2_linear_186_102)"/>
<path d="M139.335 72.065C148.27 72.065 155.513 64.4825 155.513 55.1289C155.513 45.7753 148.27 38.1927 139.335 38.1927C130.401 38.1927 123.158 45.7753 123.158 55.1289C123.158 64.4825 130.401 72.065 139.335 72.065Z" fill="white"/>
<path d="M139.335 66.1984C145.203 66.1984 149.96 61.2424 149.96 55.1289C149.96 49.0154 145.203 44.0594 139.335 44.0594C133.468 44.0594 128.711 49.0154 128.711 55.1289C128.711 61.2424 133.468 66.1984 139.335 66.1984Z" fill="#020202"/>
<defs>
<linearGradient id="paint0_linear_186_102" x1="106.164" y1="0.00110225" x2="106.164" y2="191.989" gradientUnits="userSpaceOnUse">
<stop offset="3.64217e-07" stop-color="#00B8D4"/>
<stop offset="1" stop-color="#006498"/>
</linearGradient>
<linearGradient id="paint1_linear_186_102" x1="49.5567" y1="15.5572" x2="65.8049" y2="104" gradientUnits="userSpaceOnUse">
<stop offset="6.13419e-07" stop-color="#FEDC00"/>
<stop offset="0.4554" stop-color="#FDDA00"/>
<stop offset="0.6194" stop-color="#F9D300"/>
<stop offset="0.7363" stop-color="#F3C800"/>
<stop offset="0.8309" stop-color="#EAB700"/>
<stop offset="0.9118" stop-color="#DEA100"/>
<stop offset="0.9822" stop-color="#D08600"/>
<stop offset="1" stop-color="#CC7E00"/>
</linearGradient>
<linearGradient id="paint2_linear_186_102" x1="-4.97336" y1="86.314" x2="32.303" y2="128.952" gradientUnits="userSpaceOnUse">
<stop offset="6.13419e-07" stop-color="#FD7730"/>
<stop offset="0.4364" stop-color="#FB752F"/>
<stop offset="0.5935" stop-color="#F66E2C"/>
<stop offset="0.7056" stop-color="#EC6326"/>
<stop offset="0.7961" stop-color="#DF521E"/>
<stop offset="0.8728" stop-color="#CD3C13"/>
<stop offset="0.9346" stop-color="#BA2407"/>
</linearGradient>
</defs>
</svg>
