<svg width="64" height="64" viewBox="0 0 64 64" fill="none" xmlns="http://www.w3.org/2000/svg">
<path d="M49.1022 3.44539C49.1022 3.44088 49.0979 3.44089 49.0979 3.44089C47.0085 2.31633 44.9235 1.34081 42.0973 0.717556C40.5412 0.374317 28.6164 -2.25417 21.8499 5.31967C21.6332 5.56355 21.4295 5.80742 21.2344 6.06034C25.9419 5.2745 30.476 6.00162 33.6143 8.55785C34.0435 8.90561 34.4769 9.31659 34.9017 9.78177C34.9797 9.86758 35.0578 9.95339 35.1358 10.0437C35.2832 10.2063 35.4219 10.3734 35.5606 10.5495C35.656 10.667 35.7513 10.7889 35.8424 10.9154C35.9464 11.0509 36.0461 11.1909 36.1458 11.3309C36.1978 11.4076 36.2541 11.4844 36.3062 11.5612C36.3798 11.6741 36.4622 11.7915 36.5359 11.909C36.5532 11.9361 36.5749 11.9677 36.5879 11.9948C36.5923 11.9993 36.5923 11.9993 36.5923 11.9993L36.5966 12.0038C36.796 12.3154 36.9824 12.6361 37.1601 12.9703C37.2078 13.0651 37.2555 13.1555 37.3031 13.2458C37.5589 13.7471 37.793 14.2665 37.9967 14.8039C38.0444 14.9258 38.0877 15.0478 38.1311 15.1742C38.1354 15.1788 38.1354 15.1788 38.1354 15.1833C38.1744 15.3007 38.2178 15.4181 38.2524 15.5355C38.2698 15.5852 38.2828 15.6349 38.3001 15.6801C38.3305 15.7794 38.3608 15.8833 38.3912 15.9827C38.4215 16.1001 38.4518 16.2175 38.4822 16.3349C38.4908 16.3665 38.4995 16.3936 38.5039 16.4207C38.5299 16.5382 38.5559 16.6511 38.5819 16.7685C38.6035 16.8633 38.6209 16.9582 38.6382 17.053C38.6426 17.0575 38.6426 17.0621 38.6426 17.0666C38.6426 17.0711 38.6426 17.0711 38.6469 17.0756C38.6599 17.1479 38.6729 17.2201 38.6859 17.2969C38.7033 17.4008 38.7206 17.5047 38.7379 17.6085C38.7553 17.7395 38.7726 17.875 38.7856 18.0105C38.7899 18.015 38.7899 18.024 38.7899 18.0285C38.8029 18.1595 38.816 18.295 38.8246 18.4305C38.8333 18.5705 38.842 18.706 38.8506 18.846C38.855 18.855 38.855 18.8596 38.8506 18.8686C38.8506 18.8731 38.8506 18.8731 38.8506 18.8731C38.855 19.0086 38.8593 19.1441 38.8593 19.2841C38.8593 19.6047 38.8463 19.9254 38.8203 20.2506C38.5515 23.3352 37.0257 25.8237 36.6529 26.3973C35.9594 27.4812 35.2008 28.3348 34.5203 28.9851C33.6533 29.8071 32.9034 30.3039 32.5523 30.5297C31.4426 31.2297 30.4283 31.6181 29.7781 31.8304C29.5137 31.9162 29.297 31.9749 29.1973 32.0065C29.1669 32.0155 29.1496 32.0155 29.1452 32.0201C27.212 32.5349 25.0533 33.3388 22.9596 34.224C23.3411 34.784 23.7442 35.3305 24.1647 35.8634C24.7238 35.5428 25.3177 35.2221 25.9636 34.9015C29.1409 33.3253 34.2255 30.882 39.4965 32.3317C39.891 32.4401 40.3288 32.562 40.9009 32.8149C40.9009 32.8149 44.9019 34.5989 47.1516 40.6688C47.546 41.7391 47.7931 43.0127 47.8798 44.4309C47.8798 44.4354 47.8841 44.4399 47.8798 44.4444C47.8841 44.5031 47.8885 44.5618 47.8928 44.6205C47.8885 44.6251 47.8798 44.6251 47.8755 44.6251C47.8278 45.9212 47.5027 49.9949 44.5854 53.4364C42.2014 56.2455 39.3925 57.1126 35.8424 58.2056C30.4717 59.8631 25.9939 59.6824 24.4161 59.5785C21.5465 59.3889 14.8797 58.8243 8.62477 54.2583C8.02225 53.8203 7.42406 53.3415 6.83454 52.8267C6.8302 52.8357 6.82587 52.8492 6.82153 52.8583C7.30268 53.4093 7.79684 53.9422 8.31701 54.4571C14.2165 60.3508 22.3918 64 31.4296 64C35.1705 64 38.7726 63.3045 42.1277 62.049C54.0654 57.5823 62.9082 46.0116 63.9052 33.3569C63.9529 32.8194 63.9789 32.2775 63.9919 31.731C64.252 20.3906 58.1444 9.21271 49.1022 3.44539ZM46.445 24.0262C43.5234 24.0262 41.1567 21.5558 41.1567 18.5163C41.1567 15.4768 43.5278 13.0064 46.445 13.0064C49.3623 13.0064 51.7334 15.4768 51.7334 18.5163C51.7334 21.5558 49.3623 24.0262 46.445 24.0262Z" fill="url(#paint0_linear_185_86)"/>
<path d="M38.7424 18.864C38.7468 18.8549 38.7468 18.8459 38.7424 18.8369C38.7381 18.6969 38.7294 18.5614 38.7164 18.4214C38.7078 18.2859 38.6948 18.1549 38.6818 18.0239C38.6818 18.0194 38.6818 18.0104 38.6774 18.0059C38.6644 17.8704 38.6471 17.7394 38.6297 17.6085C38.6124 17.5046 38.5994 17.4007 38.5777 17.2968C38.5691 17.2246 38.5517 17.1523 38.5387 17.0755C38.5344 17.071 38.5344 17.071 38.5344 17.0665C38.5344 17.062 38.5344 17.0575 38.53 17.0529C38.5127 16.9581 38.4954 16.8633 38.4737 16.7684C38.4477 16.651 38.4217 16.5381 38.3957 16.4207C38.3913 16.3936 38.3827 16.3665 38.374 16.3348C38.3436 16.2174 38.3133 16.1 38.283 15.9826C38.257 15.8832 38.2266 15.7794 38.1919 15.68C38.1789 15.6303 38.1616 15.5806 38.1443 15.5355C38.1096 15.418 38.0706 15.3006 38.0272 15.1832C38.0272 15.1787 38.0272 15.1787 38.0229 15.1742C37.9795 15.0522 37.9362 14.9258 37.8885 14.8038C37.6848 14.2664 37.4507 13.747 37.195 13.2457C37.1473 13.1509 37.0996 13.0651 37.0519 12.9702C36.8742 12.636 36.6878 12.3153 36.4884 12.0082L36.4841 12.0037C36.4841 11.9992 36.4841 11.9992 36.4797 11.9992C36.4624 11.9721 36.445 11.9405 36.4277 11.9134C36.354 11.796 36.2717 11.6785 36.198 11.5656C36.146 11.4889 36.0896 11.4121 36.0376 11.3353C35.9379 11.1953 35.8382 11.0553 35.7342 10.9198C35.6431 10.7979 35.5478 10.6759 35.4524 10.5585C35.3137 10.3824 35.175 10.2198 35.0276 10.0527C34.9539 9.96234 34.8716 9.87654 34.7935 9.79073C34.3644 9.32555 33.9309 8.91456 33.5061 8.57132C30.3678 6.01961 25.8294 5.29701 21.1262 6.08285C15.5128 7.00869 9.66094 10.0798 5.66435 14.7496C2.29195 18.6924 0.77047 23.15 0.245972 27.3501C2.6734 27.8695 7.09046 29.1928 11.1477 32.9187C11.2344 32.9955 11.3255 33.0768 11.4122 33.1626C11.5162 33.262 11.6159 33.3613 11.7199 33.4607C11.8196 33.56 11.9193 33.6594 12.0147 33.7588C12.0884 33.8355 12.1621 33.9123 12.2358 33.9891C12.6345 34.4046 13.003 34.8246 13.3411 35.2401C14.0303 36.0801 14.6068 36.9021 15.0837 37.6654C17.9359 36.0892 20.1813 35.3033 20.6407 35.1407C20.6451 35.1407 20.6451 35.1362 20.6494 35.1362C21.1349 34.9149 21.6334 34.6936 22.1362 34.4768C22.3703 34.3775 22.6044 34.2781 22.8384 34.1788C24.9321 33.2981 27.0908 32.4942 29.024 31.9793C29.1801 31.9387 29.4012 31.8755 29.6569 31.7896C31.031 31.3425 32.0193 30.7554 32.4311 30.4935C32.7822 30.2722 33.5321 29.7754 34.3991 28.9534C35.0796 28.3076 35.8382 27.454 36.5317 26.3746C36.9045 25.801 38.4303 23.3171 38.6991 20.2415C38.7251 19.9163 38.7381 19.5956 38.7381 19.275C38.7511 19.135 38.7511 18.9995 38.7424 18.864ZM30.9356 14.1535C30.0124 14.1535 29.2668 13.2186 29.2668 12.067C29.2668 10.9153 30.0124 9.98493 30.9356 9.98493C31.8589 9.98493 32.6045 10.9153 32.6045 12.067C32.6045 13.2186 31.8589 14.1535 30.9356 14.1535Z" fill="url(#paint1_linear_185_86)"/>
<path d="M48.6211 44.2729C48.6211 44.2774 48.6254 44.2819 48.6211 44.2864C48.6167 44.3361 48.6167 44.3993 48.6167 44.4716C48.569 45.7903 48.2396 49.9318 45.2573 53.4319C42.8256 56.2908 39.956 57.1714 36.3322 58.2824C30.8531 59.967 26.28 59.7864 24.6675 59.678C21.7373 59.4838 14.9318 58.9102 8.55111 54.2674C7.93558 53.8203 7.32872 53.3371 6.7262 52.8087C7.7882 50.1486 9.17964 48.5543 11.5811 45.8581C13.1546 44.0922 14.676 42.6786 16.0588 41.5179C17.3332 40.4521 18.4949 39.594 19.4789 38.8714C21.1391 37.6565 22.5999 36.5906 24.4161 35.5519C24.984 35.2267 25.5951 34.9015 26.2497 34.5718C29.492 32.9686 34.6807 30.4846 40.0644 31.9569C40.4675 32.0698 40.914 32.1917 41.4948 32.4492C41.4948 32.4492 45.5781 34.2647 47.8755 40.4385C48.2786 41.536 48.53 42.8322 48.6211 44.2729Z" fill="#013A5B"/>
<path d="M15.1399 37.6112C14.2513 38.1035 13.3063 38.6726 12.3397 39.3184C12.3354 39.3184 12.3267 39.3229 12.3224 39.3274C12.2747 39.3591 12.2313 39.3907 12.1836 39.4223C9.69119 41.0707 8.10903 42.8998 7.46316 43.6676C5.92 45.4967 4.89268 47.2897 4.21647 48.7168C3.70497 47.5697 3.33219 46.6122 3.08078 45.9348C3.08078 45.9348 2.76868 45.0812 1.77603 42.0011C1.70234 41.7617 1.61131 41.4862 1.52028 41.1746C0.727035 38.4784 -0.525695 33.0633 0.237212 27.1244C4.71929 28.276 8.57717 30.2316 11.3731 32.7156C11.4597 32.7923 11.5508 32.8736 11.6418 32.9594C11.7502 33.0588 11.8499 33.1582 11.9582 33.2575C12.0623 33.3569 12.162 33.4562 12.2617 33.5556C12.3397 33.6324 12.4134 33.7092 12.4871 33.7859C12.8815 34.2014 13.2456 34.626 13.5838 35.064C14.208 35.8725 14.7324 36.7261 15.1399 37.6112Z" fill="url(#paint2_linear_185_86)"/>
<path d="M46.4452 24.0217C49.4233 24.0217 51.8376 21.4942 51.8376 18.3763C51.8376 15.2585 49.4233 12.731 46.4452 12.731C43.4671 12.731 41.0529 15.2585 41.0529 18.3763C41.0529 21.4942 43.4671 24.0217 46.4452 24.0217Z" fill="white"/>
<path d="M46.4453 22.0662C48.4011 22.0662 49.9867 20.4142 49.9867 18.3763C49.9867 16.3385 48.4011 14.6865 46.4453 14.6865C44.4894 14.6865 42.9038 16.3385 42.9038 18.3763C42.9038 20.4142 44.4894 22.0662 46.4453 22.0662Z" fill="#020202"/>
<defs>
<linearGradient id="paint0_linear_185_86" x1="35.3878" y1="0.000367418" x2="35.3878" y2="63.9964" gradientUnits="userSpaceOnUse">
<stop offset="3.64217e-07" stop-color="#00B8D4"/>
<stop offset="1" stop-color="#006498"/>
</linearGradient>
<linearGradient id="paint1_linear_185_86" x1="16.519" y1="5.18564" x2="21.9351" y2="34.6665" gradientUnits="userSpaceOnUse">
<stop offset="6.13419e-07" stop-color="#FEDC00"/>
<stop offset="0.4554" stop-color="#FDDA00"/>
<stop offset="0.6194" stop-color="#F9D300"/>
<stop offset="0.7363" stop-color="#F3C800"/>
<stop offset="0.8309" stop-color="#EAB700"/>
<stop offset="0.9118" stop-color="#DEA100"/>
<stop offset="0.9822" stop-color="#D08600"/>
<stop offset="1" stop-color="#CC7E00"/>
</linearGradient>
<linearGradient id="paint2_linear_185_86" x1="-1.65779" y1="28.7714" x2="10.7677" y2="42.984" gradientUnits="userSpaceOnUse">
<stop offset="6.13419e-07" stop-color="#FD7730"/>
<stop offset="0.4364" stop-color="#FB752F"/>
<stop offset="0.5935" stop-color="#F66E2C"/>
<stop offset="0.7056" stop-color="#EC6326"/>
<stop offset="0.7961" stop-color="#DF521E"/>
<stop offset="0.8728" stop-color="#CD3C13"/>
<stop offset="0.9346" stop-color="#BA2407"/>
</linearGradient>
</defs>
</svg>
