<svg width="37" height="38" viewBox="0 0 37 38" fill="none" xmlns="http://www.w3.org/2000/svg">
<path d="M28.3872 2.7711C28.3872 2.76849 28.3847 2.7685 28.3847 2.7685C27.1768 2.11836 25.9714 1.55439 24.3375 1.19407C23.4379 0.995638 16.5439 -0.523957 12.632 3.85467C12.5067 3.99566 12.3889 4.13665 12.2762 4.28287C14.9977 3.82856 17.619 4.24892 19.4333 5.72674C19.6814 5.92779 19.932 6.16539 20.1776 6.43432C20.2227 6.48393 20.2678 6.53354 20.3129 6.58576C20.3981 6.67976 20.4783 6.77636 20.5585 6.87819C20.6136 6.94608 20.6688 7.01657 20.7214 7.08968C20.7815 7.16801 20.8392 7.24895 20.8968 7.32989C20.9269 7.37428 20.9595 7.41866 20.9895 7.46305C21.0321 7.52832 21.0797 7.59622 21.1223 7.6641C21.1324 7.67977 21.1449 7.69804 21.1524 7.71371C21.1549 7.71632 21.1549 7.71632 21.1549 7.71632L21.1574 7.71893C21.2727 7.89909 21.3805 8.08447 21.4832 8.27768C21.5108 8.33252 21.5383 8.38473 21.5659 8.43695C21.7138 8.72677 21.8491 9.02704 21.9669 9.33775C21.9944 9.40824 22.0195 9.47873 22.0446 9.55184C22.0471 9.55445 22.0471 9.55446 22.0471 9.55707C22.0696 9.62495 22.0947 9.69284 22.1147 9.76072C22.1247 9.78945 22.1323 9.81817 22.1423 9.84428C22.1598 9.90172 22.1774 9.96177 22.1949 10.0192C22.2125 10.0871 22.23 10.155 22.2475 10.2229C22.2525 10.2411 22.2576 10.2568 22.2601 10.2725C22.2751 10.3404 22.2901 10.4056 22.3052 10.4735C22.3177 10.5283 22.3277 10.5832 22.3378 10.638C22.3403 10.6406 22.3403 10.6432 22.3403 10.6458C22.3403 10.6485 22.3403 10.6485 22.3428 10.6511C22.3503 10.6928 22.3578 10.7346 22.3653 10.779C22.3753 10.8391 22.3854 10.8991 22.3954 10.9592C22.4054 11.0349 22.4154 11.1132 22.423 11.1915C22.4255 11.1942 22.4255 11.1994 22.4255 11.202C22.433 11.2777 22.4405 11.356 22.4455 11.4344C22.4505 11.5153 22.4555 11.5936 22.4605 11.6746C22.4631 11.6798 22.4631 11.6824 22.4605 11.6876C22.4605 11.6902 22.4605 11.6902 22.4605 11.6902C22.4631 11.7686 22.4656 11.8469 22.4656 11.9278C22.4656 12.1132 22.458 12.2986 22.443 12.4866C22.2876 14.2699 21.4055 15.7086 21.19 16.0401C20.789 16.6668 20.3505 17.1603 19.9571 17.5362C19.4559 18.0114 19.0223 18.2987 18.8193 18.4292C18.1778 18.8339 17.5914 19.0584 17.2155 19.1812C17.0626 19.2308 16.9373 19.2647 16.8797 19.283C16.8621 19.2882 16.8521 19.2882 16.8496 19.2908C15.7319 19.5885 14.484 20.0532 13.2736 20.565C13.4941 20.8888 13.7271 21.2047 13.9702 21.5128C14.2935 21.3274 14.6368 21.142 15.0102 20.9566C16.8471 20.0454 19.7866 18.6329 22.8339 19.471C23.062 19.5337 23.3151 19.6041 23.6459 19.7504C23.6459 19.7504 25.9589 20.7817 27.2595 24.2909C27.4876 24.9097 27.6304 25.646 27.6805 26.4658C27.6805 26.4684 27.683 26.471 27.6805 26.4737C27.683 26.5076 27.6856 26.5415 27.6881 26.5755C27.6856 26.5781 27.6805 26.5781 27.678 26.5781C27.6505 27.3275 27.4625 29.6826 25.776 31.6721C24.3977 33.2962 22.7738 33.7975 20.7214 34.4293C17.6165 35.3876 15.0278 35.2831 14.1156 35.2231C12.4566 35.1134 8.60238 34.787 4.98622 32.1473C4.63789 31.8941 4.29206 31.6173 3.95124 31.3197C3.94874 31.3249 3.94623 31.3327 3.94373 31.3379C4.22189 31.6565 4.50758 31.9646 4.8083 32.2622C8.21896 35.6696 12.9453 37.7792 18.1703 37.7792C20.333 37.7792 22.4154 37.3771 24.3551 36.6513C31.2566 34.069 36.3688 27.3797 36.9452 20.0637C36.9728 19.753 36.9878 19.4397 36.9953 19.1237C37.1457 12.5675 33.6147 6.10534 28.3872 2.7711ZM26.8511 14.6694C25.162 14.6694 23.7937 13.2412 23.7937 11.484C23.7937 9.72678 25.1645 8.29857 26.8511 8.29857C28.5376 8.29857 29.9084 9.72678 29.9084 11.484C29.9084 13.2412 28.5376 14.6694 26.8511 14.6694Z" fill="url(#paint0_linear_185_93)"/>
<path d="M22.398 11.685C22.4006 11.6798 22.4006 11.6745 22.398 11.6693C22.3955 11.5884 22.3905 11.51 22.383 11.4291C22.378 11.3508 22.3705 11.275 22.363 11.1993C22.363 11.1967 22.363 11.1915 22.3605 11.1889C22.3529 11.1106 22.3429 11.0348 22.3329 10.9591C22.3229 10.8991 22.3153 10.839 22.3028 10.779C22.2978 10.7372 22.2878 10.6954 22.2803 10.651C22.2778 10.6484 22.2778 10.6484 22.2778 10.6458C22.2778 10.6432 22.2778 10.6406 22.2752 10.638C22.2652 10.5831 22.2552 10.5283 22.2427 10.4735C22.2276 10.4056 22.2126 10.3403 22.1976 10.2724C22.1951 10.2568 22.19 10.2411 22.185 10.2228C22.1675 10.1549 22.15 10.0871 22.1324 10.0192C22.1174 9.96172 22.0998 9.90167 22.0798 9.84423C22.0723 9.81551 22.0622 9.78679 22.0522 9.76068C22.0322 9.69279 22.0096 9.62491 21.9846 9.55702C21.9846 9.55441 21.9846 9.55441 21.982 9.5518C21.957 9.4813 21.9319 9.4082 21.9044 9.3377C21.7866 9.02699 21.6513 8.72673 21.5034 8.43691C21.4758 8.38208 21.4483 8.33247 21.4207 8.27764C21.318 8.08443 21.2102 7.89905 21.0949 7.7215L21.0924 7.71888C21.0924 7.71627 21.0924 7.71627 21.0899 7.71627C21.0799 7.70061 21.0699 7.68233 21.0598 7.66666C21.0172 7.59878 20.9696 7.53089 20.927 7.46562C20.8969 7.42123 20.8644 7.37684 20.8343 7.33246C20.7767 7.25151 20.719 7.17058 20.6589 7.09225C20.6063 7.02175 20.5511 6.95125 20.496 6.88337C20.4158 6.78154 20.3356 6.68754 20.2504 6.59094C20.2078 6.53872 20.1602 6.48911 20.1151 6.4395C19.867 6.17057 19.6164 5.93297 19.3708 5.73453C17.5565 4.25932 14.9327 3.84157 12.2137 4.29588C8.9684 4.83114 5.5853 6.6066 3.27477 9.30636C1.3251 11.5858 0.445499 14.1628 0.142273 16.591C1.54563 16.8913 4.09924 17.6563 6.44486 19.8104C6.49498 19.8548 6.54761 19.9018 6.59773 19.9514C6.65787 20.0088 6.71551 20.0663 6.77565 20.1237C6.83329 20.1811 6.89093 20.2386 6.94606 20.296C6.98866 20.3404 7.03126 20.3848 7.07387 20.4292C7.30442 20.6694 7.51743 20.9122 7.71289 21.1524C8.11135 21.6381 8.44465 22.1133 8.72031 22.5545C10.3693 21.6433 11.6674 21.189 11.933 21.095C11.9355 21.095 11.9355 21.0924 11.938 21.0924C12.2187 20.9644 12.5069 20.8365 12.7976 20.7112C12.9329 20.6537 13.0682 20.5963 13.2035 20.5388C14.4139 20.0297 15.6619 19.5649 16.7796 19.2673C16.8698 19.2438 16.9976 19.2072 17.1455 19.1576C17.9399 18.8991 18.5112 18.5597 18.7493 18.4083C18.9523 18.2803 19.3858 17.9931 19.887 17.5179C20.2805 17.1446 20.719 16.6511 21.12 16.0271C21.3355 15.6955 22.2176 14.2594 22.373 12.4813C22.388 12.2933 22.3955 12.108 22.3955 11.9226C22.4031 11.8416 22.4031 11.7633 22.398 11.685ZM17.8847 8.96172C17.351 8.96172 16.9199 8.42124 16.9199 7.75544C16.9199 7.08964 17.351 6.55177 17.8847 6.55177C18.4185 6.55177 18.8496 7.08964 18.8496 7.75544C18.8496 8.42124 18.4185 8.96172 17.8847 8.96172Z" fill="url(#paint1_linear_185_93)"/>
<path d="M28.109 26.3745C28.109 26.3771 28.1115 26.3797 28.109 26.3823C28.1065 26.411 28.1065 26.4476 28.1065 26.4894C28.0789 27.2518 27.8884 29.6461 26.1643 31.6696C24.7584 33.3223 23.0995 33.8315 21.0045 34.4738C17.8369 35.4477 15.193 35.3432 14.2608 35.2806C12.5668 35.1683 8.63234 34.8367 4.94351 32.1526C4.58766 31.8941 4.23682 31.6147 3.88849 31.3093C4.50246 29.7714 5.30688 28.8497 6.69521 27.2909C7.60488 26.27 8.48449 25.4528 9.2839 24.7818C10.0207 24.1656 10.6923 23.6695 11.2611 23.2517C12.2209 22.5494 13.0655 21.9332 14.1155 21.3327C14.4438 21.1447 14.7971 20.9567 15.1755 20.7661C17.05 19.8392 20.0497 18.4031 23.1621 19.2543C23.3952 19.3196 23.6533 19.3901 23.9891 19.5389C23.9891 19.5389 26.3497 20.5885 27.6779 24.1578C27.911 24.7922 28.0563 25.5416 28.109 26.3745Z" fill="#013A5B"/>
<path d="M8.75276 22.5232C8.23903 22.8078 7.69272 23.1368 7.13389 23.5102C7.13138 23.5102 7.12637 23.5128 7.12386 23.5154C7.0963 23.5337 7.07124 23.5519 7.04367 23.5702C5.60272 24.5232 4.68803 25.5807 4.31464 26.0246C3.4225 27.082 2.82858 28.1186 2.43764 28.9436C2.14194 28.2805 1.92642 27.7269 1.78107 27.3353C1.78107 27.3353 1.60064 26.8418 1.02677 25.0611C0.984167 24.9227 0.931541 24.7634 0.878915 24.5833C0.420317 23.0245 -0.303917 19.894 0.137138 16.4605C2.72834 17.1263 4.95868 18.2569 6.57505 19.6929C6.62517 19.7373 6.67779 19.7843 6.73042 19.8339C6.79307 19.8913 6.85071 19.9488 6.91336 20.0062C6.9735 20.0637 7.03114 20.1211 7.08878 20.1786C7.13389 20.2229 7.17649 20.2673 7.21909 20.3117C7.44713 20.5519 7.65764 20.7974 7.85311 21.0506C8.21397 21.518 8.5172 22.0115 8.75276 22.5232Z" fill="url(#paint2_linear_185_93)"/>
<path d="M26.8511 14.6668C28.5728 14.6668 29.9686 13.2056 29.9686 11.4031C29.9686 9.60057 28.5728 8.13934 26.8511 8.13934C25.1294 8.13934 23.7336 9.60057 23.7336 11.4031C23.7336 13.2056 25.1294 14.6668 26.8511 14.6668Z" fill="white"/>
<path d="M26.8512 13.5363C27.9819 13.5363 28.8986 12.5812 28.8986 11.4031C28.8986 10.2249 27.9819 9.2699 26.8512 9.2699C25.7204 9.2699 24.8038 10.2249 24.8038 11.4031C24.8038 12.5812 25.7204 13.5363 26.8512 13.5363Z" fill="#020202"/>
<defs>
<linearGradient id="paint0_linear_185_93" x1="20.4586" y1="0.779448" x2="20.4586" y2="37.7771" gradientUnits="userSpaceOnUse">
<stop offset="3.64217e-07" stop-color="#00B8D4"/>
<stop offset="1" stop-color="#006498"/>
</linearGradient>
<linearGradient id="paint1_linear_185_93" x1="9.55012" y1="3.77718" x2="12.6813" y2="20.8208" gradientUnits="userSpaceOnUse">
<stop offset="6.13419e-07" stop-color="#FEDC00"/>
<stop offset="0.4554" stop-color="#FDDA00"/>
<stop offset="0.6194" stop-color="#F9D300"/>
<stop offset="0.7363" stop-color="#F3C800"/>
<stop offset="0.8309" stop-color="#EAB700"/>
<stop offset="0.9118" stop-color="#DEA100"/>
<stop offset="0.9822" stop-color="#D08600"/>
<stop offset="1" stop-color="#CC7E00"/>
</linearGradient>
<linearGradient id="paint2_linear_185_93" x1="-0.958409" y1="17.4127" x2="6.22506" y2="25.6294" gradientUnits="userSpaceOnUse">
<stop offset="6.13419e-07" stop-color="#FD7730"/>
<stop offset="0.4364" stop-color="#FB752F"/>
<stop offset="0.5935" stop-color="#F66E2C"/>
<stop offset="0.7056" stop-color="#EC6326"/>
<stop offset="0.7961" stop-color="#DF521E"/>
<stop offset="0.8728" stop-color="#CD3C13"/>
<stop offset="0.9346" stop-color="#BA2407"/>
</linearGradient>
</defs>
</svg>
