<svg width="844" height="623" viewBox="0 0 844 623" fill="none" xmlns="http://www.w3.org/2000/svg">
<path opacity="0.42" d="M423.158 622.015C495.07 622.015 553.366 614.056 553.366 604.237C553.366 594.419 495.07 586.459 423.158 586.459C351.245 586.459 292.949 594.419 292.949 604.237C292.949 614.056 351.245 622.015 423.158 622.015Z" fill="#AAAAAA"/>
<path opacity="0.6" d="M745.065 64.0636L588.469 559.618C585.608 568.673 575.379 572.143 568.196 566.495L490.975 505.76L452.251 475.298L429.876 457.71L401.011 435.004L314.004 366.569L263.9 327.163L170.005 253.317C161.244 246.432 163.552 231.76 173.936 228.345L463.195 133.259L565.667 99.5724L728.722 45.9686C739.003 42.5857 748.523 53.1305 745.065 64.0636Z" fill="url(#paint0_linear_369_74)"/>
<path d="M463.195 133.259C479.456 144.121 480.946 143.122 480.946 143.122C480.946 143.122 487.627 141.823 496.654 139.312C495.88 141.744 495.113 144.168 494.353 146.608C494.132 147.298 493.925 148.003 493.712 148.692C493.077 149.278 492.303 149.841 491.425 150.387C491.396 149.817 491.389 149.492 491.389 149.492L486.418 152.281L484.036 153.62C484.036 153.62 484.058 153.802 484.095 154.159C483.306 154.523 482.517 154.903 481.72 155.284C477.347 157.391 473.003 159.712 470.459 162.739L470.452 162.747C468.077 164.513 466.219 167.136 465.363 170.297L448.003 234.398L392.287 283.462C392.154 283.573 392.043 283.7 391.918 283.819C391.704 283.977 391.483 284.159 391.262 284.373C383.909 291.48 381.483 296.352 382.626 300.567L377.287 302.944L372.958 290.236L372.368 288.509L365.273 291.036L332.456 302.73L316.585 308.386L298.871 314.701L263.9 327.163L314.004 366.569L317.264 365.167L379.433 338.365L388.098 334.626L386.527 330.015L383.091 319.945C383.127 319.93 383.172 319.914 383.209 319.898L389.175 317.244C389.602 317.695 390.097 318.028 390.679 318.139C391.763 318.353 393.555 318.432 395.524 318.21C398.482 317.878 401.845 316.856 403.873 314.574C405.864 315.469 408.681 315.065 412.612 313.599C421.262 310.391 422.936 309.892 421.852 302.69L428.784 299.608C433.084 297.691 435.127 292.399 433.342 287.78C433.217 287.447 433.062 287.122 432.9 286.813L453.873 276.997C441.27 302.999 439.227 316.808 433.357 342.01C427.125 368.804 408.902 411.561 403.142 429.078C402.604 430.726 401.874 432.723 401.011 435.004L429.876 457.71C432.708 449.407 437.671 444.749 438.858 443.719C438.917 443.671 438.969 443.624 439.006 443.592C439.08 443.537 439.116 443.505 439.116 443.505C439.116 443.505 446.971 423.136 451.1 411.046C457.664 391.858 467.826 364.636 473.173 353.355C474.854 349.797 476.064 347.825 476.521 348.197C478.438 349.742 478.918 371.64 473.166 393.276C467.406 414.913 460.378 442.99 454.618 466.179C453.918 469.016 453.114 472.09 452.251 475.298L490.976 505.76C492.008 493.845 493.417 479.141 494.427 468.794C495.172 461.141 495.703 455.872 495.703 455.872L501.684 449.067L503.859 446.595C503.859 446.595 513.446 410.017 518.247 366.229C522.407 328.24 521.514 287.542 521.205 277.417C521.175 276.459 520.541 275.706 519.737 275.5C519.737 275.08 519.73 274.652 519.737 274.232C519.767 267.68 519.995 261.295 520.644 255.456C520.703 254.949 520.733 254.458 520.733 253.99C520.733 253.903 520.725 253.832 520.718 253.745C520.961 252.818 521.205 251.891 521.448 250.948C521.868 250.869 522.082 250.821 522.082 250.821C522.082 250.821 526.197 234.675 529.523 221.857C532.554 211.011 535.29 200.751 536.839 192.361C537.864 189.089 538.248 185.516 538.13 182.022C538.24 179.186 538.034 176.833 537.429 175.082C537.23 174.504 537.016 173.949 536.787 173.402C535.504 168.934 533.425 165.345 530.984 163.816C530.718 163.65 530.475 163.515 530.239 163.388C528.402 161.344 526.478 159.514 524.641 157.779C524.671 156.63 524.641 156.02 524.641 156.02L517.923 149.152C517.923 149.152 517.93 149.659 517.915 150.538C517.207 149.476 516.654 148.399 516.33 147.266C516.153 146.68 515.917 146.236 515.629 145.887C515.836 144.073 516.035 142.259 516.249 140.445C516.396 139.153 516.551 137.862 516.706 136.571C516.839 135.398 516.979 134.233 517.119 133.061C517.141 132.855 517.163 132.649 517.193 132.443C519.944 131.326 522.657 130.13 525.231 128.846C527.274 127.832 529.228 126.762 531.057 125.645C533.093 125.146 535.143 124.481 537.156 123.633C543.572 120.931 549.612 116.495 553.366 110.664C554.074 109.563 554.686 108.501 555.224 107.471C559.87 107.043 563.808 103.93 565.667 99.5724L463.195 133.259ZM469.043 245.949L462.14 249.593C463.814 247.518 465.164 245.141 466.093 242.55L467.93 237.44L470.09 231.427V231.419L471.329 227.965L469.043 245.949Z" fill="white"/>
<path d="M411.402 284.373C403.408 292.098 401.218 297.184 403.135 301.652C405.052 306.121 425.517 296.154 425.517 296.154C425.517 296.154 418.312 277.695 411.402 284.373Z" fill="#EFC1B1"/>
<path d="M565.224 17.2177C550.018 0.303112 523.395 -2.97681 505.024 9.80222C496.234 15.9184 489.346 25.1086 479.832 29.8145C468.829 35.2573 456.086 33.8788 444.05 32.3814" stroke="url(#paint1_linear_369_74)" stroke-width="3" stroke-miterlimit="10" stroke-linecap="round" stroke-linejoin="round"/>
<path d="M466.447 71.8356C460.769 75.2265 454.065 75.7731 447.686 77.12C441.314 78.4668 437.11 78.6015 433.644 84.5038" stroke="url(#paint2_linear_369_74)" stroke-width="3" stroke-miterlimit="10" stroke-linecap="round" stroke-linejoin="round"/>
<path d="M460.304 102.527C455.422 104.207 451.122 107.764 448.364 112.407" stroke="url(#paint3_linear_369_74)" stroke-width="3" stroke-miterlimit="10" stroke-linecap="round" stroke-linejoin="round"/>
<path d="M563.432 17.6693C578.779 17.4079 597.002 30.8049 586.692 67.1296" stroke="url(#paint4_linear_369_74)" stroke-width="3" stroke-miterlimit="10" stroke-linecap="round" stroke-linejoin="round"/>
<path d="M433.784 46.3488C447.531 37.7608 475.348 53.9069 489.095 35.3603" stroke="url(#paint5_linear_369_74)" stroke-width="3" stroke-miterlimit="10" stroke-linecap="round" stroke-linejoin="round"/>
<path d="M574.944 86.4447C574.944 86.4447 573.506 97.7819 562.473 115.56C562.444 115.608 562.414 115.655 562.378 115.703C559.184 120.741 552.827 125.138 545.372 128.846C526.684 138.147 501.086 143.123 501.086 143.123C501.086 143.123 499.169 144.406 475.909 128.181C452.649 111.947 452.649 95.9835 446.41 87.4747C440.193 78.9897 435.643 75.3849 420.849 66.4087C420.82 66.3928 420.783 66.3691 420.753 66.3532C435.141 41.3656 455.046 53.9861 471.115 48.583C487.177 43.1719 489.095 25.6552 512.834 11.9967C516.617 9.81805 520.408 8.17016 524.118 6.95802C543.705 0.572459 561.035 8.90696 565.512 17.8356C565.512 17.8356 585.409 19.7291 588.528 48.068C591.648 76.399 574.944 86.4447 574.944 86.4447Z" fill="url(#paint6_linear_369_74)"/>
<path d="M562.378 115.703C559.184 120.741 552.827 125.138 545.372 128.846C534.214 129.844 514.995 133.592 497.731 125.091C475.946 114.364 464.397 82.84 464.397 82.84C474.707 83.8699 515.474 77.6903 521.227 74.3391C524.84 72.2396 546.721 96.9659 562.378 115.703Z" fill="#3598A5"/>
<path d="M574.273 107.527C581.275 107.527 586.95 101.429 586.95 93.9078C586.95 86.3863 581.275 80.2889 574.273 80.2889C567.272 80.2889 561.596 86.3863 561.596 93.9078C561.596 101.429 567.272 107.527 574.273 107.527Z" fill="#EDA591"/>
<path d="M539.096 117.612C539.096 117.778 539.088 117.945 539.081 118.119V118.127C539.066 118.293 539.051 118.468 539.029 118.634L539.022 118.674C538.956 119.212 538.889 119.743 538.823 120.282C538.439 123.348 538.056 126.43 537.687 129.512C537.54 130.692 537.399 131.88 537.259 133.061C537.119 134.233 536.979 135.398 536.846 136.571C536.691 137.862 536.537 139.153 536.389 140.445C535.548 147.702 534.745 154.951 534.022 162.168C533.329 169.053 527.569 174.036 521.16 173.292C517.038 172.808 513.653 170.083 511.942 166.367C510.991 164.307 510.555 161.939 510.806 159.475C510.895 158.619 511.057 157.795 511.286 157.003L511.315 156.924C512.362 153.469 513.417 150.031 514.494 146.608C515.615 143.004 516.75 139.415 517.893 135.834C518.69 133.33 519.494 130.835 520.305 128.347C521.75 123.863 523.218 119.395 524.693 114.91C524.84 114.467 525.017 114.047 525.231 113.651C525.563 113.017 525.976 112.439 526.441 111.939C528.402 109.84 531.382 109.008 534.162 110.07C537.208 111.234 539.11 114.324 539.096 117.612Z" fill="#EFC1B1"/>
<path d="M539.081 118.119V118.127C539.066 118.293 539.051 118.468 539.029 118.634L539.022 118.674C538.956 119.212 538.889 119.743 538.823 120.282C538.439 123.348 538.056 126.43 537.687 129.512C537.54 130.692 537.399 131.88 537.259 133.061C537.119 134.233 536.979 135.398 536.846 136.571C529.14 139.32 519.685 140.318 514.494 146.608C515.615 143.004 516.75 139.415 517.893 135.834C518.69 133.33 519.494 130.835 520.305 128.347C521.75 123.863 523.218 119.395 524.693 114.91C524.84 114.467 525.017 114.047 525.231 113.651C525.563 113.017 525.976 112.439 526.441 111.939C529.545 113.405 534.612 115.901 539.081 118.119Z" fill="#EDA591"/>
<path d="M539.096 117.612C539.096 117.945 539.074 118.293 539.029 118.634L539.022 118.674C538.956 119.212 538.889 119.743 538.823 120.282C538.439 123.348 538.056 126.43 537.687 129.512C535.165 128.854 532.488 128.078 530.342 127.404C526.75 126.279 522.775 127.365 520.305 128.347C521.728 123.942 523.166 119.545 524.619 115.14L539.096 117.612Z" fill="#D88D7C"/>
<path d="M573.506 110.664C569.752 116.495 563.712 120.932 557.296 123.633C552.658 125.59 547.82 126.636 543.528 126.636C524.479 126.636 498.741 113.247 496.654 85.7634C496.588 84.9712 496.551 84.171 496.529 83.355C496.374 77.1595 497.251 70.4254 499.53 64.0161C500.024 62.6376 500.577 61.2749 501.204 59.936C507.547 46.333 520.991 35.1147 545.541 35.1147C550.018 35.1147 554.435 36.1763 558.55 38.0936C566.124 41.5953 572.665 47.9571 576.618 55.7925C577.776 58.0742 578.182 61.0531 578.219 64.2775C578.3 70.3224 577.098 77.2388 577.098 82.0715C577.098 88.7661 582.614 96.4984 573.506 110.664Z" fill="#EFC1B1"/>
<path d="M504.442 95.4606C504.442 99.8655 502.635 103.827 499.774 106.513C497.369 108.778 494.228 110.149 490.776 110.149C483.225 110.149 477.104 103.573 477.104 95.4606C477.104 92.656 477.834 90.0416 479.11 87.8154C481.506 83.6006 485.835 80.7802 490.776 80.7802C498.321 80.7802 504.442 87.3558 504.442 95.4606Z" fill="#EDA591"/>
<path d="M578.219 64.2775C574.62 60.8708 564.804 53.2652 550.726 55.2775C532.739 57.8524 517.156 84.6463 500.364 85.6763C499.043 85.7555 497.812 85.7872 496.654 85.7634C496.588 84.9712 496.551 84.171 496.529 83.355C496.374 77.1595 497.251 70.4254 499.53 64.0161C511.986 54.3268 525.873 43.568 526.264 43.4254C526.846 43.2194 549.487 39.3136 558.55 38.0936C566.124 41.5953 572.665 47.9571 576.618 55.7925C577.776 58.0742 578.182 61.0531 578.219 64.2775Z" fill="#EDA591"/>
<path d="M504.442 95.4606C504.442 99.8655 502.635 103.827 499.774 106.513C499.147 98.3365 497.487 91.6023 491.617 86.5794C488.557 83.965 481.794 86.928 479.11 87.8154C481.506 83.6006 485.835 80.7802 490.776 80.7802C498.321 80.7802 504.442 87.3558 504.442 95.4606Z" fill="#D88D7C"/>
<path d="M557.296 123.633C552.658 125.59 547.82 126.636 543.528 126.636C523.933 126.636 497.251 112.462 496.529 83.355C496.344 75.8286 497.672 67.5099 501.204 59.936C501.263 59.9201 501.308 59.9122 501.33 59.9122C502.288 59.9122 505.401 61.4571 505.401 61.4571C505.401 61.4571 501.33 91.6023 519.553 108.858C531.883 120.543 545.755 124.909 557.296 123.633Z" fill="#EDA591"/>
<path d="M578.941 65.2362C578.941 65.2362 578.609 64.6816 577.909 63.7863C574.819 59.8488 564.62 49.3832 545.047 52.1878C522.001 55.4914 513.395 75.2027 498.048 81.3823C490.725 84.3295 482.089 83.9967 475.061 82.84C475.053 82.84 475.053 82.84 475.053 82.84C467.362 81.5724 461.602 79.3224 461.602 79.3224C461.602 79.3224 478.225 80.0117 489.419 70.7344C500.607 61.4571 497.406 37.4202 534.818 30.892C572.223 24.3638 579.9 49.7793 578.941 65.2362Z" fill="#52B9C1"/>
<path d="M579.258 61.7186C579.376 59.9598 579.377 58.201 579.318 56.4501C579.273 54.6992 579.148 52.9562 578.949 51.2212C578.551 47.767 577.865 44.3524 576.677 41.1913C575.519 38.0302 573.838 35.1068 571.552 32.936C570.984 32.3973 570.387 31.8902 569.76 31.4387C569.133 30.995 568.425 30.5434 567.747 30.1314C566.375 29.2917 564.937 28.5707 563.484 27.9052C557.636 25.3383 551.271 24.1658 544.973 24.5302C538.683 24.8154 532.466 26.6218 526.913 29.7591C524.132 31.3198 521.5 33.1895 519.125 35.392C516.721 37.5469 514.612 40.098 512.569 42.752C508.483 48.076 504.906 54.0179 500.666 59.524C498.549 62.2731 496.322 64.9668 493.793 67.3594C491.278 69.752 488.505 71.8752 485.496 73.4914C482.472 75.0918 479.25 76.2089 475.953 76.7397C472.664 77.2943 469.338 77.2943 466.071 76.9219C469.353 76.8823 472.612 76.502 475.754 75.6701C478.888 74.8383 481.897 73.5469 484.633 71.7881C490.172 68.318 494.537 63.1525 498.409 57.6226C502.274 52.0531 505.754 46.0953 509.847 40.4149C511.898 37.5865 514.176 34.8612 516.772 32.4607C519.339 30.0443 522.193 27.9765 525.202 26.2494C531.271 22.8823 538.026 20.9809 544.833 20.767C551.625 20.6006 558.484 21.9475 564.649 25.0293C566.183 25.8137 567.688 26.6614 569.118 27.6279C569.841 28.1191 570.527 28.6024 571.25 29.157C571.957 29.7195 572.636 30.3374 573.248 31.0108C575.741 33.6966 577.378 37.0716 578.41 40.5258C579.421 44.0038 579.878 47.5848 579.981 51.142C580.092 54.6992 579.863 58.2485 579.258 61.7186Z" fill="#5BD3DD"/>
<path d="M524.118 6.95804C491.654 26.083 495.172 43.2591 479.183 54.9369C464.19 65.8937 435.635 54.4853 420.849 66.4087C420.82 66.3928 420.783 66.3691 420.753 66.3532C435.141 41.3656 455.046 53.9862 471.115 48.583C487.177 43.1719 489.095 25.6552 512.834 11.9968C516.617 9.81807 520.408 8.17018 524.118 6.95804Z" fill="#3598A5"/>
<path d="M577.909 63.7863C574.819 59.8488 564.62 49.3832 545.047 52.1878C522.001 55.4914 513.395 75.2027 498.048 81.3823C490.725 84.3295 482.089 83.9967 475.061 82.84C480.297 82.7687 489.265 82.1191 497.406 78.9738C509.877 74.1728 526.182 50.8092 543.13 48.4087C559.885 46.032 568.831 49.3594 577.909 63.7863Z" fill="#3598A5"/>
<path d="M578.543 62.2335C578.13 60.9421 577.629 59.6904 577.09 58.4624C576.567 57.2265 575.991 56.0222 575.372 54.8497C574.14 52.4967 572.761 50.2388 571.183 48.171C569.627 46.0874 567.887 44.1781 565.962 42.5381C564.052 40.8902 561.965 39.4959 559.73 38.4659C557.503 37.4439 555.158 36.7388 552.761 36.3902C550.372 36.0416 547.909 36.0575 545.49 36.2952C540.637 36.7547 535.961 38.4659 531.714 41.0724C527.429 43.6314 523.564 47.046 519.848 50.6508C516.109 54.2476 512.569 58.1455 508.778 61.8215C505.017 65.5134 501.013 69.0548 496.521 71.7881C492.037 74.5055 486.993 76.2881 481.897 76.399C486.934 75.5988 491.639 73.4597 495.776 70.4809C499.951 67.5337 503.623 63.8497 507.207 60.0469C510.762 56.2124 514.258 52.259 517.967 48.4642C521.691 44.693 525.71 41.12 530.268 38.3154C534.826 35.5346 539.981 33.7124 545.254 33.2767C547.886 33.0945 550.526 33.1578 553.152 33.6173C555.77 34.0689 558.336 34.9246 560.711 36.1842C563.093 37.4281 565.291 39.0363 567.238 40.9219C569.185 42.8075 570.881 44.9386 572.363 47.2124C575.276 51.8075 577.422 56.9017 578.543 62.2335Z" fill="#3598A5"/>
<path d="M564.826 67.5495L564.937 72.1367C564.944 72.3506 565.077 72.5011 565.239 72.4694C566.478 72.2318 571.456 71.4633 575.925 73.3171C576.191 73.428 576.427 72.9844 576.25 72.6992C573.16 67.708 569.192 66.377 565.099 67.1376C564.944 67.1613 564.826 67.3515 564.826 67.5495Z" fill="#3598A5"/>
<path d="M540.084 66.5434L539.302 71.1226C539.265 71.3365 539.059 71.4791 538.83 71.4474C537.09 71.2018 530.084 70.3858 523.446 72.2001C523.048 72.311 522.775 71.8594 523.063 71.5821C528.166 66.6226 534.015 65.3312 539.759 66.1235C539.973 66.1552 540.121 66.3453 540.084 66.5434Z" fill="#3598A5"/>
<path d="M540.77 86.9597C539.273 91.6736 533.447 93.4958 528.181 91.5548C526.492 90.9368 525.01 89.891 523.823 88.5997C521.315 85.8664 520.128 82.0478 521.146 78.8471C522.65 74.1411 529 72.7625 534.258 74.6956C538.24 76.1613 540.784 79.7344 541.131 83.4342C541.249 84.6146 541.138 85.8189 540.77 86.9597Z" fill="white"/>
<path d="M541.197 83.9492C541.197 87.744 538.336 90.818 534.811 90.818C532.112 90.818 529.796 89.0117 528.867 86.4606C528.579 85.6842 528.424 84.8365 528.424 83.9492C528.424 80.1622 531.286 77.0883 534.811 77.0883C537.842 77.0883 540.379 79.362 541.028 82.4043C541.138 82.8955 541.197 83.4183 541.197 83.9492Z" fill="#472813"/>
<path d="M541.131 83.4342C539.295 80.5266 536.02 77.421 530.342 78.1182C524.317 78.8708 523.439 83.7035 523.823 88.5997C521.315 85.8664 520.128 82.0478 521.146 78.8471C522.65 74.1411 529 72.7625 534.258 74.6956C538.24 76.1613 540.784 79.7344 541.131 83.4342Z" fill="#C0CDCE"/>
<path d="M535.054 87.2132C536.732 87.2132 538.093 85.7519 538.093 83.9492C538.093 82.1465 536.732 80.6851 535.054 80.6851C533.376 80.6851 532.016 82.1465 532.016 83.9492C532.016 85.7519 533.376 87.2132 535.054 87.2132Z" fill="#3E4849"/>
<path d="M523.151 80.0117C524.862 76.193 530.342 75.7177 535.143 77.009C539.243 78.1103 540.342 80.9624 541.138 82.5073C541.057 81.1367 540.416 76.8427 534.265 74.7036C528.97 72.8655 522.414 73.6736 520.917 78.3796C520.054 81.0971 521.02 84.7335 522.797 87.2925C521.728 85.0662 522.112 82.3251 523.151 80.0117Z" fill="#3E4849"/>
<path d="M532.96 83.6481C534.007 83.6481 534.855 82.7365 534.855 81.612C534.855 80.4875 534.007 79.576 532.96 79.576C531.913 79.576 531.065 80.4875 531.065 81.612C531.065 82.7365 531.913 83.6481 532.96 83.6481Z" fill="white"/>
<path d="M516.912 74.6006L523.026 77.1754L521.352 79.877L516.912 74.6006Z" fill="#3E4849"/>
<path d="M525.305 75.2423L528.424 74.4659L524.708 68.1596L525.305 75.2423Z" fill="#3E4849"/>
<path d="M532.141 74.9809L534.899 75.7573V68.8013L532.141 74.9809Z" fill="#3E4849"/>
<path d="M576.625 82.1983C577.119 85.8981 574.803 90.0733 571.227 90.6279C567.65 91.1824 563.933 90.0178 563.432 86.318C562.937 82.6182 566.212 76.3119 569.789 75.7573C573.358 75.2027 576.123 78.4985 576.625 82.1983Z" fill="white"/>
<path d="M572.068 88.1244C574.65 88.1244 576.744 85.8755 576.744 83.1015C576.744 80.3274 574.65 78.0786 572.068 78.0786C569.486 78.0786 567.393 80.3274 567.393 83.1015C567.393 85.8755 569.486 88.1244 572.068 88.1244Z" fill="#472813"/>
<path d="M569.789 75.7573C566.257 76.3039 563.019 82.4756 563.425 86.1833C564.184 83.3074 567.193 78.7362 570.504 78.9105C573.307 79.061 575.681 81.3664 576.67 83.6798C576.699 83.1807 576.684 82.6816 576.618 82.1983C576.124 78.4985 573.358 75.2027 569.789 75.7573Z" fill="#C0CDCE"/>
<path d="M563.469 86.112C563.963 82.4756 566.766 78.2846 569.789 77.8172C573.359 77.2626 576.117 80.1543 576.618 83.8462C576.707 83.1649 576.714 82.4756 576.618 81.8022C576.124 78.1024 573.359 74.4105 569.782 74.965C566.213 75.5196 562.931 82.23 563.425 85.9219C563.44 85.9853 563.462 86.0487 563.469 86.112Z" fill="#3E4849"/>
<path d="M572.068 85.3673C573.233 85.3673 574.177 84.3528 574.177 83.1014C574.177 81.8501 573.233 80.8356 572.068 80.8356C570.903 80.8356 569.959 81.8501 569.959 83.1014C569.959 84.3528 570.903 85.3673 572.068 85.3673Z" fill="#3E4849"/>
<path d="M570.696 83.3233C571.568 83.3233 572.275 82.5642 572.275 81.6279C572.275 80.6915 571.568 79.9325 570.696 79.9325C569.825 79.9325 569.118 80.6915 569.118 81.6279C569.118 82.5642 569.825 83.3233 570.696 83.3233Z" fill="white"/>
<path d="M568.831 76.1455C568.831 76.1455 570.866 76.4069 570.866 76.0187C570.866 75.6305 569.31 70.2194 569.31 70.2194L568.831 76.1455Z" fill="#3E4849"/>
<path d="M573.027 76.5337L574.347 78.2053L577.223 72.921L573.027 76.5337Z" fill="#3E4849"/>
<path d="M575.785 79.877L576.626 81.8022L581.058 79.1085L575.785 79.877Z" fill="#3E4849"/>
<path d="M538.653 104.817C540.202 105.752 542.001 106.417 543.631 106.346C544.465 106.338 545.313 106.14 546.257 105.926C547.193 105.712 548.233 105.467 549.302 105.38C551.463 105.174 553.609 105.506 555.556 106.101C556.522 106.394 557.392 106.703 558.1 106.774C558.454 106.798 558.786 106.798 559.081 106.679C559.229 106.631 559.376 106.56 559.516 106.465C559.649 106.386 559.804 106.219 559.87 106.172L560.254 105.918C560.571 105.712 560.984 105.815 561.176 106.156C561.279 106.338 561.301 106.544 561.249 106.734C560.844 108.255 559.479 109.095 558.226 109.246C556.965 109.412 555.91 109.151 554.959 109.008C554.007 108.826 553.108 108.699 552.201 108.604C551.286 108.533 550.409 108.477 549.524 108.541C548.631 108.612 547.731 108.747 546.743 108.905C545.762 109.071 544.649 109.182 543.521 109.079C542.392 108.961 541.279 108.604 540.32 108.073C539.339 107.535 538.491 106.901 537.702 106.045C537.414 105.736 537.414 105.229 537.709 104.92C537.945 104.667 538.307 104.627 538.587 104.793L538.653 104.817Z" fill="#B28580"/>
<path d="M544.973 111.821C544.973 111.821 550.372 115.552 555.763 111.947C552.164 116.844 547.849 116.59 544.973 111.821Z" fill="#D88D7C"/>
<path d="M551.9 94.9137C552.732 94.3974 553.166 93.5304 552.868 92.9772C552.571 92.4239 551.655 92.394 550.823 92.9103C549.99 93.4266 549.557 94.2937 549.854 94.8469C550.151 95.4001 551.067 95.43 551.9 94.9137Z" fill="#D88D7C"/>
<path d="M557.508 94.4482C557.83 93.9321 557.6 93.1602 556.995 92.7241C556.389 92.288 555.637 92.3529 555.315 92.869C554.993 93.3851 555.223 94.157 555.828 94.5931C556.434 95.0292 557.186 94.9644 557.508 94.4482Z" fill="#D88D7C"/>
<path d="M552.024 88.774C552.024 88.774 548.181 87.3242 545.807 77.112C545.674 76.5337 544.877 76.6129 544.848 77.2071C544.361 87.1261 546.883 93.9553 546.883 93.9553C546.883 93.9553 548.167 90.2 552.024 88.774Z" fill="#EDA591"/>
<path d="M554.745 89.4157C555.242 89.4157 555.645 89.0681 555.645 88.6393C555.645 88.2105 555.242 87.8629 554.745 87.8629C554.248 87.8629 553.845 88.2105 553.845 88.6393C553.845 89.0681 554.248 89.4157 554.745 89.4157Z" fill="#F9DED7"/>
<path d="M490.098 101.125C488.623 98.8831 489.877 95.4685 492.952 95.7062C490.762 91.6974 483.306 90.5249 482.207 94.7634C481.919 95.8884 481.764 96.9263 481.698 97.8453C481.646 98.6059 480.614 98.693 480.459 97.9404C479.972 95.5794 480.068 92.6481 482.421 90.4377C487.096 86.0407 493.387 89.4949 495.142 93.1076C496.897 96.7203 497.045 99.8576 495.437 101.743C493.83 103.637 491.344 103.011 490.098 101.125Z" fill="#D88D7C"/>
<path d="M522.311 103.708C525.557 103.708 528.188 101.863 528.188 99.5882C528.188 97.313 525.557 95.4685 522.311 95.4685C519.065 95.4685 516.433 97.313 516.433 99.5882C516.433 101.863 519.065 103.708 522.311 103.708Z" fill="#F9DED7"/>
<path d="M572.289 101.109C574.285 101.109 575.903 99.4422 575.903 97.3858C575.903 95.3293 574.285 93.6622 572.289 93.6622C570.294 93.6622 568.676 95.3293 568.676 97.3858C568.676 99.4422 570.294 101.109 572.289 101.109Z" fill="#F9DED7"/>
<path d="M538.498 91.3409C538.86 90.8259 531.183 96.4905 522.193 91.6023C526.507 96.752 534.899 96.4985 538.498 91.3409Z" fill="#EDA591"/>
<path d="M564.634 90.6992C564.634 90.6992 569.428 94.6921 574.708 92.5055C570.984 92.1173 564.634 90.6992 564.634 90.6992Z" fill="#EDA591"/>
<path d="M574.834 58.7159C563.646 54.9369 547.975 55.2775 537.429 60.0865C526.876 64.8955 507.052 81.3822 477 71.4236" stroke="url(#paint7_linear_369_74)" stroke-width="3" stroke-miterlimit="10" stroke-linecap="round" stroke-linejoin="round"/>
<path d="M559.487 46.3488C549.575 44.289 517.606 74.8541 503.535 82.0715C489.464 89.281 461.329 90.3109 461.329 90.3109" stroke="url(#paint8_linear_369_74)" stroke-width="3" stroke-miterlimit="10" stroke-linecap="round" stroke-linejoin="round"/>
<path d="M501.499 317.893C501.307 318.694 501.035 319.581 500.769 320.334L499.361 324.239L497.952 328.034L495.105 335.569C493.195 340.576 491.241 345.559 489.257 350.534C485.29 360.469 481.167 370.348 476.845 380.172C472.509 389.988 467.981 399.749 463.055 409.43C460.599 414.263 458.018 419.08 455.274 423.865C452.767 428.223 450.149 432.564 447.192 436.874C445.717 441.865 444.345 447.126 443.032 452.402C441.55 458.399 440.141 464.476 438.777 470.584C436.048 482.793 433.482 495.12 430.997 507.472C428.519 519.823 426.122 532.222 423.784 544.628C423.416 546.585 423.047 548.55 422.685 550.515C422.029 554.009 421.38 557.51 420.739 561.004C419.854 565.829 418.976 570.646 418.12 575.463C417.73 577.602 417.346 579.741 416.97 581.88V581.912C415.842 588.273 410.134 592.449 404.212 591.236C400.502 590.476 397.589 587.782 396.21 584.304C395.414 582.3 395.133 580.042 395.495 577.744C395.532 577.523 395.569 577.301 395.605 577.079C397.043 568.079 398.518 559.126 400.023 550.182C400.591 546.815 401.166 543.44 401.741 540.065C403.887 527.524 406.085 514.99 408.393 502.457C410.694 489.923 413.076 477.398 415.665 464.848C416.963 458.574 418.297 452.299 419.75 445.985C421.21 439.671 422.737 433.364 424.625 426.836C424.905 425.846 425.303 424.927 425.783 424.095L426.093 423.564C428.275 419.484 430.311 415.055 432.25 410.524C434.175 405.976 436.019 401.318 437.767 396.572C441.27 387.081 444.485 377.344 447.524 367.504C450.547 357.665 453.401 347.714 456.108 337.716C457.465 332.716 458.785 327.702 460.061 322.687L461.949 315.16L462.863 311.413L463.726 307.753L463.763 307.618C466.403 296.423 476.993 289.65 487.413 292.486C497.834 295.322 504.139 306.699 501.499 317.893Z" fill="#EFC1B1"/>
<path d="M540.231 313.694C540.231 313.853 540.217 314.099 540.217 314.257L540.01 318.408L539.781 322.433L539.228 330.427C538.823 335.743 538.373 341.043 537.864 346.351C536.795 356.959 535.504 367.568 533.911 378.208C532.333 388.856 530.334 399.503 527.761 410.286C526.463 415.673 524.995 421.092 523.21 426.591C521.544 431.708 519.648 436.882 517.038 442.245C515.887 446.476 514.87 451.111 513.933 455.777C512.842 461.236 511.875 466.837 510.954 472.47C509.11 483.736 507.591 495.2 506.049 506.687C504.53 518.175 503.159 529.726 501.861 541.293C501.603 543.511 501.344 545.73 501.094 547.956C500.496 553.232 499.921 558.524 499.361 563.801C499.036 566.906 498.704 570.004 498.38 573.094C498.276 574.061 498.181 575.027 498.077 575.994L498.07 576.065C497.443 582.046 492.421 586.348 486.853 585.667C485.039 585.445 483.394 584.716 482.015 583.631C479.788 581.864 478.276 579.155 477.93 576.128C477.878 575.693 477.856 575.241 477.856 574.789C477.885 568.832 477.959 562.961 478.084 557.059C478.166 552.955 478.261 548.859 478.365 544.763C478.409 542.965 478.453 541.158 478.505 539.36C478.881 527.563 479.36 515.767 479.98 503.938C480.282 498.02 480.629 492.102 481.064 486.168C481.492 480.234 481.964 474.292 482.517 468.319C483.077 462.337 483.689 456.348 484.478 450.263C485.275 444.163 486.175 438.047 487.583 431.479C487.738 430.79 487.944 430.124 488.203 429.506L488.77 428.191C490.245 424.753 491.573 420.562 492.709 416.18C493.852 411.783 494.825 407.149 495.673 402.419C497.384 392.944 498.557 383.096 499.604 373.177C500.622 363.242 501.366 353.196 501.92 343.111C502.222 338.072 502.465 333.025 502.664 327.987L502.923 320.429L503.041 316.673L503.122 313.053L503.129 312.744C503.372 301.731 511.876 293.025 522.119 293.286C532.37 293.547 540.475 302.682 540.231 313.694Z" fill="#EFC1B1"/>
<path d="M534 603.271C533.336 604.982 531.824 606.313 529.693 606.313H483.601C477.443 606.313 473.121 599.785 475.142 593.526L476.757 588.543L477.93 576.128L478.195 573.34L484.906 573.165L498.099 572.825C498.099 572.825 498.195 572.912 498.38 573.094C499.877 574.48 507.318 581.278 516.086 587.252C520.002 589.921 526.042 593.487 531.883 596.814C534.324 598.208 534.877 601.053 534 603.271Z" fill="#EFC1B1"/>
<path d="M534 603.271C533.336 604.982 531.824 606.313 529.693 606.313H483.601C477.443 606.313 473.121 599.785 475.142 593.526L476.757 588.543L477.93 576.128C477.878 575.693 477.856 575.241 477.856 574.789C477.885 568.832 477.959 562.961 478.084 557.059C478.166 552.955 478.261 548.859 478.365 544.763C482.045 545.048 491.824 546.506 501.094 547.956C500.496 553.232 499.921 558.524 499.361 563.801C496.484 564.657 488.276 567.493 484.906 573.165C484.272 574.227 483.807 575.399 483.586 576.667C483.166 579.06 482.576 581.397 482.015 583.631C480.326 590.333 478.851 596.125 482.627 599.595C487.664 604.237 491.978 599.856 501.33 599.856C510.681 599.856 517.635 602.946 520.991 603.2C524.346 603.461 524.59 602.17 527.466 602.946C530.342 603.715 530.342 605.006 533.461 603.461C533.66 603.358 533.845 603.295 534 603.271Z" fill="#EDA591"/>
<path d="M427.287 602.827C425.871 604.903 423.585 606.313 420.849 606.313H393.71C387.537 606.313 383.688 599.127 386.785 593.391L395.605 577.079L397.066 574.369H417.531L418.121 575.463L427.781 593.399C429.5 596.592 429.072 600.228 427.287 602.827Z" fill="#EFC1B1"/>
<path d="M536.47 273.488C532.628 295.473 507.694 292.549 496.661 280.705C488.431 271.864 490.083 258.427 490.253 238.906L491.978 240.063L501.566 223.235L503.122 195.514L493.999 220.93L490.231 231.419C490.157 227.323 489.98 222.997 489.604 218.418C489.567 217.887 489.523 217.357 489.471 216.818C486.588 184.874 481.315 183.329 488.992 165.298C489.375 164.387 489.928 163.547 490.592 162.747L490.599 162.739C493.144 159.712 497.487 157.391 501.861 155.284C503.077 154.697 504.294 154.135 505.474 153.572C510.106 151.386 514.176 149.31 515.364 146.751C519.685 156.535 534.066 139.019 536.47 147.266C537.289 150.071 539.435 152.574 542.097 155.204C547.274 160.314 554.406 165.9 557.569 175.082C562.363 188.994 542.223 240.514 536.47 273.488Z" fill="#EFC1B1"/>
<path d="M427.287 602.827C425.871 604.903 423.585 606.313 420.849 606.313H393.71C387.537 606.313 383.688 599.127 386.785 593.391L395.605 577.079C397.044 568.079 398.518 559.127 400.023 550.182C402.516 548.439 404.529 547.385 405.65 547.472C407.73 547.631 415.23 549.049 422.685 550.515C422.029 554.009 421.38 557.51 420.739 561.004C415.65 561.218 405.421 560.141 403.415 565.678C402.206 569.006 401.284 571.438 400.134 574.369C399.153 576.881 398.01 579.757 396.38 583.884C396.321 584.027 396.269 584.17 396.21 584.304C392.788 592.876 390.635 594.928 391.262 598.311C391.903 601.742 392.22 603.802 399.256 603.12C406.291 602.431 410.126 602.772 417.162 603.12C422.531 603.382 425.481 603.643 427.287 602.827Z" fill="#EDA591"/>
<path d="M509.56 177.451C509.501 177.673 509.42 177.934 509.353 178.148L503.122 195.514L493.999 220.93L490.231 231.419V231.427L488.07 237.44L486.234 242.55C484.891 246.29 482.701 249.601 479.862 252.184L425.746 301.438C422.759 304.069 418.851 304.671 415.451 303.395C413.497 302.674 411.712 301.327 410.377 299.394C406.94 294.435 407.973 287.384 412.427 283.462L468.143 234.398L485.503 170.297C486.359 167.136 488.217 164.513 490.592 162.747L490.599 162.739C493.645 160.489 497.546 159.657 501.293 160.909C501.728 161.051 502.156 161.226 502.561 161.416C503.424 161.812 504.221 162.311 504.951 162.881V162.889C509.066 166.122 511.064 171.889 509.56 177.451Z" fill="#EFC1B1"/>
<path d="M505.474 153.572L504.951 162.881V162.889L503.122 195.514L493.999 220.93L490.231 231.419V231.427L488.07 237.44L484.301 234.913C486.057 230.064 487.996 224.004 489.604 218.418C491.514 211.74 494.206 204.443 494.855 202.114C496.293 196.964 504.221 183.551 502.561 161.416C502.406 159.372 502.178 157.328 501.861 155.284C503.077 154.697 504.294 154.135 505.474 153.572Z" fill="#EDA591"/>
<path d="M539.877 274.232C539.87 275.223 539.87 276.221 539.877 277.227C539.914 294.07 540.998 311.651 539.346 323.724C536.95 341.241 506.735 340.465 505.777 329.128C504.818 317.798 501.455 318.828 494.265 330.166C487.067 341.495 457.819 341.495 456.373 341.495C454.935 341.495 457.819 328.613 464.05 305.431C466.366 296.835 470.776 289.238 475.548 282.234C483.645 270.342 492.753 260.17 494.265 249.791C494.265 249.791 540.91 234.564 540.873 253.99C540.873 254.458 540.844 254.949 540.785 255.456C540.136 261.295 539.907 267.681 539.877 274.232Z" fill="#EFC1B1"/>
<path d="M542.097 155.204C540.998 160.837 539.811 166.565 539.457 167.08C538.734 168.11 523.387 188.717 523.387 188.717L514.11 177.166C515.607 178.227 518.837 179.368 525.784 178.924C538.019 178.156 536.47 147.266 536.47 147.266C537.289 150.071 539.435 152.574 542.097 155.204Z" fill="#EDA591"/>
<path d="M400.266 533.156C400.266 535.731 396.911 554.793 396.911 554.793C396.911 554.793 409.861 560.457 422.811 557.883C425.208 546.546 425.208 534.701 425.208 534.701L400.266 533.156Z" fill="#FF8C50"/>
<path d="M476.005 541.19C476.359 543.741 476.676 563.722 476.676 563.722C476.676 563.722 488.203 566.613 500.659 562.002C501.47 550.412 500.887 538.75 500.887 538.75L476.005 541.19Z" fill="#FF8C50"/>
<path d="M416.682 285.237C414.123 291.25 410.126 294.855 408.209 296.225C406.291 297.596 407.567 302.579 409.485 301.724C411.402 300.868 418.121 297.945 418.121 296.915C418.121 295.877 416.682 285.237 416.682 285.237Z" fill="#EDA591"/>
<path d="M539.877 274.232C539.87 275.223 539.87 276.221 539.877 277.227C538.181 277.703 500.223 284.286 498.571 284.159C496.89 284.033 485.024 280.293 485.739 279.913C486.462 279.525 492.096 273.337 492.096 273.337C491.735 274.629 508.041 277.465 519.317 276.815C528.269 276.308 536.765 274.819 539.877 274.232Z" fill="#EDA591"/>
<path d="M540.873 253.99C537.901 254.284 531.618 254.901 522.672 255.868C509.884 257.239 493.896 269.606 490.061 278.194C487.119 284.761 478.903 281.997 475.312 280.943C483.409 269.051 492.753 260.17 494.265 249.791C494.265 249.791 540.91 234.564 540.873 253.99Z" fill="#EDA591"/>
<path d="M493.999 220.93L486.234 242.55C484.891 246.29 482.701 249.601 479.862 252.184L425.746 301.438C422.759 304.069 418.851 304.671 415.451 303.395C415.089 299.83 415.038 294.522 415.561 288.493C416.52 277.504 438.585 269.606 466.078 251.059C493.579 232.512 489.419 222.546 489.419 222.546L493.999 220.93Z" fill="#EDA591"/>
<path d="M448.932 299.608L403.356 319.898C399.057 321.815 394.13 319.621 392.353 315.002C390.568 310.383 392.611 305.091 396.911 303.181L442.487 282.892C446.786 280.975 451.712 283.169 453.49 287.788C455.267 292.399 453.224 297.691 448.932 299.608Z" fill="#705962"/>
<path d="M408.238 334.626L399.573 338.365L337.404 365.167L321.209 372.147L261.452 397.911L255.559 400.454H255.552L245.353 404.851L229.844 411.538L196.266 426.012L158.832 406.055L180.529 364.05L247.182 340.298L262.373 334.887L272.374 331.322L278.155 329.262L336.726 308.386L352.596 302.73L385.414 291.036L392.508 288.509L393.098 290.236L406.668 330.015L408.238 334.626Z" fill="#BAC5D1"/>
<path d="M401.07 310.771L198.951 392.223L399.197 305.606L401.07 310.771Z" fill="#C3D3DD"/>
<path d="M408.238 334.626L196.266 426.012L158.832 406.055L180.529 364.05L392.508 288.509L393.098 290.236C391.704 292.415 390.782 293.817 390.782 293.817L189.836 369.041L176.406 399.44L196.554 419.017L406.668 330.015L408.238 334.626Z" fill="#C3D3DD"/>
<path d="M400.79 312.419L197.269 393.253L399.485 308.711L400.79 312.419Z" fill="#96A7B5"/>
<path d="M408.238 334.626L399.573 338.365L385.414 291.036L392.508 288.509L393.098 290.236L406.668 330.015L408.238 334.626Z" fill="#C3D3DD"/>
<path d="M391.741 286.837L409.964 334.238" stroke="#7C666E" stroke-width="15" stroke-miterlimit="10" stroke-linecap="round"/>
<path opacity="0.6" d="M391.741 286.837L409.964 334.238" stroke="#BAABB1" stroke-width="6" stroke-miterlimit="10" stroke-linecap="round"/>
<path opacity="0.32" d="M262.373 334.887L245.353 404.851L229.843 411.538L247.181 340.298L262.373 334.887Z" fill="white"/>
<path opacity="0.32" d="M278.155 329.262L261.452 397.911L255.559 400.454L272.374 331.322L278.155 329.262Z" fill="white"/>
<path opacity="0.32" d="M352.596 302.73L337.404 365.167L321.209 372.147L336.725 308.386L352.596 302.73Z" fill="white"/>
<path d="M538.388 366.229C533.587 410.017 524 446.595 524 446.595L521.824 449.067L515.843 455.872C515.843 455.872 515.312 461.141 514.567 468.794C513.026 484.544 510.57 510.379 509.929 521.13C508.97 537.102 505.777 542.941 501.455 548.098C498.439 551.695 487.222 551.774 478.615 550.792C478.608 550.792 478.608 550.792 478.601 550.792C474.899 550.364 471.676 549.746 469.803 549.128C463.571 547.068 457.656 535.383 457.177 531.778C456.698 528.173 469.006 489.361 474.758 466.179C480.518 442.99 487.546 414.913 493.306 393.276C499.058 371.64 498.579 349.742 496.661 348.197C496.204 347.825 494.995 349.798 493.313 353.355C487.967 364.636 477.804 391.858 471.241 411.047C467.111 423.136 459.257 443.505 459.257 443.505C459.257 443.505 459.22 443.537 459.146 443.592C459.109 443.624 459.058 443.672 458.999 443.719C457.686 444.86 451.735 450.453 449.183 460.507C448.357 463.771 447.597 467.209 446.882 470.759C443.165 489.163 440.658 510.324 436.233 522.849C433.371 530.946 430.798 536.777 426.815 540.081C423.46 542.885 419.101 543.884 412.737 542.941C398.828 540.881 388.275 533.671 386.358 518.215C391.151 503.273 417.53 446.595 423.283 429.078C429.042 411.562 447.265 368.804 453.497 342.01C459.736 315.224 461.654 301.312 476.521 271.943C476.521 271.943 483.033 275.754 495.821 277.394C499.309 277.837 503.269 278.122 507.694 278.122C523.387 278.122 534.641 276.332 539.118 275.476C540.261 275.262 541.308 276.173 541.345 277.409C541.655 287.542 542.547 328.24 538.388 366.229Z" fill="#FFB382"/>
<path d="M553.683 206.748C552.407 210.868 542.222 250.821 542.222 250.821C542.222 250.821 533.107 252.881 514.884 253.396C506.175 253.642 499.361 252.319 494.891 251.019C490.953 249.879 488.829 248.762 488.829 248.762L494.213 206.408C494.213 206.408 502.524 201.25 503.807 186.483C505.673 164.894 504.176 153.62 504.176 153.62L506.558 152.281L511.529 149.492C511.529 149.492 512.436 182.022 525.548 180.644C538.653 179.273 538.063 149.152 538.063 149.152L544.781 156.02C544.781 156.02 545.099 162.2 542.864 172.507C540.622 182.814 546.647 199.539 553.683 206.748Z" fill="white"/>
<path d="M542.223 173.022C542.223 173.022 517.237 211.898 509.56 223.584C501.89 235.262 494.855 235.602 494.855 235.602L494.213 245.909L518.513 238.351L542.495 178.243L542.223 173.022Z" fill="#E0CECA"/>
<path d="M506.558 152.281C506.175 159.348 506.853 179.027 505.083 188.202C503.166 198.16 502.207 196.449 500.29 207.097C498.372 217.737 500.29 225.295 499.648 230.793C499.161 235.008 496.226 246.076 494.891 251.019C490.953 249.879 488.829 248.762 488.829 248.762L494.213 206.408C494.213 206.408 502.524 201.25 503.807 186.483C505.673 164.894 504.176 153.62 504.176 153.62L506.558 152.281Z" fill="#E0CECA"/>
<path d="M556.131 194.659C555.121 196.996 552.982 200.925 550.232 205.671C539.944 223.465 521.109 252.739 521.109 252.739L520.821 253.206C519.722 255.004 518.21 256.327 516.507 257.12L439.987 292.922L437.892 293.904C437.177 294.237 436.447 294.459 435.717 294.577C431.911 295.203 428.032 293.04 426.417 289.055C424.728 284.88 426.1 280.095 429.463 277.607C429.809 277.346 430.178 277.116 430.569 276.91L504.398 237.916L542.223 173.022C545.696 166.629 545.172 160.085 551.124 163.816C557.083 167.548 560.925 183.583 556.131 194.659Z" fill="#EFC1B1"/>
<path d="M495.821 277.394C495.127 280.943 493.793 286.916 492.458 287.637C490.54 288.667 470.872 310.819 466.558 328.85C462.244 346.89 462.244 360.794 461.285 364.407C460.326 368.011 453.608 367.496 453.608 367.496C453.608 367.496 445.459 394.798 444.979 402.015C444.5 409.224 440.658 409.224 439.22 412.314C437.782 415.412 436.823 432.929 436.823 438.078C436.823 443.228 431.07 446.326 428.674 449.415C426.277 452.505 411.889 475.687 409.005 483.419C406.129 491.143 406.129 507.63 408.047 513.818C409.971 519.997 402.294 509.175 399.418 508.145C396.542 507.115 395.583 530.819 408.047 536.484C415.886 540.049 422.781 540.35 426.815 540.081C423.46 542.885 419.101 543.884 412.737 542.941C398.828 540.881 388.275 533.672 386.358 518.215C391.151 503.273 417.53 446.595 423.283 429.078C429.042 411.562 447.265 368.804 453.497 342.01C459.736 315.224 461.654 301.312 476.521 271.943C476.521 271.943 483.033 275.754 495.821 277.394Z" fill="#FF8C50"/>
<path d="M425.842 310.24C425.399 315.699 420.075 317.711 415.665 318.21C413.696 318.432 411.904 318.353 410.82 318.139C407.302 317.45 406.977 309.21 406.977 309.21C406.712 305.463 407.567 303.649 412.014 302.555C412.862 302.342 413.843 302.159 414.971 301.993C416.011 301.835 417.007 301.731 417.929 301.708H417.98C423.246 301.533 426.388 303.538 425.842 310.24Z" fill="#EDA591"/>
<path d="M425.842 310.24C425.399 315.699 420.075 317.711 415.665 318.21C416.395 317.323 417.184 316.135 417.803 314.598C419.323 310.834 417.796 305.344 417.929 301.708H417.98C423.246 301.533 426.388 303.538 425.842 310.24Z" fill="#D88D7C"/>
<path d="M432.752 313.6C423.681 316.975 420.539 314.725 419.839 303.855C419.315 295.734 417.656 288.525 421.203 283.145C422.398 281.331 424.19 279.723 426.823 278.36C427.752 277.877 428.637 277.639 429.463 277.607C433.711 277.433 436.683 282.654 438.696 288.58C439.183 290.006 439.61 291.48 439.987 292.922C440.842 296.194 441.439 299.339 441.823 301.605C443.224 309.852 441.823 310.232 432.752 313.6Z" fill="#EFC1B1"/>
<path d="M406.019 297.192C406.019 297.192 407.937 300.543 407.221 311.357" stroke="#EFC1B1" stroke-width="9" stroke-miterlimit="10" stroke-linecap="round" stroke-linejoin="round"/>
<path d="M550.231 205.671C539.944 223.465 521.109 252.739 521.109 252.739L520.821 253.206C519.722 255.004 518.21 256.328 516.507 257.12L439.987 292.922C440.842 296.194 441.439 299.339 441.823 301.605C443.224 309.852 441.823 310.232 432.752 313.599C423.681 316.974 420.539 314.724 419.839 303.855C419.315 295.734 417.656 288.525 421.203 283.145C421.107 289.19 421.1 299.101 421.955 303.269C423.239 309.448 424.831 308.418 424.831 308.418C424.831 308.418 426.756 311.167 429.308 308.078C431.233 309.448 433.15 309.448 435.068 307.388C438.261 308.078 437.627 302.579 436.026 296.051C435.894 295.52 435.79 295.029 435.717 294.577C435.171 291.282 436.122 290.006 438.696 288.58C440.09 287.796 441.963 286.972 444.338 285.752C451.69 281.973 511.802 256.898 517.871 250.71C521.979 246.535 539.391 221.468 550.231 205.671Z" fill="#EDA591"/>
<path d="M512.842 175.581L514.111 177.166C512.975 176.35 512.842 175.581 512.842 175.581Z" fill="#E0CECA"/>
<path opacity="0.44" d="M552.886 175.423C553.856 175.423 554.642 174.21 554.642 172.713C554.642 171.217 553.856 170.004 552.886 170.004C551.917 170.004 551.131 171.217 551.131 172.713C551.131 174.21 551.917 175.423 552.886 175.423Z" fill="#F9DED7"/>
<path opacity="0.44" d="M493.822 169.505C494.792 169.505 495.577 168.291 495.577 166.795C495.577 165.299 494.792 164.086 493.822 164.086C492.853 164.086 492.067 165.299 492.067 166.795C492.067 168.291 492.853 169.505 493.822 169.505Z" fill="#F9DED7"/>
<path d="M458.999 443.719C457.686 444.86 451.734 450.453 449.183 460.507C448.357 463.771 447.597 467.209 446.882 470.759C443.969 466.726 440.68 461.339 442.103 459.2C444.316 455.88 457.03 445.343 458.999 443.719Z" fill="#FF8C50"/>
<path d="M512.598 344.307C509.243 351.01 506.367 371.101 506.367 378.826C506.367 386.558 511.64 397.38 510.681 400.47C509.722 403.56 502.045 395.312 500.128 399.44C498.21 403.56 494.855 420.562 495.334 426.226C495.813 431.899 498.21 441.683 493.417 444.773C488.623 447.87 481.425 474.657 479.028 481.874C476.632 489.083 476.632 501.451 477.111 507.115C477.59 512.788 476.152 512.788 472.318 516.392C468.475 519.997 476.632 530.304 482.384 534.939C488.144 539.574 482.384 544.723 478.07 542.664C473.756 540.604 466.558 534.424 467.996 540.089C468.925 543.749 473.07 548.067 478.601 550.792C474.899 550.364 471.676 549.746 469.803 549.128C463.571 547.068 457.657 535.383 457.177 531.778C456.698 528.173 469.006 489.361 474.759 466.179C480.518 442.99 487.546 414.913 493.306 393.276C499.058 371.64 498.579 349.742 496.661 348.197C496.204 347.825 494.995 349.797 493.313 353.355C493.38 352.84 493.417 352.555 493.417 352.555C497.251 343.277 499.648 338.128 503.49 336.583C507.325 335.038 516.912 334.008 519.796 332.978C522.672 331.948 515.954 337.613 512.598 344.307Z" fill="#FF8C50"/>
<path d="M521.824 449.067L515.843 455.872C515.843 455.872 515.312 461.141 514.567 468.794C510.902 465.696 506.367 459.715 506.367 459.715C506.367 459.715 515.983 453.012 521.824 449.067Z" fill="#FF8C50"/>
<path d="M472.31 281.458C472.31 281.458 494.611 298.206 537.532 287.637C525.062 288.152 501.566 288.929 489.331 285.831C477.111 282.741 472.31 281.458 472.31 281.458Z" fill="#FF8C50"/>
<path d="M494.611 288.152C494.611 288.152 499.169 279.778 499.051 280.293C498.933 280.808 497.369 288.794 497.369 288.794L494.611 288.152Z" fill="#FF8C50"/>
<path d="M506.123 282.099L504.803 289.309C504.803 289.309 507.443 289.697 507.443 289.309C507.443 288.921 506.005 281.711 506.005 281.711" fill="#FF8C50"/>
<path d="M513.557 283.129L512.119 289.309C512.119 289.309 513.918 289.697 514.036 289.309C514.154 288.921 513.557 283.129 513.557 283.129Z" fill="#FF8C50"/>
<path d="M520.393 281.973L519.073 289.182C519.073 289.182 521.949 289.57 521.949 289.182C521.949 288.794 520.393 281.973 520.393 281.973Z" fill="#FF8C50"/>
<g opacity="0.53">
<path d="M513.675 370.927C514.471 373.914 515.061 376.742 515.74 379.531C516.396 382.312 517.097 385.029 517.864 387.723C518.631 390.416 519.457 393.094 520.342 395.796C521.219 398.513 522.185 401.215 523.07 404.178C520.696 402.387 518.8 400.026 517.23 397.459C515.673 394.877 514.457 392.048 513.631 389.093C512.797 386.146 512.34 383.064 512.303 379.99C512.274 376.924 512.635 373.834 513.675 370.927Z" fill="#EF7B5C"/>
<path d="M505.548 428.555C505.15 428.12 504.766 427.668 504.412 427.209C504.051 426.749 503.682 426.297 503.343 425.822L504.825 425.814C504.545 427.137 504.582 428.429 504.796 429.712C505.002 430.995 505.393 432.255 505.85 433.499C506.787 436.01 508.166 438.617 509.007 441.786C509.11 442.214 509.213 442.483 509.309 443.204C509.346 443.553 509.375 443.988 509.265 444.559C509.169 445.121 508.8 445.858 508.343 446.262C507.878 446.738 507.097 447.054 506.514 447.047C505.917 447.054 505.548 446.912 505.238 446.793C504.641 446.539 504.316 446.286 504.014 446.096L503.675 445.858C503.616 445.819 503.645 445.834 503.631 445.819C503.631 445.811 503.623 445.787 503.623 445.787C503.616 445.739 503.579 445.731 503.498 445.708C503.313 445.668 502.959 445.826 502.642 446.104C502.34 446.389 502.06 446.785 501.927 447.181C501.853 447.363 501.816 447.688 501.787 447.966C501.772 448.259 501.787 448.56 501.809 448.885C501.942 450.176 502.495 451.586 502.974 453.052C502.384 452.6 501.824 452.117 501.3 451.554C500.769 451 500.29 450.358 499.899 449.598C499.515 448.821 499.228 447.966 499.206 446.912C499.191 445.826 499.523 444.812 500.046 443.925C500.592 443.046 501.374 442.253 502.539 441.826C503.122 441.643 503.8 441.548 504.464 441.691C504.781 441.746 505.142 441.881 505.386 441.984C505.622 442.087 505.799 442.182 505.961 442.269C506.271 442.436 506.544 442.554 506.603 442.547C506.617 442.547 506.595 442.507 506.344 442.491C506.108 442.475 505.659 442.642 505.452 442.863C505.26 443.03 505.061 443.41 505.032 443.616C504.988 443.822 505.002 443.885 504.995 443.862L504.788 443.125C504.051 440.598 502.805 437.912 502.097 434.735C501.743 433.143 501.58 431.463 501.721 429.767C501.868 428.088 502.377 426.369 503.321 425.014L504.405 423.469L504.803 425.014C504.951 425.584 505.076 426.171 505.201 426.757C505.356 427.359 505.452 427.953 505.548 428.555Z" fill="#EF7B5C"/>
<path d="M480.975 514.127C482.31 516.733 483.475 519.149 484.759 521.463C486.027 523.776 487.369 525.971 488.815 528.078C489.169 528.609 489.537 529.132 489.921 529.639C490.29 530.154 490.681 530.669 491.071 531.168C491.447 531.675 491.86 532.158 492.325 532.776C492.782 533.378 493.254 534.068 493.63 534.939C494.007 535.811 494.235 536.833 494.088 537.958C493.925 539.067 493.35 539.954 492.694 540.548C492.015 541.134 491.226 541.475 490.43 541.539C489.641 541.602 488.837 541.348 488.335 540.833C489.744 540.873 490.658 539.922 491.057 539.011C491.433 537.997 491.16 537.538 490.614 536.809C490.054 536.104 489.065 535.335 488.018 534.266C487.015 533.228 486.079 532.111 485.253 530.899C483.593 528.49 482.34 525.773 481.558 522.921C480.806 520.061 480.503 517.058 480.975 514.127Z" fill="#EF7B5C"/>
<path d="M414.61 504.54C415.097 506.537 415.473 508.414 415.871 510.252C416.269 512.083 416.682 513.865 417.125 515.624C418.002 519.142 419.05 522.54 420.259 525.995L422.073 531.2L418.047 528.633C416.992 527.959 415.952 527.246 414.942 526.47C414.44 526.074 413.939 525.678 413.452 525.242C412.966 524.806 412.479 524.37 412.014 523.871C412.671 523.879 413.305 523.943 413.932 524.014C414.566 524.085 415.178 524.188 415.797 524.299C417.022 524.529 418.224 524.83 419.411 525.171L417.199 527.809C414.949 524.505 413.548 520.552 413.032 516.503C412.774 514.475 412.752 512.415 412.995 510.395C413.231 508.367 413.725 506.378 414.61 504.54Z" fill="#EF7B5C"/>
<path d="M437.464 466.995C435.894 465.91 434.935 463.795 434.728 461.664C434.478 459.525 434.994 457.235 435.908 455.318C437.782 451.42 440.879 448.813 443.423 446.421C444.714 445.216 445.908 444.028 446.889 442.753C447.863 441.493 448.652 440.043 449.264 438.466C450.481 435.289 450.909 431.669 450.414 427.771C452.656 430.932 453.409 435.377 452.597 439.528C452.206 441.612 451.403 443.648 450.26 445.454C449.116 447.245 447.715 448.71 446.336 450.017C443.549 452.608 440.776 454.62 438.866 457.282C437.914 458.605 437.206 460.047 436.897 461.743C436.565 463.391 436.638 465.213 437.464 466.995Z" fill="#EF7B5C"/>
<path d="M467.834 342.762C468.623 345.923 468.977 349.084 469.198 352.238C469.397 355.391 469.427 358.544 469.301 361.681C469.235 363.25 469.139 364.819 468.999 366.387C468.918 367.172 468.859 367.956 468.755 368.732C468.667 369.501 468.556 370.364 468.313 371.291C468.077 372.21 467.671 373.216 467 374.033C466.329 374.841 465.488 375.371 464.67 375.665C463.851 375.966 463.047 376.077 462.266 376.092C461.484 376.108 460.724 376.053 459.965 375.918C460.643 375.53 461.329 375.189 461.956 374.817C462.583 374.437 463.18 374.056 463.645 373.605C464.124 373.177 464.441 372.686 464.626 372.226C464.795 371.759 464.869 371.244 464.891 370.618C464.921 369.406 464.81 367.671 464.803 366.142C464.788 364.573 464.817 363.012 464.876 361.444C465.002 358.314 465.275 355.201 465.724 352.087C466.196 348.981 466.794 345.868 467.834 342.762Z" fill="#EF7B5C"/>
<path d="M458.099 388.792C459.065 389.727 459.64 390.591 460.127 391.438C460.592 392.286 460.938 393.118 461.182 393.981C461.425 394.845 461.572 395.74 461.617 396.723C461.646 397.713 461.609 398.775 461.285 400.129C460.016 399.765 459.139 399.044 458.431 398.212C457.738 397.372 457.236 396.39 456.948 395.344C456.653 394.298 456.572 393.189 456.712 392.08C456.875 390.963 457.229 389.838 458.099 388.792Z" fill="#EF7B5C"/>
</g>
<g opacity="0.1" filter="url(#filter0_f_369_74)">
<path d="M311.172 158.278L200.853 194.54C184.658 199.864 169.931 182.664 176.222 165.765L209.157 77.3259C213.833 64.7687 227.948 59.833 238.612 67.0187L316.003 119.196C330.627 129.076 327.699 152.851 311.172 158.278Z" fill="url(#paint9_linear_369_74)"/>
</g>
<g opacity="0.2" filter="url(#filter1_f_369_74)">
<path d="M758.295 115.33L707.815 288.588C706.097 294.474 712.011 299.561 716.982 296.479L836.401 222.411C839.668 220.383 840.56 215.74 838.303 212.492L769.357 113.294C766.289 108.873 759.836 110.054 758.295 115.33Z" fill="url(#paint10_linear_369_74)" fill-opacity="0.37"/>
</g>
<g opacity="0.05" filter="url(#filter2_f_369_74)">
<path d="M322.278 463.058L277.064 433.166C274.697 431.597 271.599 432.35 270.08 434.854L199.364 551.917C196.303 556.987 201.989 562.89 206.598 559.42L322.529 472.24C325.545 469.982 325.413 465.134 322.278 463.058Z" fill="url(#paint11_linear_369_74)"/>
</g>
<g opacity="0.3" filter="url(#filter3_f_369_74)">
<path d="M142.039 351.466L89.1174 440.024C84.1247 448.382 72.7676 448.422 67.7159 440.103L6.65313 339.519C0.81234 329.901 7.92894 317.288 18.5707 318.413L132.555 330.44C142.039 331.446 147.179 342.854 142.039 351.466Z" fill="url(#paint12_linear_369_74)"/>
</g>
<defs>
<filter id="filter0_f_369_74" x="170.736" y="59.6958" width="158.713" height="139.829" filterUnits="userSpaceOnUse" color-interpolation-filters="sRGB">
<feFlood flood-opacity="0" result="BackgroundImageFix"/>
<feBlend mode="normal" in="SourceGraphic" in2="BackgroundImageFix" result="shape"/>
<feGaussianBlur stdDeviation="2" result="effect1_foregroundBlur_369_74"/>
</filter>
<filter id="filter1_f_369_74" x="703.511" y="106.577" width="140.043" height="194.831" filterUnits="userSpaceOnUse" color-interpolation-filters="sRGB">
<feFlood flood-opacity="0" result="BackgroundImageFix"/>
<feBlend mode="normal" in="SourceGraphic" in2="BackgroundImageFix" result="shape"/>
<feGaussianBlur stdDeviation="2" result="effect1_foregroundBlur_369_74"/>
</filter>
<filter id="filter2_f_369_74" x="194.498" y="428.348" width="134.214" height="136.113" filterUnits="userSpaceOnUse" color-interpolation-filters="sRGB">
<feFlood flood-opacity="0" result="BackgroundImageFix"/>
<feBlend mode="normal" in="SourceGraphic" in2="BackgroundImageFix" result="shape"/>
<feGaussianBlur stdDeviation="2" result="effect1_foregroundBlur_369_74"/>
</filter>
<filter id="filter3_f_369_74" x="0.554504" y="314.343" width="147.516" height="135.975" filterUnits="userSpaceOnUse" color-interpolation-filters="sRGB">
<feFlood flood-opacity="0" result="BackgroundImageFix"/>
<feBlend mode="normal" in="SourceGraphic" in2="BackgroundImageFix" result="shape"/>
<feGaussianBlur stdDeviation="2" result="effect1_foregroundBlur_369_74"/>
</filter>
<linearGradient id="paint0_linear_369_74" x1="329.6" y1="444.203" x2="766.109" y2="78.3447" gradientUnits="userSpaceOnUse">
<stop offset="2.71717e-07" stop-color="#006498"/>
<stop offset="0.0173" stop-color="#00689B"/>
<stop offset="0.1747" stop-color="#0085AF"/>
<stop offset="0.3425" stop-color="#009BC0"/>
<stop offset="0.5234" stop-color="#00ABCB"/>
<stop offset="0.7269" stop-color="#00B5D2"/>
<stop offset="1" stop-color="#00B8D4"/>
</linearGradient>
<linearGradient id="paint1_linear_369_74" x1="442.944" y1="17.8672" x2="566.331" y2="17.8672" gradientUnits="userSpaceOnUse">
<stop stop-color="#3598A5"/>
<stop offset="1" stop-color="#52B9C1"/>
</linearGradient>
<linearGradient id="paint2_linear_369_74" x1="432.543" y1="78.173" x2="467.554" y2="78.173" gradientUnits="userSpaceOnUse">
<stop stop-color="#3598A5"/>
<stop offset="1" stop-color="#52B9C1"/>
</linearGradient>
<linearGradient id="paint3_linear_369_74" x1="447.258" y1="107.468" x2="461.409" y2="107.468" gradientUnits="userSpaceOnUse">
<stop stop-color="#3598A5"/>
<stop offset="1" stop-color="#52B9C1"/>
</linearGradient>
<linearGradient id="paint4_linear_369_74" x1="562.328" y1="42.396" x2="590.815" y2="42.396" gradientUnits="userSpaceOnUse">
<stop stop-color="#3598A5"/>
<stop offset="1" stop-color="#52B9C1"/>
</linearGradient>
<linearGradient id="paint5_linear_369_74" x1="432.68" y1="40.8522" x2="490.204" y2="40.8522" gradientUnits="userSpaceOnUse">
<stop stop-color="#3598A5"/>
<stop offset="1" stop-color="#52B9C1"/>
</linearGradient>
<linearGradient id="paint6_linear_369_74" x1="420.755" y1="73.927" x2="588.918" y2="73.927" gradientUnits="userSpaceOnUse">
<stop stop-color="#52B9C1"/>
<stop offset="0.206552" stop-color="#52B9C1"/>
<stop offset="1" stop-color="#52B9C1"/>
</linearGradient>
<linearGradient id="paint7_linear_369_74" x1="475.894" y1="65.3549" x2="575.942" y2="65.3549" gradientUnits="userSpaceOnUse">
<stop stop-color="#3598A5"/>
<stop offset="1" stop-color="#52B9C1"/>
</linearGradient>
<linearGradient id="paint8_linear_369_74" x1="460.227" y1="68.2803" x2="560.595" y2="68.2803" gradientUnits="userSpaceOnUse">
<stop stop-color="#3598A5"/>
<stop offset="1" stop-color="#52B9C1"/>
</linearGradient>
<linearGradient id="paint9_linear_369_74" x1="183.183" y1="192.164" x2="297.748" y2="96.1416" gradientUnits="userSpaceOnUse">
<stop offset="0.0804" stop-color="#006498"/>
<stop offset="0.2624" stop-color="#006E9F"/>
<stop offset="0.5715" stop-color="#0089B2"/>
<stop offset="0.9681" stop-color="#00B4D1"/>
<stop offset="1" stop-color="#00B8D4"/>
</linearGradient>
<linearGradient id="paint10_linear_369_74" x1="689.94" y1="272.224" x2="814.854" y2="167.528" gradientUnits="userSpaceOnUse">
<stop offset="2.71717e-07" stop-color="#006498"/>
<stop offset="0.2492" stop-color="#00679A"/>
<stop offset="0.4578" stop-color="#0072A2"/>
<stop offset="0.6517" stop-color="#0083AE"/>
<stop offset="0.8355" stop-color="#009BC0"/>
<stop offset="1" stop-color="#00B8D4"/>
</linearGradient>
<linearGradient id="paint11_linear_369_74" x1="194.37" y1="552.056" x2="313.482" y2="452.222" gradientUnits="userSpaceOnUse">
<stop offset="0.0804" stop-color="#006498"/>
<stop offset="0.2624" stop-color="#006E9F"/>
<stop offset="0.5715" stop-color="#0089B2"/>
<stop offset="0.9681" stop-color="#00B4D1"/>
<stop offset="1" stop-color="#00B8D4"/>
</linearGradient>
<linearGradient id="paint12_linear_369_74" x1="31.966" y1="397.706" x2="126.803" y2="318.218" gradientUnits="userSpaceOnUse">
<stop offset="2.71717e-07" stop-color="#006498"/>
<stop offset="0.3992" stop-color="#008CB4"/>
<stop offset="0.7866" stop-color="#00ACCB"/>
<stop offset="1" stop-color="#00B8D4"/>
</linearGradient>
</defs>
</svg>
